<svg xmlns="http://www.w3.org/2000/svg" width="40" height="36.641" viewBox="0 0 40 36.641">
  <path id="Fill_1" data-name="Fill 1" d="M32.05,36.641H8.467L0,28.878V24.735L9.631,33.52H30.886L40,25.087V28.8L32.05,36.641ZM30,30.068H10L0,21.407,2.214,19.49l8.95,7.457H28.836L37.685,19.4,40,21.407,30,30.068Zm-3.9-5.8H13.292V3.295H26.1V24.269ZM15.5,15.869l4.226,4.152,4.152-4.152h-2.3l-2.1-7.4-1.7,7.4Zm13.5,7.188v0L28.836,2.787,34.667,0l.6,17.632-6.27,5.424Zm-18.728,0h0l-6.133-5.3L4.714.507l5.55,2.1V23.057Z" transform="translate(0)" fill="#90a4b3"/>
</svg>
