<svg xmlns="http://www.w3.org/2000/svg" xmlns:xlink="http://www.w3.org/1999/xlink" width="16.051" height="29.878" viewBox="0 0 16.051 29.878">
  <defs>
    <clipPath id="clip-path">
      <path id="Clip_2" data-name="Clip 2" d="M0,0H16.051V29.878H0Z" transform="translate(0 0)" fill="none"/>
    </clipPath>
  </defs>
  <g id="Ability_Icon" data-name="Ability Icon" transform="translate(0 0)">
    <path id="Clip_2-2" data-name="Clip 2" d="M0,0H16.051V29.878H0Z" transform="translate(0 0)" fill="none"/>
    <g id="Ability_Icon-2" data-name="Ability Icon" clip-path="url(#clip-path)">
      <path id="Fill_1" data-name="Fill 1" d="M7.817,29.869h0c-.1-.863-.183-1.741-.267-2.591-.194-1.958-.395-3.981-.718-5.949-.311-1.9-.745-3.753-1.2-5.715-.2-.855-.406-1.737-.6-2.63a7.011,7.011,0,0,0,2.942.723,6.3,6.3,0,0,0,3.118-.89,94.991,94.991,0,0,0-3.031,15.37Q7.935,29.028,7.817,29.869ZM5.351,26.976c-.095-.359-.187-.725-.276-1.08-.2-.8-.406-1.62-.66-2.413-.27-.84-.582-1.651-.912-2.509-.145-.377-.294-.764-.439-1.153L2.305,20l-.058.014L0,20.543c.094-.295.175-.556.254-.808.161-.515.3-.96.453-1.39a6.983,6.983,0,0,1,1.048-2.03c.051.593.1,1.175.171,1.982l.116-.02.013,0,1.752-.3c1.4,1.923,1.978,5.29,1.546,9.006Zm5.2-.341h0a17.548,17.548,0,0,1,1.3-8.719l1.072.194.1.017.98.177V16.192l.364-.095c.441,1.143.881,2.286,1.413,3.667l.04.1.239.621-1.872-.372-1.1-.218a13.967,13.967,0,0,0-1.874,4.564C11.01,25.182,10.8,25.925,10.548,26.635ZM8,10.946c-1.619,0-3.239-.828-4.953-2.532.028.122.053.233.076.335l.019.083.193.859c-.053-.032-.1-.067-.153-.1a4.006,4.006,0,0,1-.408-.335,3.909,3.909,0,0,1-1-1.537h0l0-.007h0l0-.006h0l0-.007,0-.007V7.682l0,0h0V7.674h0V7.661l0-.006h0l0-.007h0l0-.007,0-.006h0V7.629l0-.012V7.611l0,0h0V7.6l0-.009,0-.014V7.572h0l0,0h0V7.562l0-.009,0-.014a4.542,4.542,0,0,1-.159-.686c-.017-.108-.03-.22-.039-.331V6.516h0V6.476A5.942,5.942,0,0,1,1.7,4.517,6.414,6.414,0,0,1,7.489.014C7.638,0,7.789,0,7.938,0A6.448,6.448,0,0,1,14.072,4.01a4.8,4.8,0,0,1-1.436,5.738c.1-.438.189-.821.347-1.516C11.306,10.058,9.675,10.946,8,10.946Zm-.019-9.07h-.1A4.253,4.253,0,0,0,3.637,5.949,4.265,4.265,0,0,0,7.966,9.958c.066,0,.133,0,.2,0a4.076,4.076,0,0,0,4.089-4.177A4.146,4.146,0,0,0,7.981,1.876ZM7.975,8.962h0A3.37,3.37,0,0,1,5.562,8,2.956,2.956,0,0,1,5.647,3.75a3.4,3.4,0,0,1,2.329-.874h.009a3.188,3.188,0,0,1,3.3,3.048,2.906,2.906,0,0,1-.981,2.142A3.438,3.438,0,0,1,7.975,8.962Z" transform="translate(0 0)" fill="#fff"/>
    </g>
  </g>
</svg>
