<svg id="Group_3" data-name="Group 3" xmlns="http://www.w3.org/2000/svg" xmlns:xlink="http://www.w3.org/1999/xlink" width="34.572" height="39.932" viewBox="0 0 34.572 39.932">
  <defs>
    <clipPath id="clip-path">
      <path id="Clip_2" data-name="Clip 2" d="M0,0H34.572V39.932H0Z" fill="none"/>
    </clipPath>
  </defs>
  <path id="Clip_2-2" data-name="Clip 2" d="M0,0H34.572V39.932H0Z" fill="none"/>
  <g id="Group_3-2" data-name="Group 3" clip-path="url(#clip-path)">
    <path id="Fill_1" data-name="Fill 1" d="M17.286,39.932C7.755,39.932,0,38.1,0,35.841c0-.468.342-.93,1.017-1.375a17.3,17.3,0,0,0,4.272,1.427c.057.748,1.329,1.449,3.583,1.974a38.845,38.845,0,0,0,8.414.816,38.845,38.845,0,0,0,8.414-.816c2.254-.525,3.526-1.226,3.583-1.974a17.288,17.288,0,0,0,4.271-1.427c.676.446,1.018.909,1.018,1.375C34.573,38.1,26.818,39.932,17.286,39.932Zm0-4.091C7.755,35.841,0,34.006,0,31.75c0-1.43,3.084-2.733,8.249-3.485l1.311,1.311c-2.722.542-4.282,1.334-4.282,2.174,0,1.567,5.387,2.842,12.008,2.842s12.008-1.275,12.008-2.842c0-.808-1.473-1.581-4.042-2.122L26.577,28.3c5.007.759,8,2.048,8,3.447C34.573,34.006,26.818,35.841,17.286,35.841Zm.293-3.156a1.625,1.625,0,0,1-1.147-.46l-11.6-11.6a1.619,1.619,0,0,1,0-2.291l11.6-11.6a1.62,1.62,0,0,1,2.292,0l11.6,11.6a1.621,1.621,0,0,1,0,2.291l-11.6,11.6A1.625,1.625,0,0,1,17.579,32.684ZM16.051,22.013h0l.511.68A3.376,3.376,0,0,1,14.9,24.908l-.229.158.189.214a3.7,3.7,0,0,0,2.692,1.263l.117,0a3.713,3.713,0,0,0,2.648-1.1l.2-.2L20.27,25.1a4.084,4.084,0,0,1-1.754-2.355l.548-.73,1.875.168.463.115.328-.22,1.109-.261,1.753.584-1.753-1.752-1.338.641h-.231l-.3.088-1.508-.151v-.473l1.223-1.572L21,18.968l.086-.658h.585L20.932,15.3l-.866,3.141-.053.281L18.831,20.3l-.508.147c-.014-.4-.011-.628-.008-.729l.715-.294-.283-1.212.457-.225.563-.846-1.755-.549-.8-.009-1.656.434.274.953.491.242-.283,1.212.715.294c0,.186,0,.433-.007.715l-.458-.133L15.1,18.723l-.022-.192-.424-3.143L13.487,18.31h.585l.044.658.318.212,1.223,1.572v.473l-1.508.151-.232-.077-.3-.011-1.3-.641L10.566,22.4l1.753-.584,1.066.262.328.219.447-.112,1.889-.172Zm5.712-9.394a.765.765,0,0,0-.4.107c-.456.274-.552,1-.278,2.1a13.072,13.072,0,0,0,1.495,3.406,13.075,13.075,0,0,0,2.3,2.92,2.664,2.664,0,0,0,1.585.85.768.768,0,0,0,.4-.107c.455-.273.552-1,.279-2.1a13.1,13.1,0,0,0-1.5-3.406,13.12,13.12,0,0,0-2.3-2.92A2.669,2.669,0,0,0,21.763,12.619Zm-8.394,0h0a2.668,2.668,0,0,0-1.585.85,13.14,13.14,0,0,0-2.3,2.92A13.1,13.1,0,0,0,7.987,19.8c-.274,1.1-.177,1.828.278,2.1a.768.768,0,0,0,.4.107,2.669,2.669,0,0,0,1.587-.85,13.069,13.069,0,0,0,2.3-2.92,13.108,13.108,0,0,0,1.5-3.406c.273-1.1.177-1.829-.278-2.1a.769.769,0,0,0-.4-.107Zm12.7,7.9c-.472,0-1.583-1-2.553-2.617a9.3,9.3,0,0,1-1.066-2.424c-.179-.723-.094-1.069.034-1.146A.223.223,0,0,1,22.6,14.3c.473,0,1.584,1,2.553,2.616a9.346,9.346,0,0,1,1.067,2.424c.178.722.092,1.069-.035,1.146A.211.211,0,0,1,26.072,20.515Zm-16.63-.277a.212.212,0,0,1-.111-.027c-.128-.076-.214-.422-.035-1.145a9.346,9.346,0,0,1,1.067-2.424c.97-1.617,2.081-2.617,2.554-2.617a.216.216,0,0,1,.111.027c.128.076.213.422.034,1.146A9.34,9.34,0,0,1,12,17.621C11.024,19.237,9.914,20.238,9.442,20.238ZM4.69,15.516v0L5.839,8.045l.575,2.3A28.852,28.852,0,0,0,15.035,0l-.006.023c-.247.659-2.488,6.532-5.166,9.747-2.8,3.364-5.075,5.649-5.17,5.744Zm25.792,0,0,0c-.1-.1-2.365-2.379-5.17-5.744C22.471,6.362,20.161.063,20.138,0a28.956,28.956,0,0,0,8.619,10.344l.575-2.3,1.149,7.468Z" transform="translate(0 0)" fill="#90a4b3"/>
  </g>
</svg>
