<svg xmlns="http://www.w3.org/2000/svg" xmlns:xlink="http://www.w3.org/1999/xlink" width="28.103" height="29.974" viewBox="0 0 28.103 29.974">
  <defs>
    <clipPath id="clip-path">
      <path id="Clip_2" data-name="Clip 2" d="M0,0H28.1V29.974H0Z" transform="translate(0 0)" fill="none"/>
    </clipPath>
  </defs>
  <g id="Planet_Logo" data-name="Planet Logo" transform="translate(0 0)">
    <path id="Clip_2-2" data-name="Clip 2" d="M0,0H28.1V29.974H0Z" transform="translate(0 0)" fill="none"/>
    <g id="Planet_Logo-2" data-name="Planet Logo" clip-path="url(#clip-path)">
      <path id="Fill_1" data-name="Fill 1" d="M1.089,29.974h0l-.522-.04H.555L.079,29.9q-.011-.123-.023-.246v-.015q-.01-.105-.02-.21L0,29.109c0-.111,0-.219,0-.326s0-.211,0-.316c.009.054.018.1.027.15s.012.061.017.091c.006-.049.01-.094.013-.131,0-.02,0-.04,0-.058s0-.019,0-.028,0-.021,0-.031L.076,28.4l.005-.038c0-.017,0-.033.006-.048l0-.029c0-.044.006-.084.006-.122a1.05,1.05,0,0,0-.011-.155l0-.015a1.772,1.772,0,0,1,.006-.5Q.118,27.249.148,27L.6,26.97l.245-.015c.113-.01.227-.01.337-.011l.153,0H1.4c.138,0,.28,0,.419-.012l.5-.024.66.028.25-.054.008,0L3.61,26.8l.434-.1.233-.051.672-.032.187-.068.212-.076c.025-.013.037-.02.037-.023s0,0,0,0a.352.352,0,0,0-.046.007l-.01,0a.444.444,0,0,1-.068.01l-.011,0a1.037,1.037,0,0,1,.142-.03l.012,0,.008,0,.064-.014.011,0,.03-.009a.27.27,0,0,0,.033-.013l.01-.007.011-.007.037-.024-.053,0c.071-.028.15-.061.275-.119l.149-.07.089-.044.092-.046L6.51,26l.309-.069.015-.009.042-.022.083-.045.069-.038.011-.007a.388.388,0,0,1,.042-.023.183.183,0,0,1-.045-.037l0,0-.012-.009L7,25.722l-.017-.01-.027-.018L6.9,25.662l-.034-.023-.035-.024L6.8,25.591l-.014-.011-.028-.019a.3.3,0,0,1-.043-.043l-.005-.007c-.091-.063-.181-.128-.276-.2L6.42,25.3l-.113-.087-.14-.111-.214-.262-.247-.3-.095-.085-.039-.036-.059-.051-.094-.082C5.31,24.191,5.2,24.1,5.072,24c-.036-.038-.053-.059-.051-.064h0a.229.229,0,0,1,.073.04l.008.006a.342.342,0,0,0,.057.035s0-.012-.094-.095l-.21-.167-.1-.084L4.7,23.63l-.072-.06-.036-.057-.023-.033-.044-.067-.082-.124c-.037-.053-.073-.105-.107-.156L4.3,23.083l-.013-.022,0,0a.084.084,0,0,1-.01-.013l0-.005a.161.161,0,0,1-.031,0l-.087.007-.079.006-.153.009H3.906l-.044,0-.043,0-.044,0H3.75l-.382.1-.03.008-.235.06-.389,0H2.592c-.077,0-.159,0-.242,0-.134,0-.251.009-.355.014l-.152.01c-.066,0-.128.01-.189.012l.045,0,0,0a.913.913,0,0,0-.3-.033H1.337s-.016,0-.016.008a.247.247,0,0,0,.09.018l.082.011-.316.011-.087,0h-.6l-.226,0-.215,0c0-.189-.005-.423-.009-.733V22.5a.286.286,0,0,0,.014.09.406.406,0,0,0,.013-.123v-.025a.941.941,0,0,1,.021-.266C.08,22.112.072,22.1.065,22.1l-.01,0c-.005,0-.01-.007-.017-.042,0-.017-.007-.041-.012-.074l0-.016c0-.014,0-.026,0-.041v-.009c0-.018,0-.034-.008-.082v-.014l.041-.185c.012-.052.024-.1.035-.155l.008-.033c.01-.043.02-.084.03-.124l.019-.076.01-.038a.081.081,0,0,1,0-.018l.014-.3c.005-.16.011-.318.016-.472l.572.057c.036,0,.075-.005.113-.006H.958l.011,0,.01,0,.025,0,.021,0,.027-.006c.029-.005.056-.011.078-.016.057-.015.081-.026.084-.039l.184-.023c.089-.011.17-.022.251-.029l.4-.031.17-.013.035,0,.132,0,.085,0,.116,0h.059a.069.069,0,0,1-.005-.013h.016l-.019-.011-.005,0-.022-.056c-.028-.076-.053-.159-.079-.246a2.248,2.248,0,0,0-.143-.4.178.178,0,0,1,.039.044c.012.017.023.032.029.032s0,0,0-.005l-.155-.356c.045.092.086.147.1.147a.006.006,0,0,0,0,0c.007-.01,0-.053-.048-.2a.416.416,0,0,0-.064-.116s0,.024,0,.047a.135.135,0,0,1,.006.053h0s-.009,0-.024-.031l.018-.112c-.038-.113-.079-.195-.1-.195a.007.007,0,0,0-.005,0,.437.437,0,0,0,.026.2l-.066-.211,0-.015-.106-.336c-.1-.239-.192-.472-.283-.7-.017-.26-.033-.508-.049-.747l-.036-.181c-.013-.067-.025-.126-.036-.186l.049.072-.029-.13-.015-.068L1.636,16.5l-.031-.145c0-.038,0-.075-.006-.112s0-.072-.006-.105c0-.067-.005-.132-.008-.194l0-.082c0-.033,0-.064,0-.094v-.114s0-.012,0-.018a.062.062,0,0,1,0-.009v-.012c0-.014,0-.025,0-.036v-.019c0-.009,0-.015,0-.022a.126.126,0,0,1-.014-.027c-.008-.018-.018-.039-.024-.039s-.006.008-.006.023c-.053-.239-.043-.258-.033-.278a.1.1,0,0,0,.008-.063c0-.016,0-.034-.007-.054l0,.01a.326.326,0,0,0,.037.113l-.058-.337.071-.675,0-.022A.741.741,0,0,0,1.59,14c.006-.058.013-.125.019-.2,0-.037.005-.075.008-.114,0-.009,0-.018,0-.027s0-.021,0-.032,0-.023,0-.035,0-.027,0-.04c.009-.04.019-.08.029-.121l.01-.047c0-.023.009-.042.013-.06.017-.079.03-.147.04-.208a.5.5,0,0,0-.08.2l.046-.272.041-.08.011-.021c.012-.024.021-.042.027-.043l0,0a.049.049,0,0,0,.008-.019l-.049-.4.048-.007c0-.05,0-.088-.007-.123,0-.017,0-.033-.006-.049V12.3c0-.015,0-.03,0-.045s0-.025,0-.038l.005-.016.022-.067.006-.025.006-.025.024-.1a1.205,1.205,0,0,1,.072-.2l.02-.042.041-.086,0-.01L1.97,11.6l.005-.009,0-.007a.173.173,0,0,0,0-.032c0-.021.005-.042.007-.06L2,11.444,2,11.386c.007-.06.014-.11.02-.154v-.011l0-.018c.007-.042.012-.076.016-.108a.036.036,0,0,1,0-.015l0-.011,0-.012,0-.012-.013-.028,0-.008,0-.005-.009-.013L2,10.951l-.163-.219h0a.153.153,0,0,1-.081-.047c-.015-.013-.034-.031-.058-.054l-.01-.01L1.665,10.6c-.013-.015-.027-.031-.042-.046l-.028-.044-.027-.042-.05-.079-.058-.1-.046-.075c-.035-.056-.069-.112-.1-.164l-.03-.046L1.265,9.98l-.016-.024-.006-.01-.011-.016,0-.005-.018-.018L1.2,9.895l-.02-.02-.012-.012a.271.271,0,0,0-.051-.038C1.054,9.743,1,9.669.943,9.6l-.093-.12L.8,9.418.763,9.369.737,9.337Q.672,9.161.6,8.973C.556,8.851.509,8.727.46,8.6.437,8.45.413,8.3.39,8.141L.377,8.061c-.019-.123-.039-.25-.062-.374-.051-.3-.1-.609-.155-.906l.024.087A2.175,2.175,0,0,0,.145,6.6C.136,6.563.127,6.529.118,6.5c0-.014-.008-.026-.012-.038S.093,6.419.085,6.386V6.343l0-.031c0-.019,0-.038,0-.058C.072,6.21.07,6.17.069,6.13A2.359,2.359,0,0,1,.081,5.8l.006.128.006-.048C.1,5.853.1,5.83.1,5.806l.006-.051c0-.029.006-.056.009-.084.009-.053.018-.109.027-.166l.006-.042c.006-.042.012-.084.019-.127S.18,5.244.187,5.2l.005-.038,0-.024c.007-.057.014-.113.022-.17.076-.241.133-.437.2-.663l.007-.024.127-.313.035-.086.05-.129.075-.193A.1.1,0,0,0,.7,3.609c.013,0,.049-.046.1-.175.01-.029.012-.047.008-.052l0,0a.049.049,0,0,0-.019.009.048.048,0,0,1-.017.01c-.005-.006,0-.035.066-.155-.009.025-.01.037-.007.04s.038-.038.06-.085l.032-.107.016-.054,0-.013L.953,3,.97,2.956c.041-.051.057-.075.074-.1l.018-.025.215-.22.179-.183.062-.085.135-.184.219-.3c.2-.178.338-.295.556-.491l.337-.17.3-.156L3.124,1,3.245.917A.288.288,0,0,1,3.326.883c.008.008-.011.028-.027.046L3.275.955l.4-.264.2-.072.142-.05L4.174.514l0,0,.15-.054.265-.15L4.631.287l.06-.034L4.784.2,4.965.1,5.034.094,5.292.067l.073.046A.9.9,0,0,0,5.572.075l.06-.021.013,0L5.664.045a.216.216,0,0,1,.044-.01l.057,0h.062c.051,0,.111.007.181.015l.015,0a.636.636,0,0,1-.075,0l-.111,0-.128,0-.04.006L5.64.073,5.594.084h.034l.082,0,.049,0,.035,0h.172A1.212,1.212,0,0,0,6.107.071L6.142.065,6.226.051c.023,0,.049-.006.079-.009L6.4.037l.013,0,.021,0L6.489.027,6.556.022l.053,0L6.45.09l.005,0A2.186,2.186,0,0,0,6.85.06,1.045,1.045,0,0,0,6.967.033L7.015.018,7.05.009,7.084,0l.045,0,.023,0h.075a2.284,2.284,0,0,1,.33.063c.04.011.076.023.109.036l.047.019.016.007a.354.354,0,0,0,.039.016l.071.041a2.379,2.379,0,0,0,.542.24L8.46.46l.011,0L8.5.476,8.568.5a.22.22,0,0,0,.048.008c.007,0,.012,0,.014,0s0-.01,0-.016-.005-.012,0-.016.007,0,.014,0A.226.226,0,0,1,8.688.48l.07.034.105.051.09.042L9,.627l.155.045L9.24.7,9.3.714l.151.041.056.016.025.007.049.015.066.02.021.013.137.086.166.109c.07.075.067.082.066.085h0a.255.255,0,0,1-.078-.041l0,0a.323.323,0,0,0-.068-.039c0,.005.008.022.08.094L9.62.877l-.1-.036.078.034.023.01a.183.183,0,0,1,.037.032h0A.147.147,0,0,1,9.611.9L9.521.872,9.346.824A.7.7,0,0,0,9.2.795c-.009,0-.014,0-.016,0s0,0,0,.007c.048.018.105.037.184.06l.1.03.042.012L9.6.93c.114.066.215.122.322.181.088.049.178.1.279.156l.115.111h-.005c-.009,0-.019-.007-.034-.019l-.035-.032-.05-.049-.036-.021L10.1,1.225a.691.691,0,0,0-.062-.034.067.067,0,0,0-.023-.008c-.006.006,0,.02.024.043l.063.033.072.04.052.048a.019.019,0,0,1-.009,0L10.2,1.334a.4.4,0,0,1-.037-.026.7.7,0,0,1-.115-.064.168.168,0,0,0,.037.041.543.543,0,0,0,.062.043l.029.029c.008.008.017.017.027.025l.005,0,.053.05.012.011c.039.036.078.073.119.116a.029.029,0,0,0,.021-.014.092.092,0,0,0,0-.07l.021.033a3.946,3.946,0,0,1,.354.333l.183.193L11,2.072l.056.06.015.015.016.016.019-.006.023-.007.047-.012.062-.016c.069-.019.137-.04.2-.063-.017.008-.025.013-.025.015s.009,0,.019,0l.021,0c.032-.007.062-.014.094-.023l.047-.013.023-.007.008,0,.217-.117.041-.022.136-.071,0,0,.008,0,.044-.022.035-.017.021-.01.021-.01.026-.012.049-.022H12.3l.022,0a.046.046,0,0,1,.022.013.032.032,0,0,1,.007.012.027.027,0,0,0,.009.013.134.134,0,0,0,.072.011,2.774,2.774,0,0,0,.281-.023.04.04,0,0,0,.023-.018.027.027,0,0,0,0-.021c0-.008-.007-.015,0-.022s.046-.033.264-.05c-.028.005-.095.015-.149.028s-.074.019-.074.025.022.008.064.009a2.469,2.469,0,0,1,.248-.025.163.163,0,0,1,.055.008.88.88,0,0,0,.251.025c.028-.008.056-.014.083-.019l.069-.01.005,0,.013,0,.029-.006.042-.009.012,0,.009,0,.085-.019c.048-.012.094-.029.107-.064a.806.806,0,0,0,.112.01h.033l.059-.006h.008l.043-.005.032,0,.057-.008s.005,0,.03.007l.011,0,.022,0,.028.005c-.014-.006-.015-.01-.015-.011a.709.709,0,0,1,.235-.015.955.955,0,0,0,.3-.021.006.006,0,0,0,0-.005c.01.006.015.011.014.016s-.069.024-.133.032-.116.014-.117.027.038.025.119.044l.056,0,.1-.006.012,0,.022-.005.048-.011.094-.022.179-.042a.454.454,0,0,0,.206-.084l.07-.005c.071.018.1.027.126.036l.021.007.1.031.009,0c.081.026.165.049.274.074a.619.619,0,0,0-.107-.008l.1.015.037.006.065.011.03,0,.039,0,.078.006h.014l.146.013.036,0h.012l.022,0,.042,0v-.02c0-.015,0-.03,0-.043l0-.015,0-.036V1.541c0-.018,0-.035,0-.053s0-.034,0-.05a1.825,1.825,0,0,0-.043-.322s.006.006.01.006a.012.012,0,0,0,.009-.006A.067.067,0,0,0,16.48,1.1a.116.116,0,0,0,.005-.039l.007-.037c0-.016.005-.032.009-.049s.009-.064.013-.1c.007-.072.015-.154.022-.233.009-.1.018-.191.025-.266a1.732,1.732,0,0,1,.026-.2h0c.007,0,.014,0,.014,0s0,0-.008.006a1.017,1.017,0,0,1,.011.133c0-.023,0-.046,0-.072l0-.045.227-.049.035-.008.034-.007.022-.006.042-.011L17.033.1l.023-.006L17.194.05l.054-.018L17.285.02V.026c0,.005.017.008.04.008h.016A.647.647,0,0,0,17.41.05l.063.014c.046.008.1.016.161.024L17.7.1l.122.017.092.013.044.007.008,0h.005l.008,0h.1a1.021,1.021,0,0,1,.207-.054L18.36.071l.072-.013.1-.016.08-.013.047.007.047.007.065.009.04,0-.016,0h0c-.028,0-.042,0-.044.009s0,.008.01.014a.758.758,0,0,1,.272.047c.045.016.105.038.227.072l.088.011c0,.088,0,.13.012.13s.012-.021.02-.053l0-.016c.01-.034.017-.058.023-.058s.011,0,.015.106c-.005.073-.01.128-.014.169l0,.034,0,.018c0,.005,0,.009,0,.012l0,.008c0,.011-.006.015-.01.015s-.005,0-.008-.008a.1.1,0,0,1-.012-.032C19.36.517,19.355.5,19.348.5s-.006,0-.009.014,0,.038,0,.051l0,.018L19.35.64l.012.119L19.385,1a.626.626,0,0,1-.043.2c0,.023,0,.046.007.068a1.573,1.573,0,0,1,0,.469l.007-.4-.039.154.016.241.029.24a2.461,2.461,0,0,1-.042.418l.163.054-.131,0L19.3,2.424c-.011.027-.023.04-.038.04s-.037-.019-.057-.038l-.021-.02,0,.044.642.251.637.307.66.265.593.391.437.3L22.309,4c-.143-.1-.324-.207-.5-.31l-.13-.077a1.673,1.673,0,0,1-.466-.339l.187.112a.217.217,0,0,0-.052-.066.718.718,0,0,0-.067-.059l-.006,0-.041-.03-.064-.042L21.1,3.163c-.023-.008-.049-.015-.076-.022a.289.289,0,0,0-.079-.014c-.014,0-.022,0-.023.007s0,.008.011.014l-.149-.072a.677.677,0,0,1,.146.031l.08.025.031.01.014,0,.047.015.075.026.045.027.227.137.068.042L21.7,3.5c-.029-.013-.068-.033-.109-.055a.843.843,0,0,0-.169-.077s0,0-.005,0,0,.008.008.016c.095.057.191.112.283.164l.108.062.077.046c.1.059.2.12.3.182a1.219,1.219,0,0,0-.211-.083l-.03-.009a.882.882,0,0,0,.256.162.828.828,0,0,1,.173.093c.056.055.087.086.084.095h-.005a.058.058,0,0,1-.022-.006,4.982,4.982,0,0,1,.73.514,1.157,1.157,0,0,0-.2-.1s0,0,0,0,0,.009.01.019l.147.107c.151.1.263.167.363.225l.137.1.121.086.1.073.047.034.057.042.025.019L24,5.229l.017.013.053.041.012.014.066.077a10.459,10.459,0,0,1,.7.864,6.875,6.875,0,0,0,.563.692c.005-.006-.011-.034-.043-.084l-.009-.014a.292.292,0,0,1-.04-.07h0s.014.006.094.1l-.009,0a.005.005,0,0,0-.005,0c-.006.013.034.067.069.116a.333.333,0,0,1,.053.083,2.311,2.311,0,0,1,.318.376,1.833,1.833,0,0,0,.2.243.819.819,0,0,0,.114.2l.041.065-.009,0h0c-.007.012.018.054.038.087l.016.028c.009.016.008.018.007.018h0s-.009,0-.025-.018S26.135,8,26.037,7.9c.083.085.137.146.191.21.07.136.126.259.18.379.026.057.05.111.075.164l.026.053c.012.023.023.047.033.07.016.038.034.078.056.122a1.55,1.55,0,0,0,.133.228l-.039-.139.123.373-.012-.04.026.079.018.036.022.044.011.021-.011-.021c.026.05.048.09.067.125a2.922,2.922,0,0,1,.195.428c-.041-.061-.086-.134-.129-.205s-.09-.148-.131-.208a2.171,2.171,0,0,0,.247.427l.035.085c.049.119.094.231.132.353-.017,0-.041-.07-.065-.136s-.039-.108-.049-.108-.007.007-.008.021c.045.163.1.307.154.446l.007.017.071.148-.03-.022c.082.25.125.313.16.343l.013.011a.147.147,0,0,1,.032.032.319.319,0,0,1,.023.047c.006.016.011.032.019.057l.011.035c0,.006,0,.013,0,.02s0,.017,0,.025,0,.013,0,.02,0,.015,0,.023l0,0h0s.008,0,.013.01.009.011.013.011.005,0,.007-.008c0,.021,0,.046,0,.073a1.07,1.07,0,0,1-.012.251h0c-.008,0-.02-.018-.045-.152a3.955,3.955,0,0,0,.081.448c.01.03.02.057.028.076,0-.023,0-.044,0-.062v-.019c0-.023,0-.042,0-.06a.306.306,0,0,1,.015-.138l.028.192.139.6a.091.091,0,0,1,0,.027,1.076,1.076,0,0,1-.059-.2c.009.082.019.167.034.269.006.211.022.426.051.7.022.14.046.275.071.419V13.9c.016.092.033.186.049.282.022.263.035.468.043.668.007.237,0,.463-.014.69.007-.035.011-.039.014-.039s0,0,0,0a.257.257,0,0,1,.007.029l0,.015c0,.01,0,.021.005.039s0,.04,0,.058v.02c0,.025,0,.049,0,.07-.012.089-.023.188-.034.292s-.023.212-.037.32c-.034.23-.065.433-.1.59l-.006-.106c-.009.105-.026.2-.042.3-.008.044-.015.087-.022.13l-.01.062q-.028.171-.054.329l-.041.144c-.021.072-.041.14-.059.207-.032.106-.063.208-.093.308l-.007.052c-.008.056-.015.11-.022.165l-.014.091c-.007.046-.013.088-.02.13,0,0,0,.007,0,.008a.133.133,0,0,1-.023-.1c0,.05-.008.1-.015.151l-.014.087-.008.044-.009.049-.023.059c-.006.018-.014.035-.021.052l-.016.039-.025.06,0,.01c-.026.061-.049.118-.07.17a.429.429,0,0,0-.05.244l.045-.123-.039.117-.015.047-.088.14-.1.161c-.059.1-.117.2-.177.3l-.109.327-.11.33-.152.268,0,.008-.088.155c-.083.151-.171.292-.246.41-.016.015-.026.022-.031.022s.025-.063.075-.144l.014-.023a.566.566,0,0,0,.086-.164h0a.047.047,0,0,0-.03.014c-.132.194-.268.4-.394.607l-.122.261,0,.007-.019.04-.1.212-.056.117-.007.008-.128.134-.131.133a.5.5,0,0,0,.056-.073.2.2,0,0,1,.022-.03c-.177.168-.2.2-.194.2h.006l.012,0a.093.093,0,0,1,.023-.006c.006,0,.005.006,0,.011a.227.227,0,0,1-.035.048l-.022.025-.017.019-.051.054h0l0,0,0,0s0,0-.005,0h0c-.014,0-.04.029-.118.128l-.056.15a.02.02,0,0,1-.013.006.011.011,0,0,1-.009,0s-.009-.019,0-.055a1.477,1.477,0,0,1-.074.139l-.059.1-.043.067-.028.043-.1.109,0,.005a3.84,3.84,0,0,0-.356.42l-.012.013-.009,0c-.009-.007-.007-.019,0-.037a.046.046,0,0,0,0-.035.011.011,0,0,0-.009-.006.039.039,0,0,0-.02.009,3.929,3.929,0,0,0-.477.451l0,.005a4.917,4.917,0,0,0-.415.3l-.056.043c-.215.159-.212.167-.206.181s.012.028-.118.149l.328-.234-.548.452.205-.194c-.05.035-.1.072-.139.1l-.068.055-.076.064-.041.022-.041.022-.019.01-.055.029-.15.079-.077.041-.077.04-.08.04-.019.009-.058.028.016,0,.021-.006.042-.012.085-.024-.15.079-.2.139-.01,0a.558.558,0,0,0-.178.083l-.031.019a.543.543,0,0,1-.122.064c-.006-.006,0-.017.033-.058l-.1.059c-.091.066-.191.14-.288.216l-.118.092-.015.012-.14.113-.1.032-.084.028-.164.056-.319.11-.005,0-.012.007-.028.016-.057.033-.115.065c-.06.034-.123.069-.187.1.021-.015.021-.019.02-.024s0-.006,0-.012l-.084.042-.035.017-.07.037-.046.024-.053.016-.007,0-.05.015-.062.021-.03.01c-.058.02-.113.04-.166.059l-.149.059-.07.03-.035.014-.018.007.01-.009.014-.007.046-.023c.032-.016.053-.026.051-.034l-.051.015-.041.012-.034.011-.015.005-.078.04-.03.016-.034.019c-.038.022-.067.04-.1.061s-.071.043-.127.075l-.043.023-.056.03-.062.032-.043.021-.049.025.051-.033.011-.009.011-.009c.008-.007.012-.012.013-.015s0,0,0,0l-.02,0-.024.008-.048.019-.072.01s0,0,0,.006c0,.024-.167.065-.2.073.078-.037.092-.055.09-.063s-.016-.01-.043-.01a2.04,2.04,0,0,0-.21.021h-.008a2,2,0,0,1-.209.022c-.023,0-.036,0-.037-.009s.008-.016.03-.028l-.009,0-.052.016-.188.03a1.683,1.683,0,0,0-.43.091s.006.008.019.011l-.041,0-.041,0L16.748,28l-.168.032-.122.022-.228.041-.685.032-.347.01-.358.014-.186,0h-.021l-.152,0,.108-.007a.821.821,0,0,0,.172-.015.21.21,0,0,0-.074-.011c-.127-.008-.234-.014-.337-.017h-.006c-.071,0-.138-.006-.2-.006l-.1,0-.037,0-.254.011-.3.017-.5-.044c-.122-.013-.25-.021-.386-.028l-.168-.01a.007.007,0,0,1,0-.007c.006-.01.039-.015.1-.015a3.349,3.349,0,0,1,.37.029,4.54,4.54,0,0,0,.452.047c.041,0,.065,0,.071-.013l-.3-.036L12.753,28l-.214-.016-.476-.035-.242-.05-.463-.1-.423-.166-.132-.052-.086-.034-.128-.043-.005,0h0l-.094-.031a1.048,1.048,0,0,0-.194-.111l-.038-.016-.019-.008-.055-.022a.375.375,0,0,0-.041-.014l-.019.02-.009.01,0,0-.013.014-.128.121-.068.064-.066.061-.033.03-.037.033-.1.085-.138.051-.108.038c-.078.026-.15.047-.222.064.006,0,.01,0,.01.006s-.011.018-.037.033-.042.023-.071.038L9.057,28l-.025.011-.014.007L9,28.036l-.037.023-.027.016-.053.032-.174.1c.011-.012.017-.018.016-.021l0,0a.435.435,0,0,0-.088.034l-.009,0a.424.424,0,0,1-.077.031s0-.006.01-.016l-.057.04-.009.006-.024.016-.018.012-.025.016-.078.042-.069.037-.093.047-.063.032-.073.036-.007,0-.08.039-.012.005-.153.07-.06.017-.02.006-.063.016c-.036.008-.073.017-.1.022a.372.372,0,0,1-.059.006c-.015,0-.024,0-.028-.007a.008.008,0,0,1,0-.007.946.946,0,0,1-.349.142l-.013,0-.02.007a2.876,2.876,0,0,0-.463.18l-.113.033-.011,0-.019.008-.037.016-.026.012-.049.022-.07.032-.084.039-.133.063-.2.1-.25.073c-.08.022-.164.044-.248.065h.011c.013,0,.019,0,.02,0s0,.005-.026.017-.041.015-.07.025l-.117.036-.128.016-.153.019-.022,0-.113.016a.371.371,0,0,0,.054-.015.24.24,0,0,0-.046,0,1.79,1.79,0,0,0-.321.045,3.366,3.366,0,0,1-.451.087H3.995c-.036,0-.041-.006-.044-.013s0-.012-.024-.012a.694.694,0,0,0-.091.01.8.8,0,0,1-.218.076c-.058.016-.123.032-.191.049l-.024.006-.058.013-.058.013-.038.008-.1.021H3.035l-.087,0c-.065,0-.11-.005-.145-.01l.02,0a.426.426,0,0,0,.13-.015c.016,0,.032-.008.057-.013l-.1,0c-.164.008-.334.017-.5.017H2.385l-.615-.022-.681.1ZM14.89,25.4h0l.039.046a.2.2,0,0,0,.107-.046.159.159,0,0,1,.122-.037l.048,0h.007a.105.105,0,0,1-.03.009l-.007,0a.592.592,0,0,0-.145.046.4.4,0,0,0,.24-.054.464.464,0,0,1,.21-.068l-.064.071h.061l.027,0,.033-.005h.054l.035-.005a.26.26,0,0,0,.055-.019.449.449,0,0,0,.04-.022.4.4,0,0,1,.048-.025.584.584,0,0,1,.115-.013.3.3,0,0,1,.136.031l.019.009a.656.656,0,0,0,.076.033.362.362,0,0,0,.065.015.249.249,0,0,0,.039.005l.035,0,.054-.01.076-.02c.014-.009.021-.016.022-.023A.021.021,0,0,0,16.4,25.3a.021.021,0,0,1-.006-.016c0-.007.009-.014.022-.023a2.035,2.035,0,0,0,.275-.045l.109-.025.061-.012.02,0,.035-.006.013,0,.013,0,.03-.008L17,25.15c.037.008.055.015.056.022s-.017.012-.039.019-.033.01-.033.015.02.011.061.017l-.059.014-.02,0-.029.006h-.041l-.051,0c.058.005.058.01.059.012s-.02.01-.069.021-.12.025-.126.044a.01.01,0,0,0,0,.01.727.727,0,0,0,.115-.015l.063-.014a.434.434,0,0,0,.059-.016l.01-.005.018-.008.035-.016.071-.032.032-.015.108-.048c.005.017-.036.033-.075.048s-.061.023-.06.033.009.01.026.015l.086-.044-.013.014a.109.109,0,0,1-.063.037.051.051,0,0,0,.025.006.23.23,0,0,0,.088-.031.663.663,0,0,1,.085-.037.075.075,0,0,0-.042-.061H17.3a.789.789,0,0,1,.139-.071l.03-.012.05-.019.094-.031L17.7,25l.017,0,.024,0,.067-.013a.846.846,0,0,0,.147-.045s-.007.007-.007.01,0,0,.01.007l.01,0a.669.669,0,0,0,.164-.051l.048-.02.041-.017.03-.011.019-.007.005,0,0-.007.005,0a.07.07,0,0,0,.014.012l.009.01a.038.038,0,0,0,.011.01.026.026,0,0,0,.014,0,.331.331,0,0,0,.133-.068.034.034,0,0,0-.01-.038.034.034,0,0,1-.012-.028c0-.019.034-.045.1-.081-.016.013-.082.07-.077.085s0,0,.009,0a.089.089,0,0,0,.024,0c.075-.056.095-.066.111-.066h.01l.021,0a.339.339,0,0,0,.1-.021.258.258,0,0,1,.086-.073l.019-.011.022-.013.006,0,.016-.011a.161.161,0,0,0,.023-.018c.023-.015.034-.031.035-.048a.2.2,0,0,0,.072.018l.031,0,.085,0c-.006,0-.01,0-.01-.008s.044-.037.091-.062.107-.056.114-.078a.012.012,0,0,0,0-.01.02.02,0,0,1,.012.015c0,.016-.022.036-.044.055s-.043.037-.039.05.024.016.064.017a1.183,1.183,0,0,1,.113-.069l.025-.014.026-.015c.035-.02.072-.042.074-.053h0v0a.042.042,0,0,0,0-.023.1.1,0,0,1-.005-.015c.027-.013.05-.023.073-.032a.892.892,0,0,0,.155-.079.149.149,0,0,0-.029.036v0a1.45,1.45,0,0,1,.165-.144l.1-.08.093-.071.045-.021.015-.007.039-.019c.025-.013.049-.026.069-.039a.354.354,0,0,0,.1-.08.018.018,0,0,0,0,.014.029.029,0,0,0,.022.007.658.658,0,0,0,.174-.054l.017-.007a.616.616,0,0,1,.137-.047c.005,0,.009,0,.01,0s-.005.019-.024.039l.033-.017a.042.042,0,0,0,.013-.009l.012-.016.023-.026c.015-.017.03-.034.042-.05a.511.511,0,0,0,.05-.073.021.021,0,0,0,.02.011.354.354,0,0,0,.135-.083.656.656,0,0,1,.164-.105.513.513,0,0,1,.124-.142c.034-.032.069-.065.1-.1-.013.019-.019.032-.015.04a.014.014,0,0,0,.013.008c.052-.069.065-.072.1-.081a.4.4,0,0,0,.07-.022c.031-.033.043-.053.04-.062s-.013-.006-.024-.007-.023,0-.027-.008,0-.018.011-.034a.159.159,0,0,1,.063-.032.009.009,0,0,1,.007,0s0,.013,0,.022,0,.029.011.031l.053-.085.027-.043.006-.01c.007-.011.012-.019.011-.023a.015.015,0,0,1,0-.016.163.163,0,0,1,.091-.041l.014-.028a.337.337,0,0,1,.14-.165l-.123.139.074-.029.116-.193a.405.405,0,0,1,.2-.109h.01l.063-.1,0,.075a.13.13,0,0,1-.038.04.172.172,0,0,1,.027.051l.007.016.014-.015.434-.529.522-.458.091-.112,0-.085a1.325,1.325,0,0,0-.117.173l-.015.018c-.094.112-.192.228-.278.228l.067-.072-.013,0c-.013,0-.082.005-.157.112a.057.057,0,0,0-.015.05.009.009,0,0,0,.009.006l-.06.041a1.213,1.213,0,0,1,.258-.309l.039-.04c-.007.013-.02.03-.032.047-.024.033-.048.067-.042.079a.009.009,0,0,0,.009,0c.036-.036.068-.073.1-.107l.045-.054.016-.019a.237.237,0,0,0,.023-.029.235.235,0,0,1,.018-.031l.01-.016.033-.053a.362.362,0,0,0-.023.125c.063-.057.07-.083.077-.112a.194.194,0,0,1,.04-.082l.005,0a.155.155,0,0,1,.049-.022c.007,0,.007.01.005.017l.014-.023c.031-.046.064-.093.1-.14.025-.03.046-.054.066-.075a.746.746,0,0,1,.072-.07s-.014.027-.023.05-.014.042-.01.048a.007.007,0,0,0,.006,0l.008,0,.049-.061,0-.006.007-.011c.024-.09.036-.155.048-.225a2.359,2.359,0,0,1,.075-.321c.005-.024.011-.049.017-.073l.01-.035.005-.018.009-.025.027-.05.024-.041c.016-.029.034-.056.049-.078.032-.048.065-.093.1-.137l.007-.009.017-.024c.028-.038.055-.076.081-.112s.03-.044.043-.066l.019-.032a.2.2,0,0,0,.014-.028l.011-.033c0-.013.007-.025.01-.038s-.018.009-.027.019l-.007.009c-.013.016-.019.023-.022.023l-.007,0a.013.013,0,0,1,0-.011.253.253,0,0,1,.013-.036c0,.005.007.009.011.009s.028-.026.041-.049.02-.034.026-.035a.475.475,0,0,1,.076-.2.357.357,0,0,0,.056-.134h0c.014,0,.043-.04.071-.079l.023-.032a.013.013,0,0,0,.009,0c.01,0,.021-.012.03-.023l0-.006c.007-.009.013-.017.017-.017s0,.044-.008.13a1.665,1.665,0,0,1,.045-.176c.013-.038.027-.073.041-.107l.018-.045a.551.551,0,0,0,.054-.293l-.037.055c.022-.044.047-.092.075-.15.009-.02.019-.039.029-.058a.091.091,0,0,1,.006-.013c.009-.021.015-.038.021-.054a.6.6,0,0,1,.107-.188c0,.032-.015.07-.024.107s-.02.077-.025.109a.521.521,0,0,0,.072-.249.941.941,0,0,1,.032-.174c.014.008.006.042,0,.071s-.01.047,0,.055a.007.007,0,0,0,.006,0l.012,0a.986.986,0,0,0,.05-.2c.006-.032.011-.064.019-.1l.014.02.007-.014.006-.013c.034-.106.014-.13,0-.149s-.028-.034.019-.119h0a.019.019,0,0,1-.014-.007s-.008-.008-.012-.008l-.005,0,.014-.029c.022-.046.049-.1.065-.1s.014.03.012.075a.739.739,0,0,0,.009-.248.478.478,0,0,0-.031.063.084.084,0,0,1-.042.052L25.2,17l0-.12a.027.027,0,0,1,0-.012.245.245,0,0,1,.009.1,1.4,1.4,0,0,0,.058-.328c0-.056.005-.111.005-.168s0-.118,0-.178.023-.117.033-.177.026-.121.04-.17a1.706,1.706,0,0,1,.055-.171c.011-.028.023-.056.035-.085l.02-.041a.2.2,0,0,1,.021-.038.032.032,0,0,1-.017.009c-.008,0-.01-.011-.011-.021a.232.232,0,0,1-.007-.025l0-.011a.2.2,0,0,0-.008-.025c0-.062.005-.136.007-.213a3.307,3.307,0,0,1,.017-.336l.022.047c-.006-.112-.016-.212-.025-.308-.006-.057-.011-.111-.015-.164q-.008-.1-.014-.2l0-.093v-.08s0-.01,0-.015,0-.01,0-.015h0l0,0,.007,0a.082.082,0,0,1,.031.028.272.272,0,0,1-.019-.06.64.64,0,0,1-.01-.071c0-.047,0-.095,0-.137,0-.089-.007-.153-.05-.17l.006.068c-.026-.161-.068-.331-.109-.5l-.016-.063c-.014-.057-.029-.115-.043-.172-.034-.131-.069-.266-.09-.4,0-.013.008-.019.012-.019s.014.027.023.071l0,.011c.009.045.017.082.03.082s.01,0,.015-.015a3.721,3.721,0,0,0-.059-.4c-.02-.107-.04-.218-.053-.329l-.014-.066a.113.113,0,0,0,.02.037.045.045,0,0,1,.009.015c-.012-.087-.02-.124-.03-.124s-.008.005-.011.011-.009.013-.014.013-.018-.009-.036-.091h.01a.013.013,0,0,0,.01,0c.008-.009.007-.033,0-.084l-.056-.059a.017.017,0,0,1,.018-.01.041.041,0,0,1,.03.016l.006.008-.006-.008a.589.589,0,0,1-.062-.145l-.02-.066-.01-.033c0-.013-.008-.027-.011-.04l0-.011-.008-.025-.005-.016-.011-.022-.006-.012c-.006-.012-.013-.023-.019-.033a.171.171,0,0,0-.037-.046c0-.007.005-.009.015-.009h.032c.011,0,.023,0,.026-.017A.836.836,0,0,0,24.792,11h0l0,0a.85.85,0,0,0-.054-.226c0-.015-.009-.027-.01-.032-.031-.092-.043-.109-.055-.109h-.007l-.01,0c-.01,0-.028-.006-.065-.06l.056.174-.144-.287.075.106a1.119,1.119,0,0,0-.117-.236,1.777,1.777,0,0,1-.1-.179.434.434,0,0,0,0,.052c0,.01,0,.019,0,.027l-.023-.041-.012-.02-.005-.007-.008-.007-.016-.019-.033-.039c.016-.023-.011-.068-.035-.108s-.031-.051-.026-.06a.009.009,0,0,1,.009,0,.1.1,0,0,1,.032.009,2.122,2.122,0,0,0-.136-.2c-.024-.032-.047-.06-.068-.084l-.074-.087-.019-.034-.015-.025-.03-.05-.02-.034-.04-.069c-.035-.061-.07-.125-.1-.2.007.008.01.009.014.009h.008l.006,0a1.335,1.335,0,0,0-.057-.13.388.388,0,0,0-.051-.086l-.01-.007-.005,0-.009-.007L23.6,8.9l-.067-.05a.154.154,0,0,1,.04.018.08.08,0,0,0,.03.013l.005,0a.589.589,0,0,0-.138-.137.856.856,0,0,1-.151-.136.094.094,0,0,0,.042.019.006.006,0,0,0,.006,0c0-.007-.005-.026-.028-.059a.011.011,0,0,1-.011.007c-.023,0-.069-.041-.083-.053a.169.169,0,0,0,.049.011.019.019,0,0,0,.018-.008c.009-.016-.015-.054-.042-.1s-.066-.1-.056-.118a.016.016,0,0,1,.016-.007l.013,0,.005,0-.006,0a.713.713,0,0,1-.095-.072l-.025-.02a.429.429,0,0,0-.141-.093.011.011,0,0,0-.008,0,.016.016,0,0,0,0,.012L22.942,8.1l-.07-.078-.089-.105-.005,0L22.763,7.9l-.031-.027-.065-.055-.086-.073-.044-.038L22.4,7.6l-.148-.122-.033-.037L22.2,7.415l-.049-.052c.009.006.027.02.045.035l.035.028,0,0,.014.008a.033.033,0,0,0,.011.006s0,0,0-.011a.242.242,0,0,0-.014-.023,3.009,3.009,0,0,0-.219-.254c-.036-.038-.071-.073-.107-.108l-.054-.051-.027-.026-.008-.007-.007,0h0a.184.184,0,0,1-.041-.021l-.024-.014-.084-.049c-.057-.033-.119-.07-.184-.111a.016.016,0,0,1,.017-.01.357.357,0,0,1,.13.068l.112.077a.436.436,0,0,0,.081.049l.009,0a.031.031,0,0,1,.012,0l.013,0,.009,0-.012-.012-.013-.013-.416-.275-.009-.006-.137-.09-.045-.034-.194-.145L20.9,6.273l-.01-.007-.1-.073a.2.2,0,0,0-.015-.039.052.052,0,0,0,0-.017.021.021,0,0,0-.006-.009l-.011-.006-.015-.007a.494.494,0,0,0-.07-.028c-.038-.013-.078-.025-.121-.038l-.038-.011a1.684,1.684,0,0,1-.17-.06c-.025-.011-.052-.024-.085-.042l-.041-.026L20.2,5.894l-.034-.021s0,.008,0,.01-.007,0-.015,0h-.015a.291.291,0,0,1-.041-.021l-.02-.011c-.016-.009-.034-.02-.054-.033-.044-.029-.1-.068-.13-.095.009,0,.012,0,.013,0s-.008-.021-.022-.038l0-.005c-.014-.018-.024-.03-.021-.034l.008,0a1.571,1.571,0,0,1-.135-.083c-.027-.018-.054-.038-.08-.058l-.035-.027-.008-.008-.007,0-.005,0-.015-.005a.468.468,0,0,1-.051-.024c-.02-.011-.033-.023-.036-.033a.017.017,0,0,1,0-.013.056.056,0,0,1-.042.014l-.027,0a.464.464,0,0,1-.052-.012l-.027-.008-.016,0a.159.159,0,0,0-.051-.016.014.014,0,0,0-.011,0,.013.013,0,0,0,0,.01l-.015-.009a.152.152,0,0,0,0,.07v.042l-.005.072c0,.044-.01.1-.019.148.007-.011.011-.012.013-.012s.007.006.009.018,0,.023,0,.04,0,.008,0,.012,0,.009,0,.013,0,.024,0,.036-.006.039-.009.06-.006.042-.009.062,0,.032,0,.046c0-.014,0-.018,0-.019a.323.323,0,0,0-.03.176.7.7,0,0,1-.023.2c-.009.019-.017.021-.023.021h-.008c-.009,0-.016.008-.024.049.005,0,.009.012.012.033a.342.342,0,0,1,0,.034v.009l0,.006,0,0s0,0,0,.012l0,.019.005.027c.007.036.012.068.015.1a.6.6,0,0,1,0,.167.111.111,0,0,0-.022-.064.148.148,0,0,1-.015-.026l.011.052c.011.063.021.119.029.171l.016.112.017.137-.011.092c0,.036-.008.07-.012.1l-.022.175-.046.363-.04.172-.034.161c-.024.118-.042.224-.055.324l-.025-.116c-.013.032-.025.06-.034.088l-.008.024,0,.011c0,.007,0,.014-.005.02s0,.007,0,.011,0,.007,0,.01a.253.253,0,0,0,0,.027A.2.2,0,0,0,18.9,8.7a.42.42,0,0,0,.021.057l.006.013a.367.367,0,0,1,.022.217l-.022.159-.011.08-.005.04,0,.02L18.9,10c-.019.122-.039.245-.059.366s-.036.234-.052.35c-.014.134-.025.245-.034.348v.013c0,.054-.008.108-.012.161s-.008.113-.011.169v.01l0,.02c0,.015,0,.021.006.021l0,0,.005-.008.007-.016,0-.009a.144.144,0,0,0,0-.019l.005-.009a.031.031,0,0,1,.011-.011.189.189,0,0,1,0,.019l0,.021a.116.116,0,0,1-.014.032l0,.008a.293.293,0,0,0-.015.029.163.163,0,0,0-.01.087l.031-.015a2.692,2.692,0,0,0-.119.554l-.015.1c-.02.126-.038.239-.062.34-.013.057-.026.1-.039.144-.007.022-.015.042-.023.062l-.006.014-.006.014-.006.013-.005,0a.02.02,0,0,0-.007.012l-.008.016a2.21,2.21,0,0,1-.016.336c-.007.054-.014.107-.02.162,0,.014,0,.029-.005.043s0,.026,0,.04c0,.031-.006.062-.009.094v.011l-.028.094-.007.03c0,.017-.009.034-.012.051-.014.057-.025.116-.035.18-.011.02-.019.03-.024.03s-.005,0-.006-.012a.236.236,0,0,1,0-.028v-.008a.083.083,0,0,0,0-.03s-.01.01-.027.056l-.034.167-.017.085,0,.009a.253.253,0,0,0-.009.055l0,.007v.018l0-.016,0,.022v-.006a1.364,1.364,0,0,1-.007.3c-.007.058-.016.116-.026.177-.008.046-.016.091-.024.138l-.01.06-.038.117a3.74,3.74,0,0,0-.16.588l-.011.031-.007.021-.012.04,0-.02a.006.006,0,0,0,0,0c-.019,0-.07.072-.092.138,0,0,0,.01.005.01s.017-.014.031-.031l.025-.03-.05.144-.055.158-.037.1,0,.006-.038.1a.054.054,0,0,1,0,.013l-.005.031c0,.021-.009.042-.013.066-.009.047-.02.1-.032.16a.1.1,0,0,0,0-.043c-.008,0-.018.027-.031.062s-.041.109-.061.112c0,.037.012.037.02.038a.012.012,0,0,1,.01,0c.008.009.008.044,0,.114l-.014.06-.009.04-.008.033-.023.054-.018.039-.035.075-.075.149-.038.074c-.036.069-.07.136-.1.2a.2.2,0,0,1,0,.032l0,.014,0,.011v.044c0,.013,0,.024,0,.034,0,.034.01.052.025.056-.013.1-.022.182-.033.279l0,.033-.01.1-.008.07c0,.02-.005.041-.007.063l-.005.045-.029.063-.042.093-.026.057-.049.105-.018,0a.481.481,0,0,1-.1.227.4.4,0,0,0-.071.143.067.067,0,0,1-.007-.031c0-.013,0-.025-.011-.025l-.064.165a.117.117,0,0,0,0-.085.013.013,0,0,0-.011-.006c-.015,0-.037.024-.063.071s-.009.059-.007.062.012-.006.018-.013.015-.017.02-.017.006.012.006.022l-.066.018a.13.13,0,0,0-.015.1.015.015,0,0,0,.013.007c.017,0,.042-.023.07-.066l-.061.124-.04.081-.089.189-.029.1-.061.207c-.034.112-.066.212-.1.305l-.02-.045c0,.012-.006.023-.009.034l0,.009a.262.262,0,0,1-.007.025c0,.014-.007.027-.012.04l-.015.027,0,0-.06.1c-.023.039-.047.076-.069.112a1.019,1.019,0,0,1-.126.166.048.048,0,0,1,0,.018c0,.013,0,.026.009.026a.017.017,0,0,0,.01-.005c-.039.107-.054.108-.069.108s-.024,0-.049.052c.017-.042.024-.068.017-.077-.044.093-.094.185-.143.275l-.075.139a1.194,1.194,0,0,0-.318.371.006.006,0,0,0,.006,0c.016,0,.053-.031.08-.064l-.061.111-.1.047-.062.178-.041-.024a.484.484,0,0,0-.053.131l0,.013c0,.015-.008.03-.012.045a.254.254,0,0,1-.01.028s0,.007,0,.008v.006a.067.067,0,0,1-.008.021,2.2,2.2,0,0,1-.211.344c-.03.04-.064.085-.122.174a.038.038,0,0,1,.012.027.153.153,0,0,1,0,.02.219.219,0,0,1-.01.036c-.005.011-.012.022-.019.034l-.014.025-.024.036-.011.017-.053.072-.031.042c-.056.075-.105.146-.1.186-.025.025-.05.053-.076.081l-.043.049-.006.007c-.011.013-.022.025-.041.053l-.111.1-.07.066-.034.032c-.061.059-.126.125-.212.213-.066.065-.13.135-.193.2l-.021.023c-.086.093-.152.162-.213.225l.022-.036a.42.42,0,0,0-.147.186.515.515,0,0,1-.143.2l.031-.051a1.905,1.905,0,0,0-.188.165c-.029.027-.06.058-.1.1L13,24.79l-.024.027-.013.014-.005.007-.035.053-.046.07-.049.079-.03.048a.1.1,0,0,0-.012.065.024.024,0,0,0-.013,0,.074.074,0,0,0-.059.032.008.008,0,0,0,.006,0,.121.121,0,0,0,.032-.009l.012,0a.14.14,0,0,1,.026-.008l0,.007c-.017,0-.039.014-.039.02a.225.225,0,0,0,.089-.022c.005.01.008.015.09.04l.114.038.118.031c.092.024.169.042.241.059l.122.027.1.022.138-.011h.012l.167-.016c.027,0,.04.009.042.016s-.01.014-.021.022l-.015.011.14-.014.152-.016.6.038.014,0,.018,0,.02,0ZM9.7,24.027h0c-.012.027,0,.035.008.042s.023.017.014.059h.01a.14.14,0,0,0,.007-.08c.01.02.016.029.022.029s.009,0,.016-.011a.127.127,0,0,1,.062-.035c-.006-.027.014-.054.036-.082a.284.284,0,0,0,.033-.049c-.005.018,0,.03.013.037.009-.032.017-.038.03-.038h.029l.023,0c.008-.015.011-.026.008-.033s-.011-.011-.02-.014-.029-.01-.026-.034a.057.057,0,0,1,.027-.01c.012,0,.016.01.02.021a.039.039,0,0,0,.018.025l.017-.114a.069.069,0,0,1,.028-.006.077.077,0,0,1,.027.005l0-.014c.006-.032.012-.064.06-.071l-.055.058.047,0,.035-.1a.192.192,0,0,1,.078-.021.087.087,0,0,1,.043.011l.024-.044.022.052a.028.028,0,0,1-.018.013.322.322,0,0,1,.029.04l.011.017.006-.006.444-.479,0-.011a.279.279,0,0,1-.007-.027l0-.021-.007,0a.334.334,0,0,0-.054.093c-.024.053-.046.1-.092.1l-.02,0,.022-.038a.06.06,0,0,0-.028-.007c-.015,0-.042.006-.052.049a.036.036,0,0,0,.005.03.016.016,0,0,0,.013.008l-.03.016c-.015-.038.031-.107.068-.163l.016-.024a.163.163,0,0,1-.006.028c0,.018-.009.036,0,.046a.017.017,0,0,0,.011.007.773.773,0,0,0,.041-.086.783.783,0,0,1,.037-.079.168.168,0,0,0,.008.064l0,.014c.033-.018.033-.031.032-.048a.079.079,0,0,1,0-.029.074.074,0,0,1,.017-.023c.018,0,.032,0,.038.008a.015.015,0,0,1,0,.012.264.264,0,0,1,.135-.11s-.019.039-.011.055a.014.014,0,0,0,.011.008l.026-.021a.5.5,0,0,0,.053-.1.525.525,0,0,1,.074-.131.244.244,0,0,1,.076-.093.3.3,0,0,1,.085-.049.241.241,0,0,0,.052-.05.144.144,0,0,0,.033-.07.007.007,0,0,0-.006,0,.056.056,0,0,0-.018.006.071.071,0,0,1-.021.008c-.006-.005,0-.015,0-.028a.021.021,0,0,0,.016.01.035.035,0,0,0,.021-.012c.006-.006.011-.011.017-.011a.1.1,0,0,1,.043-.085.071.071,0,0,0,.032-.055.011.011,0,0,0,.008,0,.124.124,0,0,0,.044-.021l.015-.009a.024.024,0,0,0,.018.008.04.04,0,0,0,.015,0l.012,0c.011.008.012.028.01.065a.218.218,0,0,1,.052-.122.145.145,0,0,0,.033-.149l-.026.015.01-.01a.294.294,0,0,0,.024-.024l.031-.024.026-.02,0,0,.021-.019a.143.143,0,0,1,.091-.042.218.218,0,0,1-.023.045.234.234,0,0,0-.022.041c.043-.01.053-.049.064-.091a.191.191,0,0,1,.031-.073c.011.011,0,.024,0,.036s-.009.017-.006.024a.023.023,0,0,0,.016.01.187.187,0,0,0,.045-.075.38.38,0,0,1,.018-.04l.011.017c.023-.012.036-.024.04-.038a.047.047,0,0,0-.009-.036C12,21.852,12,21.844,12,21.837s.015-.013.037-.017a.03.03,0,0,1-.01-.012.026.026,0,0,0-.013-.013l.015,0a.194.194,0,0,1,.05-.011.02.02,0,0,1,.018.007c0,.007,0,.019,0,.036a.158.158,0,0,0,.04-.1.124.124,0,0,0-.034.009.041.041,0,0,1-.017,0,.061.061,0,0,1-.023-.006l.018-.027a.454.454,0,0,0,.037-.059l0-.022a.025.025,0,0,1,.009.028.09.09,0,0,0,.023-.014.135.135,0,0,0,.022-.028.328.328,0,0,0,.032-.064.872.872,0,0,0,.032-.127l0-.015a.412.412,0,0,1,.139-.273l-.008,0h0c-.016,0-.017-.011-.018-.025a.081.081,0,0,0-.005-.028l.006-.012.007-.012.01-.022.008-.017.066-.084a.455.455,0,0,1,.058-.06l.005.029c.02-.04.038-.078.054-.111a.864.864,0,0,1,.133-.224h0l0,0a.048.048,0,0,1,.013.03c.009-.038.045-.06.077-.079s.047-.028.049-.045a.038.038,0,0,0-.012-.03l-.022.021a1.161,1.161,0,0,0,.137-.26,1.78,1.78,0,0,1,.086-.183h0c.01,0,.015,0,.017,0s0,.019-.009.032-.016.03-.01.04.01.008.021.009a.493.493,0,0,0,.064-.092l.027-.051.013-.025.009-.018,0-.02.01-.029q.011-.028.024-.057a.031.031,0,0,0,0,.02.016.016,0,0,1,0,.009c.017-.026.025-.043.021-.049s-.009,0-.017,0h-.006c-.008,0-.012,0-.015-.005s0-.02.007-.04a.038.038,0,0,0,.019.008c.009,0,.018-.008.032-.025l-.027-.041h0a.05.05,0,0,1,.038.021l0,.006,0-.006a.2.2,0,0,1,.01-.113c.012-.043.023-.084.006-.109h0a.055.055,0,0,1,.028.012.081.081,0,0,0,.037.017h.006a.167.167,0,0,0,.021-.129.176.176,0,0,0,.061-.081l.006-.009.008-.011c.018-.019.026-.032.024-.04s-.005-.008-.01-.011-.025-.016-.02-.053l-.058.058.059-.126-.006.059a.211.211,0,0,0,.048-.1.349.349,0,0,1,.032-.085L13.479,19l.026-.081a.037.037,0,0,0,.013,0,.053.053,0,0,0,.037-.021l0,0c.008-.01.015-.018.023-.018s.015.008.024.025a.5.5,0,0,0,.1-.227.8.8,0,0,1,.042-.136.012.012,0,0,0,.007.011.019.019,0,0,1,.007.006.244.244,0,0,0,.043-.184.073.073,0,0,1,.009.024c0,.009,0,.017.012.021a.118.118,0,0,0,.02-.082.182.182,0,0,1,.013-.089c0,.019.009.029.018.029s.014-.006.024-.017c-.021-.005-.024-.032-.02-.055.014.026.027.04.042.04s.03-.016.043-.031.028-.03.042-.03a.036.036,0,0,1,.027.019.187.187,0,0,1,0-.055c0-.049,0-.11-.033-.11a.866.866,0,0,1,.086-.236,1.313,1.313,0,0,0,.088-.217.143.143,0,0,1,0,.025c0,.019,0,.04.008.04s.007,0,.012-.01a.689.689,0,0,0,.045-.095l0-.006a.368.368,0,0,0,.012-.039l0-.011V17.47a.246.246,0,0,0-.045-.082.069.069,0,0,1,.029-.01.01.01,0,0,1,.008,0s0,.013,0,.023,0,.041.031.047c0-.038,0-.133-.026-.161a.023.023,0,0,0-.017-.008h-.008a.542.542,0,0,0,.059-.1s0-.006,0-.007,0,0-.01.009l-.009.011-.006.008s0-.01.01-.022l.044-.078-.066.111-.017.027.028-.051.032-.058.026-.046a.466.466,0,0,1-.026.04c.007-.016.014-.029.019-.041l.015-.03.046-.09a.589.589,0,0,1-.045.079h0c-.006,0-.025.036-.039.064,0,0,0-.006,0-.006s-.007.008-.019.028l-.005.009a.122.122,0,0,1-.015.023v-.008a.536.536,0,0,1-.04.092.015.015,0,0,1,0-.011.194.194,0,0,0,.007-.024.214.214,0,0,0-.016.035l-.007.019a.117.117,0,0,1-.014.03.2.2,0,0,1,.007-.047.115.115,0,0,0,.006-.039c-.008.031-.023.073-.031.1s-.01.022-.014.022,0,0-.007-.014a.079.079,0,0,0,.006-.027c0-.009,0-.017,0-.026a.513.513,0,0,1-.041.082.271.271,0,0,1-.02.025l-.03.032a1.633,1.633,0,0,0-.242.311l-.007-.068c-.088.042-.08.08-.072.119a.1.1,0,0,1-.028.107l-.025.023-.012.011c-.038.043-.075.087-.111.131l-.1.115-.108.133-.052.067-.025.033-.04.056-.08.065-.059.049c-.034.03-.073.067-.11.1,0,.006,0,.01,0,.012a.01.01,0,0,0,.008,0h.017a.023.023,0,0,1,.016.005.073.073,0,0,1-.031,0H13c-.016,0-.028,0-.034.029l.025.015a.567.567,0,0,0-.216.157c-.082.081-.16.157-.245.157h-.014a.476.476,0,0,1-.137.128.527.527,0,0,0-.175.178l-.012,0a.011.011,0,0,1-.009,0s0-.013,0-.021l0-.007c0-.007,0-.014,0-.016a.044.044,0,0,0-.025.011l-.006.008c-.006.008-.011.016-.011.019a.031.031,0,0,1,0,.008l-.008.014-.016.029-.031.055,0-.006,0,.009c-.027.082-.12.144-.2.2l-.005,0a1.6,1.6,0,0,0-.133.094.5.5,0,0,0-.06.055c-.009.01-.017.02-.025.031l-.034.046,0,0c0-.007-.01-.01-.021-.01l-.024,0a.092.092,0,0,0-.05.021.01.01,0,0,0,0,.008s.013,0,.024.005l.02,0a2,2,0,0,1-.283.224l0,0c.006-.01.01-.018.008-.021s0,0-.007,0l-.023,0h-.006a.158.158,0,0,1-.036.006.028.028,0,0,1-.022-.008.026.026,0,0,0,0,.03c.007.01.013.018-.022.056a.691.691,0,0,1-.091.05l-.015.007-.032.014-.023.009h-.008a.135.135,0,0,0-.041.021l-.007,0c-.018.01-.035.021-.052.032a.152.152,0,0,1-.02.054c-.011.022-.021.04-.005.061-.043.04-.075.074-.109.109s-.088.093-.158.155L10.6,20.7a.063.063,0,0,1-.04.058l-.02.011-.017.009a.633.633,0,0,0-.055.037.1.1,0,0,0-.049.03.056.056,0,0,1,.008-.026c.005-.01.009-.019,0-.025a.467.467,0,0,0-.06.042l-.015.012a.056.056,0,0,0,.012-.054.026.026,0,0,0-.026-.015.07.07,0,0,0-.023,0c-.011.016-.015.026-.013.031l-.014-.012a.044.044,0,0,0-.023.048.038.038,0,0,0,.04.025h.014c-.066.03-.13.064-.191.1a2.078,2.078,0,0,1-.231.113v-.036a.688.688,0,0,1-.117.061.29.29,0,0,1-.1.027H9.678a.051.051,0,0,1,0,.011c0,.012,0,.025.009.027-.017.022-.029.03-.037.03s-.009,0-.014-.008a.02.02,0,0,0-.014-.008.022.022,0,0,0-.013.006.051.051,0,0,0,.011-.034l-.155.128c0-.007-.021-.011-.045-.011a.264.264,0,0,0-.163.055c0,.011.019.015.033.015a.061.061,0,0,0,.021,0l-.041.036-.064-.032-.044.08-.023-.041a.13.13,0,0,0-.04.065c-.008.023-.016.045-.037.055a.452.452,0,0,1-.174.039.608.608,0,0,0-.1.009c.017.047-.034.071-.083.094s-.085.04-.082.073a.524.524,0,0,0-.079.018.583.583,0,0,0-.1.041l-.069.015-.018,0-.036.009-.046.013-.064.018a2.243,2.243,0,0,1-.225.058l.014-.013-.019,0a.09.09,0,0,0-.075.048.117.117,0,0,1-.089.058l.021-.02H7.819l-.033,0a.19.19,0,0,0-.031,0l-.016,0a.681.681,0,0,0-.066.04c-.032.022-.055.04-.076.057a1.342,1.342,0,0,0-.123.115.022.022,0,0,0,0-.022.02.02,0,0,0-.018-.009.05.05,0,0,0-.027.009c-.009.014,0,.023.01.031s.01.009.009.013-.01.009-.028.014a.013.013,0,0,0,0-.014.019.019,0,0,0-.017-.008l-.01,0a.081.081,0,0,0,.014.045.1.1,0,0,0-.025,0,.223.223,0,0,0-.053.007.121.121,0,0,0,.057.082c0,.018-.013.027-.027.035l.009.008L7.4,22.4l.048.027.031.016.064.034c.065.033.126.064.181.1l-.021.05a.052.052,0,0,0,.032.011.079.079,0,0,0,.022,0,.082.082,0,0,1,.021,0c.012,0,.026.005.043.043h0a.026.026,0,0,1-.011,0l-.014-.007a.107.107,0,0,0-.044-.014H7.739c.034.046.055.053.074.053l.019,0,.021,0a.109.109,0,0,1,.073.032l-.061.029a.1.1,0,0,0,.064.049H8a.184.184,0,0,1,.038.006c.071.026.069.061.066.1a.129.129,0,0,0,.078.142.034.034,0,0,0,.033-.018.034.034,0,0,1,.033-.018.378.378,0,0,0,.1.095.384.384,0,0,1,.1.094c-.005.027-.011.04-.018.04s-.009-.005-.013-.01-.008-.01-.012-.01-.01.013-.013.042l-.051-.084c0,.018,0,.027,0,.031h0a.049.049,0,0,1-.027-.015L8.3,23.2a.076.076,0,0,0-.04-.021.018.018,0,0,0-.016.01.331.331,0,0,0,.126.1c.024.014.049.028.07.043a.018.018,0,0,1-.012,0,.053.053,0,0,1-.029-.015c-.01-.008-.018-.015-.025-.015s-.012.007-.015.023l.039.019H8.378a.027.027,0,0,1-.022-.012.034.034,0,0,0,0,.02c0,.01.015.016.028.023a.133.133,0,0,1,.033.022.14.14,0,0,0,.044-.054.017.017,0,0,1,0,.009.157.157,0,0,1,.039.014l.009.005h.005l.008,0,.01,0,.023.013.025.014.025.014a.193.193,0,0,0,.093.032c-.012,0-.012.008-.011.014a.034.034,0,0,1,0,.008.173.173,0,0,0,.086.019.317.317,0,0,1,.088.014.047.047,0,0,1-.008.04.037.037,0,0,0-.007.03c0,.012.02.023.049.036a.066.066,0,0,0,.023-.029c.008-.016.016-.03.034-.03a.075.075,0,0,1,.038.015c-.006,0-.019,0-.031,0s-.022,0-.025.008a.02.02,0,0,0,0,.019c.048.015.047.021.046.036A.09.09,0,0,0,9,23.7l.017,0a.057.057,0,0,1,.036.013l0,0a.043.043,0,0,0,.023.01c.01,0,.02-.007.032-.023,0,.041,0,.043.01.062s.01.019.018.037c0-.013.008-.019.025-.019l.032,0a.275.275,0,0,0,.039,0c.019,0,.031-.005.037-.016,0,.026-.027.032-.049.037s-.032.008-.038.02a.052.052,0,0,0,0,.041h.023l.043,0,.044,0a.09.09,0,0,0,.075-.027.23.23,0,0,1,.02.029.183.183,0,0,0,.048.057l-.02,0a.5.5,0,0,1,.132.051l.03.014a.415.415,0,0,0,.076.03.146.146,0,0,0,.03,0h.006ZM5.547,19.76h0c.008,0,.01,0,.01.011a.049.049,0,0,1,0,.011.065.065,0,0,0,.024.043.057.057,0,0,0,.02.008h.011a.088.088,0,0,0,.025-.005.717.717,0,0,0,.151-.067c.021-.024.013-.032,0-.041s-.017-.017,0-.041c.055-.018.1-.035.142-.052l.04-.017L6,19.6l.024-.012.016-.008.022-.01.052-.015.017-.005.059-.017c.049-.012.1-.023.157-.032.032.012.048.022.047.028s-.018.01-.035.014-.029.006-.029.011.005.01.053.025l-.194.023c.051,0,.052.008.052.009s0,.005-.024.012l-.061.018c-.022.007-.041.014-.066.024s-.026.018-.026.025a.01.01,0,0,0,0,.009l.029-.009.054-.011.051-.014c.038-.012.074-.024.109-.038l.079-.03c.049-.019.1-.038.147-.054,0,.018-.034.029-.067.038s-.053.015-.053.025.007.011.022.017l.078-.033-.012.012a.085.085,0,0,1-.056.029.044.044,0,0,0,.028.009.21.21,0,0,0,.07-.02A.509.509,0,0,1,6.62,19.6a.082.082,0,0,0-.033-.065l.015,0a.463.463,0,0,1,.079-.038l.045-.016.013-.006.005,0,.008-.006.013-.009.045-.031.03-.02.059-.04a.694.694,0,0,0,.137-.114s0,.008,0,.01.005,0,.01,0l.011,0a.561.561,0,0,0,.107-.1l.054-.059.013-.013a.437.437,0,0,1,.071-.062l.014-.006.038-.016a.039.039,0,0,1,.04.026.029.029,0,0,0,.03.021.341.341,0,0,0,.114-.037.037.037,0,0,0,0-.039.037.037,0,0,1-.006-.032c.007-.017.036-.034.093-.054-.016.009-.082.05-.078.065s.008.007.019.007h.009a.289.289,0,0,1,.1-.039.04.04,0,0,1,.018,0l.006,0a.148.148,0,0,0,.052.007l.048,0a.22.22,0,0,1,.1-.056c.038-.012.067-.022.063-.066l.017.018a.035.035,0,0,0,.009.009.033.033,0,0,0,.016,0l.071-.026c-.006,0-.01,0-.012-.006s.023-.043.055-.079.082-.09.065-.108a.021.021,0,0,1,.015.011c.006.014-.006.038-.018.061s-.022.043-.016.054.01.008.021.008a.167.167,0,0,0,.04-.006.977.977,0,0,1,.075-.1c.055-.065.112-.132.1-.171l.064-.027.019-.008.012,0,.009,0,.014-.008.029-.016.031-.011.016-.005.011,0L8.63,18.4a.119.119,0,0,0-.033.03,1.86,1.86,0,0,1,.255-.137.814.814,0,0,0,.3-.186.023.023,0,0,0,.011.021.027.027,0,0,0,.013.01h.005l.014-.007.006,0,.038-.027.042-.031.046-.034A.174.174,0,0,1,9.385,18a.007.007,0,0,1,.006,0c0,.005,0,.018-.009.04a.88.88,0,0,0,.164-.2.023.023,0,0,0,.021.012.3.3,0,0,0,.12-.073.522.522,0,0,1,.137-.088.36.36,0,0,1,.107-.131,1.124,1.124,0,0,0,.079-.081c-.01.017-.015.029-.012.037a.015.015,0,0,0,.012.008c.044-.061.056-.063.088-.069a.328.328,0,0,0,.063-.016c.026-.028.036-.046.033-.054s-.012-.007-.022-.008-.022,0-.025-.01,0-.017.008-.031a.133.133,0,0,1,.054-.025.01.01,0,0,1,.008,0s0,.013,0,.021,0,.027.012.03l.016-.028.007-.013V17.3l.006-.016.013-.031.026-.062a.14.14,0,0,1,.08-.032.1.1,0,0,0,.015-.025.248.248,0,0,1,.122-.14l-.108.117.068-.02.1-.168a.353.353,0,0,1,.171-.085.058.058,0,0,1,.026.006.019.019,0,0,1,0-.014l.072-.076,0,.07a.087.087,0,0,1-.054.03.158.158,0,0,1,.031.052l.008.018.013-.013.549-.444.392-.462,0-.078a1.122,1.122,0,0,0-.118.175c-.066.112-.129.217-.207.223l.048-.071h-.008c-.008,0-.076,0-.126.113a.052.052,0,0,0,0,.045.011.011,0,0,0,.009.006s0,.006-.009.01l-.007.005-.028.014v-.009c0-.007.005-.015.009-.024a.3.3,0,0,1,.029-.06c.016-.027.033-.054.05-.078s.055-.079.081-.116l.03-.042a.453.453,0,0,1-.019.045c-.015.032-.031.065-.024.076a.009.009,0,0,0,.008,0,1.57,1.57,0,0,0,.1-.162c.027-.047.055-.1.085-.141a.3.3,0,0,0-.016.1v.016c.058-.048.063-.071.068-.1a.148.148,0,0,1,.033-.072.159.159,0,0,1,.048-.019.008.008,0,0,1,.007,0,.017.017,0,0,1,0,.014,1.023,1.023,0,0,1,.227-.267c0,.006-.039.074-.029.09a.007.007,0,0,0,.007,0h.007l.045-.053c.03-.049.055-.094.078-.141.01-.021.019-.041.029-.061l.01-.02.02-.041.007-.014a.284.284,0,0,0,.013-.028.356.356,0,0,1,.019-.055c.011-.026.021-.051.033-.078a1.408,1.408,0,0,1,.241-.417,1.143,1.143,0,0,0,.164-.261l0,0c-.007,0-.021.012-.033.023s-.027.023-.031.023,0-.011.019-.051c0,.006.007.01.012.01s.024-.016.037-.032l0,0c.012-.014.022-.027.029-.027a.378.378,0,0,1,.09-.169.277.277,0,0,0,.064-.109h0c.015,0,.036-.019.059-.042l.041-.037a.015.015,0,0,0,.012.007.056.056,0,0,0,.028-.014c.011-.008.018-.013.022-.013s0,.038-.021.109a.788.788,0,0,1,.134-.233.462.462,0,0,0,.12-.259l-.044.037.145-.159,0,0,0,.005.011-.012.018-.026a.461.461,0,0,1,.13-.131.881.881,0,0,1-.041.086.883.883,0,0,0-.04.086.39.39,0,0,0,.109-.2.7.7,0,0,1,.059-.141c.012.01,0,.037-.011.061s-.018.038-.012.046a.011.011,0,0,0,.01,0h.007a.72.72,0,0,0,.078-.153c.011-.027.022-.053.035-.08l.009.02c.088-.095.069-.126.057-.146s-.015-.033.044-.087c-.005,0-.008-.005-.012-.01s-.007-.011-.013-.011a.106.106,0,0,1,.017-.021c.028-.03.064-.068.08-.068a.007.007,0,0,1,.006,0c.005.007,0,.028-.008.064a.546.546,0,0,0,.059-.205.355.355,0,0,0-.043.044.07.07,0,0,1-.05.032l.124-.3s0-.009.006-.009a.172.172,0,0,1-.021.081,1.138,1.138,0,0,0,.208-.382l.076-.211.009-.023c.011-.028.021-.056.033-.083l.023-.053.021-.044.021-.062q.012-.035.027-.07a1.109,1.109,0,0,1,.07-.138.033.033,0,0,1-.018.01c-.009-.007-.009-.023-.008-.041a.219.219,0,0,0,0-.051c.017-.046.033-.1.049-.155l.035-.118.018-.061.024-.04.021-.032c.013-.019.025-.037.037-.052v.046l.073-.166,0,0,.061-.138.024-.054.035-.078.052-.108c0-.01.01-.038.018-.065s.015-.05.024-.075h0c.008,0,.023.018.023.041v.009a.068.068,0,0,0,0-.009.545.545,0,0,1,.076-.208c.038-.072.068-.129.033-.164l-.023.055c.022-.066.042-.137.063-.226l.023-.084c.014-.05.027-.1.04-.148.021-.079.04-.158.06-.237l.016-.058.016-.059.03-.1V9.088l0-.018c.007-.008.013-.012.017-.012s0,0,.006.006a.162.162,0,0,1,0,.029V9.1l0,.015,0,.015a.2.2,0,0,0-.007.035.026.026,0,0,0,0,.02.009.009,0,0,0,.007,0,.033.033,0,0,0,.015-.005l.016-.039.014-.033c0-.019.008-.047.013-.068l.011-.075L15.37,8.9c0-.03.007-.055.011-.081a2.793,2.793,0,0,1,.054-.311.086.086,0,0,0,0,.037.035.035,0,0,1,0,.016c.027-.085.026-.1.022-.107l0,0h-.006l-.006,0a.037.037,0,0,1-.014,0c-.008,0-.013-.01-.007-.052,0-.011.013-.035.02-.05.006.007.011.01.016.01s.025-.018.048-.057l-.014-.071.006,0a.035.035,0,0,1,.029.03s0,.007,0,.01a.051.051,0,0,0,0-.01.72.72,0,0,1,.053-.217.526.526,0,0,0,.046-.206h0a.032.032,0,0,1,.022.012l0,0c.008.009.018.019.029.019a.021.021,0,0,0,.011,0,.542.542,0,0,0,.045-.109.97.97,0,0,0,0-.135.7.7,0,0,0,.066-.191c0-.012.006-.024.007-.028.029-.1.021-.1.007-.106s-.028-.008-.03-.079l-.049.151.039-.276,0,.113a.409.409,0,0,0,.018-.072l.005-.038.005-.043,0-.02,0-.015L15.827,7l.011-.063a1.129,1.129,0,0,1,.031-.13l-.047.057.032-.167c.024,0,.041-.033.054-.064l.006-.015c.011-.026.02-.049.031-.049s.014.01.022.032c.016-.039.029-.076.04-.108s.022-.075.026-.093,0-.042,0-.063l-.005-.072c0-.025,0-.05-.008-.075s0-.045-.007-.067a2.662,2.662,0,0,1-.017-.275c0,.013.007.014.011.015a.012.012,0,0,1,.008,0c0-.032,0-.062.005-.088,0-.01,0-.017,0-.024s0-.013,0-.02,0-.018,0-.027,0-.019,0-.028a.619.619,0,0,0,.023-.121c0-.032.006-.063.007-.1a.124.124,0,0,1,.007.038c0,.016,0,.029.01.032a.432.432,0,0,0,.037-.164.637.637,0,0,1,.028-.172c0,.028.005.038.009.041h0c.012,0,.022-.015.036-.044h0a.013.013,0,0,1-.011-.005.137.137,0,0,1,0-.086c.01.034.021.053.034.053s.019-.009.031-.027a.385.385,0,0,0,.024-.044l.01-.02.009-.017.006-.01a.142.142,0,0,1,.014-.017c.005-.01.011-.015.018-.015a.036.036,0,0,1,.023.013l0,0,0,0a.172.172,0,0,1-.02-.047l-.016-.056-.016-.053c-.022-.069-.039-.1-.054-.1a.015.015,0,0,0-.012.008l0-.011c0-.028-.008-.056-.011-.085l0-.045,0-.045a.406.406,0,0,1-.005-.066l-.146-.022c-.114-.016-.209-.026-.3-.031a.38.38,0,0,1,.047-.006c.033,0,.066-.006.067-.012s-.009-.008-.028-.012a2.068,2.068,0,0,0-.444-.042h-.246c-.076,0-.141,0-.2,0a.017.017,0,0,1,0-.014c.008-.009.029-.014.062-.014s.074,0,.118.008h.008c.045,0,.092.01.13.01s.069-.007.074-.022l-.246-.019-.061,0-.067,0-.027,0-.071,0h-.009l-.231.072-.368.116h-.006l-.013,0L14.205,4.5l-.023-.007-.031-.009a.273.273,0,0,0-.056-.006h-.012a.946.946,0,0,0-.134.014l-.023,0a1.306,1.306,0,0,1-.208.022.534.534,0,0,1-.154-.021.013.013,0,0,1,0,.014c-.011.02-.086.031-.213.031h-.03c.006,0,.01-.008.01-.012s-.022-.014-.041-.019-.033-.009-.034-.015,0,0,.007-.007a.985.985,0,0,1-.167.021h-.158l-.007,0-.006,0h-.013a.205.205,0,0,1-.035,0c-.019,0-.031-.011-.031-.023-.007.036-.068.051-.141.065l-.014,0c-.032.006-.064.013-.094.021a.249.249,0,0,0-.048.017.018.018,0,0,0-.009.015l-.018,0a.1.1,0,0,0-.047.013l.005.009a.1.1,0,0,1,.018.059.026.026,0,0,1,.016-.007h.006a.084.084,0,0,1,.012.023c.006.014.012.026.018.041l.018.044c.013.033.026.067.038.091-.009-.012-.012-.014-.013-.014a.129.129,0,0,0,.02.087c.008.016.018.033.029.051l.015.028c.005.009.016.032.023.049l.007.03.005.023c0,.006,0,.012,0,.017l0,.013a.256.256,0,0,1,0,.058c0,.023-.012.024-.019.025s-.018,0-.013.048a.013.013,0,0,1,.009.006.82.82,0,0,1,.078.387.091.091,0,0,0-.024-.056.131.131,0,0,1-.015-.02,2.476,2.476,0,0,1,.062.376l.019.193c0,.037.006.073.009.11s.006.068.009.1l-.018.191-.014.175c-.005.066-.008.121-.01.174l0,.092,0,.092,0,.025v.014l0,.027-.005.054-.032-.1c-.072.169-.051.22-.029.274a.275.275,0,0,1,.011.2l-.039.154c-.063.251-.127.5-.191.756l-.1.163-.1.163-.091.148-.024.04-.059.1-.044.109-.047.12c-.034.089-.063.167-.087.238,0,.01,0,.016,0,.018s.012-.006.018-.014.021-.024.03-.024a.168.168,0,0,1-.034.043A.121.121,0,0,0,11.9,9.7L11.93,9.7l-.005.008a.515.515,0,0,0-.05.089,3.291,3.291,0,0,0-.269.375c-.049.076-.1.154-.162.243-.061.05-.073.06-.1.083s-.053.038-.078.054a.493.493,0,0,1-.144.065,1.3,1.3,0,0,1-.13.126c-.022.019-.044.037-.066.054l-.033.026-.013.01-.014.01-.041.039-.038.036c-.024.023-.056.053-.087.087a1.784,1.784,0,0,0-.179.221.07.07,0,0,1-.029.013c-.008-.007,0-.025,0-.034l0-.01c.005-.011.01-.021.008-.024s-.014.005-.043.032l-.044.059-.023.029-.037.044c-.044.031-.062.045-.084.062l-.01.008-.074.057.011-.011-.014.013a.92.92,0,0,1-.181.129c-.039.022-.081.043-.12.063l-.032.016-.032.016L9.79,11.7l-.014.006H9.77l-.006,0-.018.012-.037.025-.076.05-.149.1c-.046.034-.1.071-.14.109-.023.019-.044.038-.065.058l-.04.038-.042.039-.059.025.025-.013c0-.006-.008-.008-.019-.009H9.1a.3.3,0,0,0-.1.023s0,.007,0,.009.019.006.04.006h.033l-.04.019-.269.112-.079.031-.039.015-.1.037-.034.013-.139.034c.022-.011.033-.018.032-.022s-.008,0-.023,0H8.342l-.056,0c-.033,0-.05,0-.055-.013-.028.017-.024.025-.022.033a.013.013,0,0,1,0,.011c0,.011-.032.024-.088.044s-.109.024-.155.031l-.035.005-.041.006-.037.005-.019,0H7.827l-.061.012-.113.023-.166.034a.459.459,0,0,1-.091.056c-.043.022-.077.04-.072.065l-.137.044L7.14,12.8h-.1l-.067,0-.135,0-.186,0H6.513l-.008-.015a.139.139,0,0,1-.045.015l-.026,0H6.393l-.031,0-.018,0-.036-.009-.055-.016-.015,0a.342.342,0,0,0-.083-.016.07.07,0,0,0-.023,0,.059.059,0,0,1,.024-.017c.011-.006.021-.011.017-.02l-.151,0c.039,0,.072-.02.072-.037s-.026-.03-.075-.038c-.047.008-.053.013-.054.017l-.013-.019H5.935c-.041,0-.069.011-.072.029s.025.036.073.049l-.118-.014-.093-.011-.167-.033-.167-.033L5.235,12.6l-.139-.03L5.04,12.56l-.036,0,.035-.03c-.1,0-.189-.009-.266-.019l-.015,0-.018,0-.022,0L4.7,12.493a.168.168,0,0,1-.033-.02v.005a.073.073,0,0,0,.017.035v.015h0s0,0-.009-.006l-.008-.006a.013.013,0,0,0-.008,0,.013.013,0,0,0,0,.007.229.229,0,0,0-.02-.035l0,.039,0,.016,0,.007,0,.023-.014.2c-.008,0-.02.018-.035.049-.007.015-.015.033-.023.053l0,.011-.008.022a.4.4,0,0,0-.013.042l-.007.021-.006.014-.011.027c-.007.019-.014.038-.02.057a.7.7,0,0,0-.028.114l0,0c.013,0,.04-.038.053-.074l-.017.107-.078.064.005.164-.047-.01a.344.344,0,0,0,0,.1c0,.017,0,.029,0,.041l0,.02L4.4,13.6s0,0,.005.005l0,.021a.181.181,0,0,1,0,.043,1.654,1.654,0,0,1-.1.336c-.016.04-.035.085-.063.172a.042.042,0,0,1,.022.024l.005.019v.006a.08.08,0,0,0,0,.013.058.058,0,0,1,0,.017.219.219,0,0,0,0,.024c0,.022,0,.038,0,.055l-.007.079,0,.04c-.008.075-.011.148.014.175a1.315,1.315,0,0,0-.03.13c0,.024-.007.047-.012.071l0,.036a.082.082,0,0,1,0,.015v.013l0,.015.006.041c0,.029.008.057.013.085.01.057.02.115.031.173l.028.148c.014.077.029.154.044.232,0,.022,0,.044,0,.065s0,.047,0,.069,0,.04,0,.06,0,.043,0,.063l-.009-.036a.312.312,0,0,0,.024.207.4.4,0,0,1,.036.2l-.014-.05c0,.022-.007.046-.009.068s0,.042,0,.063V16.3a.213.213,0,0,0,0,.029v.007c0,.017,0,.03,0,.043,0,.029.007.059.01.09.008.06.019.123.03.184s.025.127.038.181c0,.019.009.038.013.056l.007.028c0,.013.006.027.01.04l0,.01.005.007.005.005a.1.1,0,0,1,.01.018c.008.014.015.026.022.039-.008-.011-.016-.018-.023-.018a.009.009,0,0,0-.007,0c-.006.009-.007.035.012.079.007.009.012.014.018.014s.011-.006.015-.012.008-.011.012-.011.012.007.025.062c-.005-.007-.01-.011-.014-.011a.007.007,0,0,0-.006,0,.053.053,0,0,0,0,.041l.089.111.014.05c.01.037.02.073.03.11s.016.055.023.082l.013.042.006.021.011.034c.01.062.02.126.03.19l.031.177c.012.059.023.118.036.175l.01.042.011.044.01.042,0,.009,0,.008,0,.005.006.01.012.018.012.018c.005.021.006.033,0,.038a.007.007,0,0,1-.006,0,.06.06,0,0,1-.022-.009l-.015-.007c.048.08.1.169.171.272l.086.13.021.031.022.034L5.2,18.9l.031.05.051.158.022.067-.044.04a.157.157,0,0,0,.052.087c.025.023.046.042.046.142a.017.017,0,0,1,0,.006.106.106,0,0,1-.012-.028.444.444,0,0,0-.055-.122.618.618,0,0,0,.029.138.181.181,0,0,0,.018.035.02.02,0,0,0,.012.008l.011,0,.009,0a.234.234,0,0,1,.025.025.517.517,0,0,1,.067.111L5.377,19.6a.323.323,0,0,0,.091.164.025.025,0,0,0,.018.009h.02a.2.2,0,0,0,.03-.008ZM5.582,9.735a.114.114,0,0,1,.043.009l.03.013a.359.359,0,0,1,.065.03h0s0,0,.012,0l.058,0L5.9,9.8h.007c.077,0,.15.009.224.011h.116A3.247,3.247,0,0,0,6.584,9.8c.005,0,.008-.007.008-.009s0-.007-.01-.011a.034.034,0,0,1-.017-.02.059.059,0,0,1,.027.015.045.045,0,0,0,.028.014.043.043,0,0,0,.025-.01l-.01-.027a.323.323,0,0,0,.133.022c.036,0,.075,0,.108-.006l.046,0L7,9.76h.071l.017,0,.005.005s.006.009.023.011a.139.139,0,0,1,.041.017.477.477,0,0,1,.178-.057.528.528,0,0,0,.235-.085c.011,0,.017.005.018.009s-.006.017-.013.025S7.57,9.7,7.572,9.7s0,0,.009,0l.018,0,.076-.041.038-.022.019-.01s0,0,.005-.005l0-.008V9.612l0-.008.016-.014a.407.407,0,0,1,.061-.037c.043-.023.094-.043.142-.062a.662.662,0,0,0,.255-.153.028.028,0,0,0,.026.012A.079.079,0,0,0,8.3,9.328a.014.014,0,0,0,0-.009s-.013,0-.023,0h-.02a1.886,1.886,0,0,1,.255-.224l.021-.016c-.006.01-.009.017-.007.021s0,0,.006,0a.111.111,0,0,0,.025-.006h.005a.166.166,0,0,1,.037-.006.03.03,0,0,1,.022.007.025.025,0,0,0,0-.03C8.6,9.051,8.6,9.043,8.632,9a.8.8,0,0,1,.149-.084l.074-.032.018-.008.007,0,.02,0-.006-.02,0-.013a.033.033,0,0,1,0-.012c0-.02.005-.038-.014-.051.03-.051.052-.093.074-.137s.059-.115.108-.195l.015,0c-.013-.038.021-.068.05-.094s.043-.039.039-.057a.059.059,0,0,1,.011.02c0,.008.006.016.015.018l.025-.074a.063.063,0,0,0,.012.048.026.026,0,0,0,.02.01A.045.045,0,0,0,9.282,8.3c0-.019,0-.029,0-.033l.018,0a.046.046,0,0,0,0-.045.032.032,0,0,0-.028-.016.058.058,0,0,0-.037.016c.042-.059.08-.122.117-.182A2.232,2.232,0,0,1,9.5,7.82l.018.032a.762.762,0,0,1,.061-.1.459.459,0,0,1,.037-.043c0-.006.006-.006.008-.007l.012,0,.006,0,0,0a.087.087,0,0,0-.028-.011l0-.011a.04.04,0,0,1,0-.01.037.037,0,0,1,0-.019c0-.005.011-.005.018-.005h0c.008,0,.011,0,.014,0a.031.031,0,0,0,.006-.019c0,.021.006.032.016.037l.022-.2A.244.244,0,0,0,9.8,7.269l-.007,0a.055.055,0,0,0-.04.031l0-.055.068-.022L9.8,7.132l.046.013a.114.114,0,0,0-.01-.06.021.021,0,0,0-.014-.016L9.811,7.06s-.006,0-.005-.006l0-.009a.066.066,0,0,1,0-.014c0-.01,0-.018.005-.026l.005-.019.006-.022a.309.309,0,0,1,.021-.052l.012-.022A.623.623,0,0,0,9.9,6.8c-.049-.009-.043-.065-.037-.12s.01-.094-.02-.109A1.026,1.026,0,0,0,9.9,6.194a2.357,2.357,0,0,1,.014-.24l.007.018a.087.087,0,0,0-.015-.1.116.116,0,0,1-.028-.1l.013.025a.355.355,0,0,0,.019-.066.136.136,0,0,1,0-.019V5.7a.122.122,0,0,0,0-.018.106.106,0,0,0-.01-.017L9.9,5.656l-.012-.019a.711.711,0,0,0-.05-.074,1.178,1.178,0,0,0-.1-.117l.011,0a.017.017,0,0,0,.015-.009.039.039,0,0,0,0-.038.019.019,0,0,0-.012,0,.03.03,0,0,0-.019.01c-.006.006-.011.011-.014.011s-.01-.009-.014-.029a.014.014,0,0,0,.009,0,.013.013,0,0,0,.011-.007.023.023,0,0,0,0-.021l-.071-.041c-.012-.039-.023-.079-.035-.121,0-.013-.009-.027-.014-.04L9.6,5.141,9.587,5.11c0-.012-.005-.017-.014-.038L9.547,4.99c-.008-.025-.017-.05-.026-.075a1,1,0,0,0-.066-.14c0-.021.01-.023.017-.023l.015,0,.013,0c-.03-.062-.064-.12-.1-.184l-.051-.086-.013-.023,0-.007-.006-.011-.009-.01a.19.19,0,0,1,.021-.024L9.349,4.4a.034.034,0,0,0-.023-.005L9.3,4.4H9.291c-.015,0-.031-.006-.043-.049h0a.02.02,0,0,1,.01.005l.016.011a.092.092,0,0,0,.047.02c-.036-.064-.06-.064-.085-.064a.1.1,0,0,1-.09-.041l.065-.021c-.02-.041-.044-.06-.077-.06a.2.2,0,0,0-.038,0,.217.217,0,0,1-.033,0c-.069-.02-.069-.055-.069-.1a.131.131,0,0,0-.086-.139.034.034,0,0,0-.032.02.033.033,0,0,1-.032.02.344.344,0,0,0-.036-.039.214.214,0,0,0-.026-.028l-.02-.018-.026-.02L8.725,3.9a.373.373,0,0,1-.082-.087c.005-.028.011-.041.018-.041s.009.005.013.01.009.01.012.01.01-.013.013-.041l.05.085c0-.018,0-.028,0-.031h0a.047.047,0,0,1,.027.015l.008.006a.08.08,0,0,0,.041.022.018.018,0,0,0,.016-.009.345.345,0,0,0-.125-.1c-.024-.014-.048-.029-.069-.044a.017.017,0,0,1,.012-.005.049.049,0,0,1,.028.015c.011.009.019.015.026.015s.012-.007.016-.023l-.037-.018.009,0h.01a.028.028,0,0,1,.024.012.033.033,0,0,0,0-.02c0-.01-.015-.017-.028-.024a.13.13,0,0,1-.033-.023.152.152,0,0,0-.045.051.012.012,0,0,1,0-.007.292.292,0,0,1-.131-.095.265.265,0,0,0-.106-.081l0,0c.007,0,.008,0,.01-.009a.035.035,0,0,1,0-.007.063.063,0,0,0-.032-.023.045.045,0,0,0-.023.008.041.041,0,0,0-.01.007.028.028,0,0,1-.021.009l-.021,0a.048.048,0,0,1,0-.041.037.037,0,0,0,0-.03c-.005-.011-.022-.021-.053-.03a.066.066,0,0,0-.02.032c-.007.017-.013.034-.034.034a.086.086,0,0,1-.035-.01h.017c.015,0,.034,0,.038-.011s0-.011,0-.019c-.05-.01-.05-.015-.051-.031a.088.088,0,0,0-.025-.06.071.071,0,0,1-.023,0,.066.066,0,0,1-.033-.01.056.056,0,0,0-.025-.01c-.011,0-.021.008-.033.027,0-.041,0-.043-.016-.061S8,3.234,7.986,3.218a.017.017,0,0,1,0,.013.037.037,0,0,1-.028.007l-.026,0H7.9c-.018,0-.039,0-.045.02,0-.026.024-.034.045-.041s.031-.01.036-.023a.054.054,0,0,0-.006-.042.41.41,0,0,1-.067,0H7.844c-.044,0-.077.006-.095.034,0,0-.006-.007-.005-.009V3.169a.006.006,0,0,0,0-.006c0-.011-.024-.026-.054-.039H7.7a.039.039,0,0,0,.018-.005H7.7A.562.562,0,0,1,7.579,3.1l-.009,0a.519.519,0,0,0-.111-.018.111.111,0,0,0-.067.019.031.031,0,0,0,0-.027c-.008-.022-.046-.035-.08-.046s-.055-.019-.056-.031.007-.015.023-.025a.137.137,0,0,0-.029,0,.278.278,0,0,0-.109.022.03.03,0,0,0-.012-.04.071.071,0,0,0-.015-.008l-.005,0-.005,0-.005,0H7.094l-.009,0a.076.076,0,0,1-.039-.017c-.015.023-.048.026-.083.031a.28.28,0,0,0-.059.011c.017-.009.023-.02.017-.036a.08.08,0,0,1-.032.011c-.01,0-.015-.006-.023-.016a.165.165,0,0,0-.029-.029c-.017,0-.026.01-.03.017s0,.016,0,.024.013.028-.007.042c-.017,0-.026-.01-.029-.017s0-.016,0-.024A.039.039,0,0,0,6.785,2.9l-.095.067a.065.065,0,0,1-.039-.04l-.012.007a.1.1,0,0,1-.054.022.066.066,0,0,1-.041-.016h.079L6.6,2.9l-.1.042c-.054-.022-.083-.048-.091-.083l-.052.013.024-.051h.006a.027.027,0,0,1,.018.007.386.386,0,0,1,.01-.057l0-.014H6.41l-.653-.01-.006.01a.354.354,0,0,0-.022.041h.006a.346.346,0,0,0,.09-.019l.006,0a.325.325,0,0,1,.092-.021.061.061,0,0,1,.061.037l-.042.009a.052.052,0,0,0,.049.042.077.077,0,0,0,.037-.011.037.037,0,0,0,.019-.023.018.018,0,0,0,0-.016l.031.011c-.019.036-.1.049-.17.059l-.025,0A.162.162,0,0,1,5.9,2.858c.016-.008.032-.017.036-.029a.018.018,0,0,0,0-.014.845.845,0,0,0-.087.027.8.8,0,0,1-.087.026A.169.169,0,0,0,5.8,2.821l.008-.012A.089.089,0,0,0,5.784,2.8a.036.036,0,0,0-.027.011.065.065,0,0,1-.036.026L5.713,2.83C5.7,2.818,5.7,2.809,5.7,2.8L5.7,2.8a.231.231,0,0,1-.147.05s.031-.029.028-.048a.014.014,0,0,0-.008-.011L5.539,2.8a.486.486,0,0,0-.082.077.514.514,0,0,1-.112.1.327.327,0,0,1-.206.085.229.229,0,0,0-.154.061c0,.008.014.01.026.011s.019,0,.02.007,0,.007-.02.02c0-.014-.008-.02-.019-.02l-.015,0-.013,0s-.006,0-.007,0a.1.1,0,0,1-.078.054.07.07,0,0,0-.054.03c-.008-.011-.033-.011-.054-.011H4.753A.027.027,0,0,0,4.726,3.2c-.006,0-.011,0-.013-.006s0-.024.028-.059a.22.22,0,0,1-.108.08.146.146,0,0,0-.1.11h.031l-.108.024h0l-.013,0-.018,0-.013,0-.015,0-.039,0a.152.152,0,0,1,.014-.034.226.226,0,0,0,.035-.029l-.015,0a.059.059,0,0,0-.035.012.184.184,0,0,0-.018.057v.007a.175.175,0,0,1-.026.067c-.011-.011-.005-.024,0-.037s.008-.018,0-.024a.022.022,0,0,0-.016-.01.183.183,0,0,0-.042.075.351.351,0,0,1-.017.042l-.011-.016c-.023.013-.036.026-.039.039a.046.046,0,0,0,.01.036c.005.009.01.017.007.024s-.015.013-.037.019a.034.034,0,0,1,.012.012.028.028,0,0,0,.014.012l-.016.005a.177.177,0,0,1-.05.013.019.019,0,0,1-.017-.007c0-.007,0-.019,0-.037a.162.162,0,0,0-.038.105.135.135,0,0,0,.033-.011.042.042,0,0,1,.018-.005.065.065,0,0,1,.021,0l-.086.136a.042.042,0,0,1,.008-.04.31.31,0,0,0-.139.126c-.019.026-.037.053-.054.08a.428.428,0,0,1-.234.212c.01,0,.016,0,.018.007s0,.014,0,.024a.085.085,0,0,0-.006.028c-.021.017-.044.04-.068.063a.626.626,0,0,1-.109.093l0-.03a.4.4,0,0,0-.022.035l-.005.017-.006.015,0,.008-.008.019-.01.026-.032.081a.576.576,0,0,1-.076.132h0s0,0-.006,0A.045.045,0,0,1,3.3,4.678c-.006.04-.041.064-.072.086s-.044.031-.046.048a.038.038,0,0,0,.013.029l.021-.022a.712.712,0,0,0-.059.1c-.009.018-.017.035-.025.054A.182.182,0,0,0,3.117,5l0,.012,0,.022v.094a1.262,1.262,0,0,1-.006.131.033.033,0,0,1-.014,0,.009.009,0,0,1-.007,0c-.005-.006,0-.019,0-.032s0-.032,0-.039a.014.014,0,0,0-.01,0l-.014,0a.651.651,0,0,0-.028.172A.761.761,0,0,1,3,5.531.036.036,0,0,0,3,5.512a.017.017,0,0,1,0-.008c-.013.028-.018.045-.014.051a.008.008,0,0,0,.007,0H3l.013,0a.012.012,0,0,1,.011,0c0,.006,0,.019,0,.04a.053.053,0,0,0-.017,0c-.011,0-.018.009-.031.03L3,5.661,3,5.663a.057.057,0,0,1-.038-.017l0,0a.174.174,0,0,1,.016.118c0,.044-.007.086.013.107h0a.074.074,0,0,1-.028-.007.093.093,0,0,0-.033-.01.021.021,0,0,0-.011,0,.164.164,0,0,0,0,.13.193.193,0,0,0-.047.093.057.057,0,0,1,0,.015c-.01.024-.013.039-.009.046s.007.005.013.007.028.006.036.042l.034-.073-.012.138L2.91,6.2a.179.179,0,0,0-.012.1l0,.052a.135.135,0,0,1,0,.027.077.077,0,0,1,0,.015l.013-.005a.036.036,0,0,0,.019-.011.03.03,0,0,0,0,.014l0,.008a.033.033,0,0,1,0,.007l.006.025c-.027,0-.031.028-.034.048s0,.028-.017.028a.057.057,0,0,1-.027-.012.513.513,0,0,0,.028.24.741.741,0,0,1,.032.147.012.012,0,0,0-.012-.006H2.908a.244.244,0,0,0,.052.182.066.066,0,0,1-.018-.015c-.007-.007-.013-.014-.022-.014a.233.233,0,0,0,.005.045.026.026,0,0,0,.01.012l.008,0a.024.024,0,0,1,.015.01.227.227,0,0,1,.033.059.05.05,0,0,0-.026-.012.011.011,0,0,0-.008,0,.04.04,0,0,0-.006.028l.01,0c.019,0,.036.025.04.032a.115.115,0,0,0-.04-.01c-.031,0-.031.03-.031.057s0,.057-.029.057l-.013,0h0a.223.223,0,0,1,.042.041l.009.01c.022.025.05.053.071.053A.021.021,0,0,0,3.026,7.4a.784.784,0,0,1,.062.175l.01.041.013.052.011.045.005.015.009.008,0,0a.55.55,0,0,0,.04.04.136.136,0,0,1-.023-.01.106.106,0,0,0-.033-.013l0,0s0,.008,0,.015a.724.724,0,0,0,.2.2,1.585,1.585,0,0,1,.125.1.028.028,0,0,1-.02.009c-.022,0-.046-.029-.07-.057s-.051-.06-.074-.06a.029.029,0,0,0-.016.005c.069.076.131.14.193.2l.026.025c.026.025.051.05.079.075l.065.053.052.042c-.019.062.023.092.071.126a.2.2,0,0,1,.106.143.022.022,0,0,1,.02-.012c.021,0,.055.025.093.068-.008,0-.011,0-.013.005s0,.016,0,.026,0,.017,0,.021a.009.009,0,0,1-.008,0c.047.02.142.1.148.147a.034.034,0,0,1-.014.033.041.041,0,0,1,.021-.006c.022,0,.04.022.059.046s.044.055.076.056a.3.3,0,0,0,.082.091.41.41,0,0,1,.091.1c0-.01.005-.015.011-.015a.067.067,0,0,1,.032.019l.034.032.005,0s0,0,0,.007a.017.017,0,0,0,0,.01l0,0h0a.1.1,0,0,1,.023,0l.015,0A.109.109,0,0,1,4.6,9.32a.022.022,0,0,1,0,.025c0,.008-.009.016.009.028,0-.005.011-.008.024-.008a.217.217,0,0,1,.162.083.032.032,0,0,0-.016-.005.042.042,0,0,0-.015,0,.061.061,0,0,1-.016,0,1.173,1.173,0,0,1,.176.079c.029.015.057.031.085.048l.041.025.021.012.032.013.047.016.094.029a1.156,1.156,0,0,0,.194.037l-.06.034a.135.135,0,0,0,.082.041.1.1,0,0,0,.056-.023A.112.112,0,0,1,5.582,9.735Z" transform="translate(0 0)" fill="#bd9b5e"/>
    </g>
  </g>
</svg>
