<svg id="Discord_Icon" data-name="Discord Icon" xmlns="http://www.w3.org/2000/svg" xmlns:xlink="http://www.w3.org/1999/xlink" width="28.571" height="20" viewBox="0 0 28.571 20">
  <defs>
    <clipPath id="clip-path">
      <path id="Clip_2" data-name="Clip 2" d="M0,0H28.571V20H0Z" fill="none"/>
    </clipPath>
  </defs>
  <path id="Clip_2-2" data-name="Clip 2" d="M0,0H28.571V20H0Z" fill="none"/>
  <g id="Discord_Icon-2" data-name="Discord Icon" clip-path="url(#clip-path)">
    <path id="Fill_1" data-name="Fill 1" d="M7.366,20h0a9.705,9.705,0,0,1-5.706-1.838A6.575,6.575,0,0,1,0,16.422,30.241,30.241,0,0,1,1.776,6.59,27.69,27.69,0,0,1,3.551,2.516,11.908,11.908,0,0,1,10.319,0h.074l.266.267A14.152,14.152,0,0,0,4.343,3.313a1.7,1.7,0,0,0,.16-.076,21.637,21.637,0,0,1,9.505-2.215,21.965,21.965,0,0,1,9.942,2.422A15.989,15.989,0,0,0,17.9.4l.361-.363h.033L18.28.05l.034-.013A11.844,11.844,0,0,1,25,2.533a27.872,27.872,0,0,1,1.786,4.078,30.1,30.1,0,0,1,1.786,9.828.012.012,0,0,0-.01,0c-.032,0-.116.089-.255.236a9.846,9.846,0,0,1-7.35,3.188l-.009-.009c-.222-.259-.989-1.167-1.556-1.971A7.907,7.907,0,0,0,23.73,15.1a16.154,16.154,0,0,1-8.91,2.819A23.7,23.7,0,0,1,5.75,15.761a.148.148,0,0,1-.117-.058V15.69l0,0a.146.146,0,0,0-.113-.055H5.4a6.5,6.5,0,0,0-.659-.4,7.943,7.943,0,0,0,4.212,2.78C8.17,18.926,7.4,19.956,7.366,20ZM18.683,8.744v.006h0a2.585,2.585,0,0,0-2.5,2.649,2.5,2.5,0,1,0,5-.013A2.578,2.578,0,0,0,18.683,8.744Zm-8.939,0-.008.006h0a2.58,2.58,0,0,0-2.5,2.65,2.576,2.576,0,0,0,2.5,2.642,2.584,2.584,0,0,0,2.5-2.655A2.574,2.574,0,0,0,9.744,8.744Z" fill="#bd9b5e"/>
  </g>
</svg>
