<svg xmlns="http://www.w3.org/2000/svg" xmlns:xlink="http://www.w3.org/1999/xlink" width="60" height="120" viewBox="0 0 60 120">
  <defs>
    <clipPath id="clip-path">
      <path id="Clip_2" data-name="Clip 2" d="M0,0H60V120H0Z" transform="translate(0.5)" fill="none"/>
    </clipPath>
  </defs>
  <g id="Aru_Logo_Placeholder" data-name="Aru Logo Placeholder" transform="translate(-0.5)">
    <path id="Clip_2-2" data-name="Clip 2" d="M0,0H60V120H0Z" transform="translate(0.5)" fill="none"/>
    <g id="Aru_Logo_Placeholder-2" data-name="Aru Logo Placeholder" clip-path="url(#clip-path)">
      <path id="Fill_1" data-name="Fill 1" d="M30.14,120h0c-3.343-1-5.471-2.4-6.506-4.276-.907-1.643-1.037-3.736-.408-6.588,1.3-5.889,1.271-12.027,1.244-17.962V91.1l0-.849c-.022-5.117-2.525-10.156-7.652-15.405q-1.037-1.062-2.077-2.123l-.02-.021c-2.842-2.9-5.78-5.9-8.6-8.89A21.368,21.368,0,0,1,.285,53.275a18.252,18.252,0,0,1,1.709-11.3c.453-.963.909-1.943,1.351-2.892A159.236,159.236,0,0,1,13.63,19.509c-.1.7-.172,1.426-.239,2.125a19.334,19.334,0,0,1-.825,4.622c-1.844,5.236-3.984,10.393-6.022,15.186C3.584,48.4,5.177,54.956,11.279,60.915c4.02,3.926,8.213,7.727,12.652,11.752,1.988,1.8,4.04,3.663,6.122,5.576,2.109-1.951,4.2-3.852,6.225-5.691,4.585-4.166,8.915-8.1,13-12.2,5.6-5.62,7.1-11.681,4.46-18.015q-.4-.96-.8-1.92l0-.012c-1.609-3.83-3.273-7.79-4.5-11.75a28.053,28.053,0,0,1-1.055-10.591c.963,2.143,1.893,4.337,2.793,6.458a152.842,152.842,0,0,0,6.673,14.322,25.641,25.641,0,0,1,2.786,7.333,18.285,18.285,0,0,1,.062,7,20.074,20.074,0,0,1-2.66,6.712,31.841,31.841,0,0,1-5.381,6.462c-.177.167-.337.348-.492.524a5.284,5.284,0,0,1-.779.766C36.726,77.856,32.5,90.623,36.689,109.037c.656,2.883.55,4.914-.343,6.583-.99,1.85-2.962,3.242-6.206,4.38ZM13.674,108.554h0l-.2-.136-.227-.155L2.6,101.007c5.667-3.225,8.537-6.822,8.775-11,.212-3.724-1.645-7.562-3.441-11.274a39.7,39.7,0,0,1-3.091-7.679,85.386,85.386,0,0,1,6.991,8.464,34.975,34.975,0,0,1,4.706,8.868c2.28,6.72,1.344,13.316-2.861,20.163ZM47.966,108h0a17.287,17.287,0,0,1-5.54-13.458c.225-7.939,5.115-16.477,13.416-23.426a60.474,60.474,0,0,1-3.015,6.791C48.8,86.059,45,93.757,57.67,101.129l-3.967,2.81-.516.366-5.22,3.7ZM29.578,58.26v0c-.281-.643-.538-1.314-.787-1.963A21.142,21.142,0,0,0,26.643,51.8a27.969,27.969,0,0,0-3.682-4.058c-.568-.55-1.155-1.119-1.694-1.682l3.679-5.4.16-.236,5-7.35,6.742,9.991.031.046,1.647,2.441L30.4,57.088l-.087.124-.737,1.046ZM30.32,9.572h0c-2.7-1.426-4.055-2.869-4.129-4.411-.078-1.616,1.257-3.3,4.081-5.161C32.522,1.686,33.61,3.282,33.6,4.877c-.011,1.562-1.083,3.1-3.278,4.695Z" transform="translate(0.5)" fill="#f6f5f1"/>
    </g>
  </g>
</svg>
