<svg xmlns="http://www.w3.org/2000/svg" xmlns:xlink="http://www.w3.org/1999/xlink" width="18" height="17.379" viewBox="0 0 18 17.379">
  <defs>
    <clipPath id="clip-path">
      <path id="Clip_2" data-name="Clip 2" d="M0,0H18V17.379H0Z" transform="translate(0 0.16)" fill="none"/>
    </clipPath>
  </defs>
  <g id="Play_Icon" data-name="Play Icon" transform="translate(0 -0.16)" clip-path="url(#clip-path)">
    <path id="Fill_1" data-name="Fill 1" d="M9,17.379A8.859,8.859,0,0,1,0,8.689,8.859,8.859,0,0,1,9,0a8.859,8.859,0,0,1,9,8.689A8.859,8.859,0,0,1,9,17.379ZM9,2.9A5.906,5.906,0,0,0,3,8.689a5.906,5.906,0,0,0,6,5.793,5.906,5.906,0,0,0,6-5.793A5.906,5.906,0,0,0,9,2.9ZM6.844,12.31V5.069l5.625,3.621-5.623,3.62Z" transform="translate(0 0.16)" fill="#f6f5f1"/>
  </g>
</svg>
