<svg id="Jora_Logo" data-name="Jora Logo" xmlns="http://www.w3.org/2000/svg" xmlns:xlink="http://www.w3.org/1999/xlink" width="25" height="50" viewBox="0 0 25 50">
  <defs>
    <clipPath id="clip-path">
      <path id="Clip_2" data-name="Clip 2" d="M0,0H25V50H0Z" fill="none"/>
    </clipPath>
  </defs>
  <path id="Clip_2-2" data-name="Clip 2" d="M0,0H25V50H0Z" fill="none"/>
  <g id="Jora_Logo-2" data-name="Jora Logo" clip-path="url(#clip-path)">
    <path id="Fill_1" data-name="Fill 1" d="M12.361,50h0L0,42.478V0H9.895L9.885.009l2.616,2.6,2.615-2.6L15.107,0H25V42.478L12.362,50Zm9.795-26.936-2.5,2.526V42.278l2.5-1.581Zm-19.282,0V40.7l2.5,1.581V25.591Zm9.569,14.494h0l1.531.8-.293-1.7,1.239-1.2-1.713-.247-.766-1.544-.766,1.544-1.713.247,1.239,1.2-.293,1.7,1.531-.8Zm-.858-12.395v0l-.464,1.44,1.338,1.331,1.37-1.363-.455-1.41,1.044.825,1.162-1.156L13.714,23l3.74-.039.725-.722-3.211-.828h4.044l.778-.775-3.269-.771h4.044l1.617-1.609-6.9-.057.036.036-.6.6L13.1,20.448l-.6.6-.6-.6-1.617-1.609-.6-.6.036-.037-6.982.058L4.352,19.87H8.437l-3.3.779.77.767H9.99l-1.6.412-1.647.425.715.712,3.785.04L9.358,24.854l1.16,1.154,1.065-.841Zm.915-9.472h0L10.584,17.6,12.5,19.506,14.417,17.6,12.5,15.692ZM5.364,9.537l-.119.132a9.967,9.967,0,0,0-1.458,2.114l-.079.153.1.14c.211.294.47.618.77.961a8.862,8.862,0,0,0-.47,1.514c-.431.106-.825.222-1.174.345l-.165.058-.022.173A10,10,0,0,0,2.669,16.5l0,.28H6.359l-.011-.293c0-.072,0-.145,0-.218a6.16,6.16,0,1,1,12.318,0c0,.08,0,.15,0,.214l-.01.292h3.687l0-.28a9.99,9.99,0,0,0-.084-1.428l-.023-.173-.166-.058c-.345-.12-.741-.233-1.179-.337a8.767,8.767,0,0,0-.271-.966,9.045,9.045,0,0,0-.381-.93c.278-.357.52-.7.719-1.009l.093-.145L20.96,11.3a9.89,9.89,0,0,0-1.577-2.024l-.126-.124-.168.059c-.342.12-.721.277-1.129.466a8.635,8.635,0,0,0-1.292-.887c.024-.451.029-.867.014-1.238l-.007-.174L16.516,7.3a9.847,9.847,0,0,0-2.442-.742L13.9,6.53l-.1.145c-.21.3-.432.647-.658,1.04-.206-.015-.417-.024-.629-.024a8.605,8.605,0,0,0-1.022.061c-.239-.378-.476-.718-.7-1.012l-.11-.14-.174.036a9.888,9.888,0,0,0-1.229.346,9.713,9.713,0,0,0-1.175.5l-.156.078v.174c0,.365.023.783.068,1.24a8.518,8.518,0,0,0-1.32,1.01c-.415-.165-.8-.3-1.152-.4l-.172-.049Z" fill="#bd9b5e"/>
  </g>
</svg>
