<svg id="Group_3" data-name="Group 3" xmlns="http://www.w3.org/2000/svg" xmlns:xlink="http://www.w3.org/1999/xlink" width="46.875" height="50" viewBox="0 0 46.875 50">
  <defs>
    <clipPath id="clip-path">
      <path id="Clip_2" data-name="Clip 2" d="M0,0H46.875V50H0Z" fill="none"/>
    </clipPath>
  </defs>
  <path id="Clip_2-2" data-name="Clip 2" d="M0,0H46.875V50H0Z" fill="none"/>
  <g id="Group_3-2" data-name="Group 3" clip-path="url(#clip-path)">
    <path id="Fill_1" data-name="Fill 1" d="M1.817,50h0l-1.685-.13Q.1,49.477.059,49.084L0,48.557q0-.136,0-.271v-.011q0-.13,0-.26l0-.176,0-.351c.016.1.033.185.05.269.008.043.017.086.025.131,0-.045.008-.088.013-.129s.006-.062.009-.09S.1,47.6.1,47.572s0-.037,0-.055l0-.044q.014-.089.024-.165l.009-.077.006-.052c.007-.067.011-.132.012-.2a1.8,1.8,0,0,0-.022-.284v-.01a2.965,2.965,0,0,1,.011-.818q.027-.228.054-.458l.043-.363.249-.018.5-.036.409-.026c.181-.015.364-.016.541-.017.092,0,.185,0,.277,0h.112c.232,0,.472,0,.7-.019l.827-.041,1.1.046L6.022,44.7l1.113-.246.331-.016.79-.037L8.7,44.24l.217-.079c.042-.021.062-.033.061-.038s0,0-.008,0a.575.575,0,0,0-.075.012l-.019,0a.72.72,0,0,1-.112.016.049.049,0,0,1-.019,0,1.51,1.51,0,0,1,.212-.047l.044-.007a1.1,1.1,0,0,0,.12-.025l.068-.02a.393.393,0,0,0,.054-.02l.007-.006.008,0,.021-.012.029-.019.033-.022-.089-.006c.131-.052.281-.116.459-.2l.222-.105.029-.014.291-.143.011-.005.22-.047.372-.079.344-.077.172-.039.005,0,.021-.012.07-.038.139-.076.115-.063.019-.012a.53.53,0,0,1,.069-.04.38.38,0,0,1-.076-.061l-.005-.005,0,0-.017-.011-.048-.03-.019-.012-.064-.042-.062-.041-.062-.042-.054-.037-.027-.019-.027-.019-.01-.007-.018-.013-.043-.029a.6.6,0,0,1-.072-.072l-.009-.01c-.154-.107-.309-.22-.461-.335l-.216-.165-.233-.184-.769-.943-.175-.157-.049-.043-.255-.222c-.179-.153-.364-.31-.577-.471-.059-.063-.088-.1-.084-.106h0A.436.436,0,0,1,8.5,40l.017.011a.562.562,0,0,0,.093.057c0-.005-.022-.034-.157-.158l-.35-.28-.175-.14-.087-.069-.122-.1-.06-.095-.037-.056-.074-.113L7.4,38.831l.016.022c-.054-.075-.116-.164-.182-.264L7.2,38.531l-.016-.024-.023-.037-.006-.007-.007-.01-.014-.02a.374.374,0,0,1-.051,0l-.276.02-.286.017-.146.008-.073,0-.032,0H6.256l-.713.181-.029.007-.338.086-.649,0H4.263c-.138,0-.244,0-.344,0-.189.006-.392.013-.594.025-.087,0-.173.011-.258.017-.107.008-.208.015-.31.019l.075-.007s0,0,0-.006a1.476,1.476,0,0,0-.5-.055l-.1,0c-.018,0-.027.008-.027.012a.428.428,0,0,0,.154.031l.134.019-.671.022-.536,0H.823l-.736-.012c0-.33-.008-.742-.014-1.294a.447.447,0,0,0,.024.15.791.791,0,0,0,.022-.2v-.026a1.6,1.6,0,0,1,.035-.462c-.02-.105-.034-.12-.044-.12l-.009,0-.009,0c-.007,0-.015-.011-.028-.072-.006-.032-.012-.074-.019-.123,0-.019,0-.04-.008-.063l0-.03c0-.012,0-.023,0-.035S.023,36.5.018,36.437v-.023l.067-.308c.013-.056.026-.113.039-.169l.022-.094.02-.084c.014-.058.028-.116.041-.174l.031-.127.015-.064a.191.191,0,0,1,.009-.029c.005-.1.01-.192.014-.285l.01-.217c.009-.267.018-.529.028-.787l.5.051.45.045c.06-.006.123-.01.188-.011h.032l.063,0h.066l0,0,.011,0,.042-.008.036-.007.043-.008c.054-.011.1-.02.136-.03.09-.023.13-.042.134-.065.11-.012.216-.026.318-.039.142-.018.276-.035.409-.048l.194-.015.476-.036.251-.019.092-.007c.071,0,.144-.006.219-.008l.144,0,.193,0,.049,0H4.38l.035,0a.144.144,0,0,0-.009-.023h.028l-.021-.011L4.4,33.81c-.005,0-.007,0-.009-.008l-.015-.04-.021-.053c-.048-.132-.093-.281-.131-.41a3.79,3.79,0,0,0-.239-.662.306.306,0,0,1,.064.073c.02.028.039.054.049.054s.006,0,.007-.009l-.258-.593c.069.14.141.246.17.246a.01.01,0,0,0,.008,0,.747.747,0,0,0-.08-.33.694.694,0,0,0-.107-.194c-.007.007,0,.036.009.084a.21.21,0,0,1,.009.083h0c-.007,0-.016-.007-.041-.052l.031-.186c-.064-.191-.132-.325-.166-.325a.011.011,0,0,0-.009,0,.725.725,0,0,0,.045.339l-.154-.485-.143-.451-.194-.481,0-.011-.274-.677c-.017-.263-.034-.519-.05-.769l-.031-.477-.106-.547,0-.012-.01-.053.08.12-.035-.155-.039-.173-.057-.27-.021-.1c0-.067-.007-.134-.011-.2l-.009-.163c0-.067-.006-.134-.008-.2,0-.044,0-.085-.005-.125v-.054c0-.085,0-.165-.006-.239,0-.046,0-.089,0-.131,0-.021,0-.04,0-.06a.265.265,0,0,1,0-.045v-.031c0-.018,0-.034,0-.048s0-.048,0-.068a.217.217,0,0,1-.023-.044c-.014-.031-.03-.065-.04-.065s-.01.013-.011.039c-.089-.4-.072-.431-.055-.464a.168.168,0,0,0,.011-.105c0-.036-.01-.084-.021-.145v-.007c.006.028.012.054.017.079a.529.529,0,0,0,.06.189l-.1-.561L2.6,23.713a.016.016,0,0,1,0-.007v-.028a1.166,1.166,0,0,0,.058-.325c.011-.1.022-.212.031-.332,0-.061.009-.124.013-.19,0-.032,0-.066.006-.1l.005-.125.048-.2c.013-.061.027-.122.04-.181.026-.125.049-.241.066-.346,0,0,0,0,0,0a.991.991,0,0,0-.129.345l.076-.454.068-.133c.007-.012.014-.027.022-.041.017-.033.032-.064.042-.067l0-.005a.08.08,0,0,0,.014-.033l-.083-.665.079-.012c0-.067-.006-.135-.013-.206,0-.019,0-.038-.005-.056l0-.035q-.005-.072-.011-.138l.044-.138c.006-.029.013-.057.021-.085L3,20.073l.02-.081a2.108,2.108,0,0,1,.119-.34l.081-.173.019-.041.024-.051.019-.039A.139.139,0,0,1,3.3,19.33l.007-.009v-.005a.271.271,0,0,0,.007-.049c0-.034.007-.067.011-.1s.01-.082.014-.119l.007-.057c.014-.107.026-.2.036-.274.009-.053.016-.1.023-.147l.009-.062a.085.085,0,0,1,0-.022l0-.005.006-.017.006-.019.006-.019a.427.427,0,0,0-.023-.047l-.007-.014c-.006-.007-.011-.016-.017-.024l0-.005L3.358,18.3l-.023-.031-.1-.136-.171-.23h0a.257.257,0,0,1-.135-.076c-.03-.025-.062-.056-.1-.091l-.026-.026-.028-.029-.031-.034L2.707,17.6l-.092-.142-.045-.071-.04-.063c-.056-.093-.114-.188-.173-.283l-.11-.179-.058-.094L2.142,16.7l-.031-.048-.024-.036-.013-.02-.019-.026-.007-.01-.022-.021L2,16.506c-.015-.016-.03-.029-.043-.042l-.011-.01a.486.486,0,0,0-.086-.065c-.1-.135-.191-.259-.284-.38-.049-.064-.1-.131-.153-.2l-.081-.1-.109-.133q-.089-.242-.184-.5L1,14.968.9,14.7l-.134-.349Q.734,14.131.7,13.911V13.9L.65,13.58l-.023-.148c-.031-.2-.062-.406-.1-.61l-.168-.986-.09-.525.041.146a3.378,3.378,0,0,0-.068-.448c-.016-.07-.03-.123-.045-.172C.19,10.816.184,10.8.179,10.78c-.011-.033-.022-.068-.037-.127l0-.072,0-.05-.008-.1c0-.068-.009-.134-.012-.21a4.215,4.215,0,0,1,.021-.554l.009.213.008-.059c.006-.047.012-.093.018-.14s.01-.092.015-.139L.194,9.46l.019-.118V9.335l.025-.152.015-.106Q.267,8.991.28,8.9c.014-.1.027-.2.04-.3l.041-.324C.5,7.855.6,7.51.7,7.135L.812,6.87l0-.008.159-.393.156-.4.061-.158c-.019.059-.027.1-.019.11a.005.005,0,0,0,0,0c.021,0,.086-.1.17-.294.016-.049.02-.078.014-.087a.008.008,0,0,0-.007,0,.07.07,0,0,0-.031.016.079.079,0,0,1-.028.016c-.011-.013.019-.083.109-.259-.018.051-.014.064-.012.068.02,0,.063-.062.1-.141l.053-.18.027-.089.007-.023.013-.037.029-.079c.067-.082.094-.122.121-.161l.033-.048.256-.263.4-.41L2.6,3.812,2.756,3.6l.07-.1.3-.408L3.232,3c.29-.255.5-.438.817-.724L4.594,2l0,0,.011-.005L4.787,1.9l.324-.168.03-.02.272-.182a.482.482,0,0,1,.134-.056s.007,0,.007,0-.019.035-.051.07c-.015.017-.031.033-.04.046l.332-.221.332-.22.282-.1.3-.1L6.931.867l.288-.1.5-.284L7.752.464,7.979.337l.3-.167L8.72.122,8.827.111l.121.077A1.476,1.476,0,0,0,9.293.124L9.4.09,9.43.08l.016,0,.01,0A.4.4,0,0,1,9.52.059l.07,0h.128c.085,0,.187.013.3.027a.087.087,0,0,1,.025,0A1.152,1.152,0,0,1,9.919.09l-.154,0h-.03l-.11,0-.1,0L9.456.113,9.424.118l-.015,0C9.375.128,9.349.135,9.33.14L9.5.133h.025l.085,0,.054,0,.111,0H9.95a1.876,1.876,0,0,0,.235-.023l.074-.012c.04-.007.08-.014.126-.02s.08-.011.132-.014l.119-.007.045,0,0,0,.017,0,.034,0,.088-.009.2-.016L10.758.15A3.977,3.977,0,0,0,11.426.1,1.618,1.618,0,0,0,11.62.055l.044-.014L11.7.03l.074-.019L11.816,0l.075,0,.038,0h.123A3.855,3.855,0,0,1,12.6.113c.067.019.127.039.182.06l.078.032.027.011c.015.007.031.014.064.025l.12.069a4.032,4.032,0,0,0,.9.4l.152.065.1.04.065.027a.379.379,0,0,0,.079.013c.013,0,.021,0,.024-.007s0-.017,0-.027-.009-.019,0-.026S14.4.787,14.41.787a.375.375,0,0,1,.08.013l.2.1.1.047.175.081.047.022.058.017.2.058.175.048.077.021.075.02.177.049.076.022L15.9,1.3l.192.058.112.07.153.1.275.181c.118.126.113.138.112.142h0a.418.418,0,0,1-.131-.068l-.009-.006a.534.534,0,0,0-.113-.064c-.006.008.014.037.134.156l-.581-.4L15.872,1.4,16,1.456l.044.02c.042.032.063.05.062.054h0A.275.275,0,0,1,16.03,1.5l-.237-.066-.206-.057a1.182,1.182,0,0,0-.235-.048c-.015,0-.023,0-.026.007s0,.007,0,.013c.088.032.191.065.306.1l.013,0,.158.046.12.034L16,1.551c.185.107.349.2.522.294.151.083.306.169.48.269l.1.1.1.093-.007,0c-.012,0-.032-.013-.065-.039l-.011-.01-.048-.044-.083-.082-.077-.046-.073-.044a1.118,1.118,0,0,0-.1-.057.11.11,0,0,0-.038-.013s-.005,0-.006,0,.012.03.046.069l.105.056.12.065.1.095c-.02-.014-.036-.025-.053-.035L17,2.216l-.048-.035a1.375,1.375,0,0,1-.194-.106.315.315,0,0,0,.061.067,1.048,1.048,0,0,0,.105.073l.048.048.022.021.022.021.088.082.01.009c.069.064.144.134.218.211a.046.046,0,0,0,.034-.022.166.166,0,0,0-.006-.127c.007.014.018.033.039.065a6.436,6.436,0,0,1,.59.554c.1.106.2.216.308.325l.144.153.051.052.05-.014.021-.006.035-.01.146-.04c.13-.035.243-.071.337-.105-.028.014-.042.022-.041.027s.017.006.033.007a.218.218,0,0,1,.034,0c.06-.014.11-.026.156-.039l.078-.022L19.38,3.4l.013-.005.175-.094.257-.138.021-.011.226-.119L20.136,3l.067-.034.068-.032.089-.04.035-.016.024,0,.094,0a.165.165,0,0,1,.032.006.087.087,0,0,1,.04.021.059.059,0,0,1,.012.02.045.045,0,0,0,.015.023.227.227,0,0,0,.121.019,4.664,4.664,0,0,0,.468-.038.066.066,0,0,0,.038-.03.046.046,0,0,0-.006-.035c-.006-.013-.011-.025,0-.038s.08-.056.461-.086c-.048.007-.176.027-.27.048s-.124.032-.123.042.036.014.106.016a4.053,4.053,0,0,1,.415-.042.272.272,0,0,1,.091.013,1.479,1.479,0,0,0,.419.041c.045-.012.09-.022.139-.031l.115-.017.008,0,.022-.005.045-.01.092-.019c.059-.012.112-.023.158-.034.109-.028.161-.058.178-.106a1.385,1.385,0,0,0,.182.016h.041c.032,0,.068-.005.118-.011l.062-.007.023,0,.052-.006.031,0,.064-.01s.008.006.049.013l.014,0,.041.008.008,0,.038.007c-.024-.01-.026-.016-.025-.019a1.283,1.283,0,0,1,.392-.025,1.6,1.6,0,0,0,.5-.036.009.009,0,0,0,0-.009c.018.011.025.019.023.027-.006.027-.115.04-.221.053s-.194.023-.2.045.064.043.2.074l.117-.006h.007l.142-.007.019-.007.037-.008.078-.018.089-.02.07-.016h.006c.1-.024.2-.047.292-.071a.778.778,0,0,0,.345-.138l.117-.011c.12.03.166.045.21.06l.035.011.06.019.121.038c.143.045.286.083.464.125a1.116,1.116,0,0,0-.181-.014H26.5l.043.006.132.019.062.01.107.017.05,0,.065,0,.13.011.266.023.06.006h.019l.037,0,.07,0c0-.039-.006-.075-.009-.105l0-.026c0-.03,0-.059,0-.089,0-.059-.007-.116-.011-.171a3.106,3.106,0,0,0-.072-.537.023.023,0,0,0,.016.01c.005,0,.011,0,.015-.011a.118.118,0,0,0,.011-.031.3.3,0,0,0,.009-.066c0-.024.009-.052.014-.083l.011-.061c.007-.049.014-.106.022-.166l.011-.111c.009-.091.018-.185.027-.277.014-.163.029-.319.04-.444a3.008,3.008,0,0,1,.044-.34h.007c.014,0,.022,0,.023,0s0,.006-.013.011A1.65,1.65,0,0,1,27.7.518L27.705.44V.434c0-.034,0-.07.007-.109L28.149.23l.057-.014.036-.009.07-.019.073-.02.063-.018.231-.068L28.8.042l.03-.01a.011.011,0,0,0,0,.011c.006.009.027.013.064.013h.03c.025.008.067.018.1.025l.017,0,.1.022c.067.012.152.025.268.041l.309.042L29.814.2l.059.009.034.006.04.007.022,0,.014,0h.023l.054,0h.1A1.768,1.768,0,0,1,30.5.14L30.743.1l.3-.048L31.2.073l.036,0,.072.009.1.012h-.061c-.047,0-.072.005-.075.015s0,.013.016.022a1.265,1.265,0,0,1,.453.079c.074.027.176.063.38.119.075.011.123.016.148.018,0,.147.008.217.02.217s.023-.046.035-.09l.005-.021c.016-.06.028-.1.039-.1s.018,0,.025.177c-.008.11-.016.205-.024.282,0,.023-.005.044-.007.062l0,.024,0,.009c0,.011,0,.018-.006.025s-.011.025-.016.025-.008,0-.013-.014A.171.171,0,0,1,32.3.892C32.291.861,32.282.83,32.272.83s-.01.008-.015.022c0,.04,0,.063.005.085l0,.03.01.1.02.2.039.4A.991.991,0,0,1,32.261,2c0,.035.007.069.011.1a2.6,2.6,0,0,1-.006.793l.014-.673-.065.257.026.4.049.4a4.1,4.1,0,0,1-.07.7l.271.09-.22.006L32.2,4.044c-.018.044-.039.065-.064.065s-.064-.033-.1-.065L32,4.011l0,.075,1.07.418,1.063.512,1.1.441.989.653.728.5.255.068c-.239-.167-.54-.344-.831-.515l-.219-.129a2.848,2.848,0,0,1-.778-.566l.312.186a.33.33,0,0,0-.086-.111,1.3,1.3,0,0,0-.112-.1l-.009-.006-.07-.05c-.029-.02-.056-.038-.107-.07l-.123-.043-.127-.038a.49.49,0,0,0-.131-.023c-.023,0-.037,0-.039.011s0,.014.017.023l-.249-.12a1.113,1.113,0,0,1,.244.051l.088.027.1.03.049.016.053.017.054.019.07.025.219.132.235.141.417.256c-.049-.022-.116-.057-.186-.093a1.373,1.373,0,0,0-.278-.126s-.008,0-.009,0,0,.014.012.027c.146.087.293.171.435.252l.218.125.032.019c.2.116.4.237.6.36a2.081,2.081,0,0,0-.355-.138l-.046-.014a1.483,1.483,0,0,0,.427.27,1.4,1.4,0,0,1,.289.155c.081.08.145.143.14.157s0,0-.007,0a.123.123,0,0,1-.038-.012,8.506,8.506,0,0,1,1.219.86,1.931,1.931,0,0,0-.338-.175s-.007,0-.008,0,0,.015.017.031l.245.18c.246.161.436.275.6.374l.43.3.052.038.193.14c.044.032.09.067.138.1l.042.031.032.024.019.015.07.055.057.066.074.086A17.441,17.441,0,0,1,41.432,10.4a11.4,11.4,0,0,0,.941,1.156h.005a.57.57,0,0,0-.077-.137l-.01-.016a.554.554,0,0,1-.071-.122h0c.007,0,.031.018.158.162l-.015,0a.009.009,0,0,0-.009,0c-.011.021.054.109.116.195a.574.574,0,0,1,.088.136,3.845,3.845,0,0,1,.53.627,3.023,3.023,0,0,0,.33.41h-.007a1.673,1.673,0,0,0,.187.326l.076.12v0h-.006a.008.008,0,0,0-.008,0c-.011.019.028.085.062.142.011.019.022.037.029.051s.013.029.012.03h0c-.008,0-.02-.009-.043-.029-.043-.037-.127-.119-.28-.274.115.117.209.221.306.337.111.217.2.416.288.608.046.1.09.2.136.3.016.035.032.069.049.1s.034.069.049.1c.031.073.062.139.093.2a2.707,2.707,0,0,0,.222.379l-.064-.232.214.649-.012-.04-.072-.234.1.312.03.061.027.054,0,.009.005.01h0c.044.085.08.151.112.21a4.871,4.871,0,0,1,.325.714c-.07-.1-.146-.229-.22-.35s-.147-.242-.214-.34a3.649,3.649,0,0,0,.41.712l.062.153c.079.194.154.378.217.578-.029,0-.071-.121-.109-.226s-.065-.18-.083-.18-.011.012-.014.035c.069.25.154.474.236.69l.031.083.057.117,0,.006h0l.06.123-.049-.036c.136.418.208.522.266.572l.019.015a.213.213,0,0,1,.055.057.4.4,0,0,1,.039.078c.015.035.026.071.048.143l0,.012c0,.022,0,.048,0,.075,0,.011,0,.022,0,.034s0,.025,0,.038c0,0,0,0,.006,0s.014.009.021.017.016.018.022.018.008,0,.011-.014c0,.034,0,.072,0,.114a1.822,1.822,0,0,1-.02.425h0c-.019,0-.042-.079-.075-.254a6.542,6.542,0,0,0,.134.748c.015.043.032.093.048.127l0-.093,0-.041c0-.041,0-.076,0-.106a.49.49,0,0,1,.025-.224l.047.319.232,1a.174.174,0,0,1,.006.045,1.869,1.869,0,0,1-.1-.337c.017.166.033.3.057.448.01.354.037.714.085,1.165.036.228.075.448.116.682.029.164.058.327.086.495.038.439.06.783.073,1.114.011.389,0,.776-.023,1.151.013-.058.02-.064.024-.064s0,0,.007.008a.191.191,0,0,1,.013.049v.008c0,.02.006.041.01.081s0,.067,0,.1v.032a1.156,1.156,0,0,0,0,.117c-.02.148-.038.315-.058.491s-.038.35-.061.529c-.055.369-.109.721-.162.986l-.01-.178c-.014.171-.042.333-.069.49-.013.078-.026.154-.037.229l-.1.589-.011.065-.168.583-.053.176-.1.338c-.016.123-.032.244-.049.363l-.01.067q-.023.151-.046.3c0,.01,0,.013,0,.014l-.006,0a.262.262,0,0,1-.032-.156c-.005.089-.014.169-.025.252l-.023.145-.013.074-.015.08-.038.1-.014.036-.02.049-.029.071-.039.1-.012.029c-.04.1-.078.188-.11.271a.774.774,0,0,0-.085.406l.087-.235-.076.227-.026.077-.076.122-.239.383-.117.194-.178.3-.03.09-.336,1.006-.16.284-.246.436c-.113.2-.239.415-.41.683-.027.025-.044.037-.051.037-.012-.016.051-.118.123-.235l.026-.043a.9.9,0,0,0,.143-.274.006.006,0,0,0-.006,0,.1.1,0,0,0-.044.026c-.207.3-.428.643-.658,1.012q-.119.255-.241.515l-.024.051,0,.007-.234.491-.114.12-.111.116-.107.11-.109.112a.847.847,0,0,0,.092-.121.342.342,0,0,1,.036-.05c-.292.28-.327.329-.322.34s0,0,.006,0A.1.1,0,0,0,42.1,38.5a.145.145,0,0,1,.038-.01.009.009,0,0,1,.008,0s0,.008,0,.015a.378.378,0,0,1-.059.078l-.065.073-.033.035-.053.055,0,.005c0-.009-.006-.015-.01-.016s0-.007-.007-.007l-.007,0c-.019,0-.072.063-.192.215l-.092.251a.034.034,0,0,1-.022.01.018.018,0,0,1-.015-.008.11.11,0,0,1,.007-.088c-.029.064-.068.136-.122.228l-.024.04-.076.123c-.038.059-.077.122-.119.185l-.189.208a6.274,6.274,0,0,0-.578.683l-.019.022a.035.035,0,0,1-.015,0,.01.01,0,0,1-.009,0c-.007-.01,0-.038.007-.058a.088.088,0,0,0,0-.058.019.019,0,0,0-.016-.009.069.069,0,0,0-.034.015,6.481,6.481,0,0,0-.793.752l-.01.011a7.988,7.988,0,0,0-.691.5l0,0-.1.076,0-.006.009-.008c-.362.272-.357.285-.347.309s.019.046-.2.248l.546-.391-.914.754.342-.324c-.083.058-.163.12-.23.173l-.113.093-.128.106-.055.028-.084.043-.122.065-.25.132-.021.011L37,43.186l-.134.067-.13.062a.152.152,0,0,0,.028-.007l.035-.01.07-.021.141-.04-.251.131-.328.234-.016,0a.919.919,0,0,0-.3.137l-.055.033a.892.892,0,0,1-.2.106s-.006,0-.007,0,.016-.041.063-.094l-.031.019-.133.081c-.162.117-.328.241-.481.36l-.164.13-.058.046-.234.188-.125.041-.042.014-.137.045-.119.041-.157.054-.005,0-.526.18-.008.006-.02.012-.047.027-.094.054-.052.029-.141.08c-.116.065-.233.129-.342.188.067-.039.066-.047.064-.056s0-.01.007-.02l-.139.069-.059.029-.08.042-.114.06-.163.05-.02.006-.111.037-.042.014c-.1.034-.189.068-.276.1l-.112.045-.136.054-.118.049-.059.025-.03.012,0,0s0-.006.008-.01l.022-.013.015-.008.039-.019.039-.019c.05-.025.088-.045.086-.058l-.087.026-.068.02-.025.007-.033.01-.008,0-.016.006-.087.044-.043.022-.061.033-.047.026c-.055.031-.1.059-.146.089l-.021.013-.023.014c-.051.031-.109.066-.189.111l-.046.025-.117.063-.062.033-.041.021-.047.024-.106.053c.023-.016.071-.044.085-.055l.012-.01.023-.019c.018-.014.022-.021.022-.025a.009.009,0,0,0-.009-.005.141.141,0,0,0-.032.006l-.041.014-.079.032-.013,0-.108.015s.007.006.006.01a.854.854,0,0,1-.334.122c.13-.063.154-.092.151-.1s-.026-.017-.071-.017a3.356,3.356,0,0,0-.358.038,3.445,3.445,0,0,1-.354.037c-.04,0-.061,0-.064-.015s.013-.026.049-.048a.7.7,0,0,1-.1.035c-.08.015-.2.032-.319.051a2.727,2.727,0,0,0-.713.15c0,.007.01.013.032.018l-.136.014-.087.018-.175.036-.045.009-.235.046-.3.054h-.006l-.279.05-.781.036-.36.017-.305.01-.273.008-.268.01-.33.012-.6-.011c.037,0,.114-.008.2-.013a1.384,1.384,0,0,0,.272-.025.349.349,0,0,0-.124-.019c-.222-.013-.4-.022-.563-.029h-.012c-.117,0-.227-.009-.336-.009-.061,0-.115,0-.167,0l-.3.014-.182.008-.238.013h-.009l-.247.014-.835-.074c-.209-.022-.429-.035-.663-.048h-.006l-.255-.015a.012.012,0,0,1,0-.012c.013-.021.1-.025.164-.025a5.576,5.576,0,0,1,.617.049l.03,0c.279.036.568.074.724.074.069,0,.107-.007.117-.022l-.4-.047-.661-.079-.766-.055h-.014l-.371-.027-.17-.035-1.006-.206-.394-.155-.311-.122-.14-.055-.007,0-.217-.085c-.075-.026-.151-.052-.227-.077l-.153-.051a1.644,1.644,0,0,0-.322-.184l-.1-.041-.025-.01-.066-.026a.64.64,0,0,0-.07-.023l-.031.033-.015.016-.007.008-.022.021-.213.2-.126.117-.1.09-.115.105-.162.14-.229.087-.181.062c-.123.041-.247.077-.371.107.01,0,.016.005.017.01s-.018.029-.062.055-.07.039-.119.062l-.078.037-.032.015-.033.016,0,0-.03.019-.023.015-.038.024-.089.054-.045.027L14.628,47l-.107.064c.019-.019.028-.031.026-.036s0,0-.007,0a.662.662,0,0,0-.148.057l-.008,0a.709.709,0,0,1-.134.053c0-.008,0-.015.016-.027l-.053.038-.042.03-.022.015-.033.023-.03.02-.042.026-.108.058-.138.074-.166.084,0,0-.091.046-.089.043-.178.086-.135.062L13,47.779l-.135.038-.1.027c-.067.016-.125.029-.172.037a.625.625,0,0,1-.1.01c-.025,0-.041,0-.048-.011a.014.014,0,0,1,0-.012,1.5,1.5,0,0,1-.558.229l-.046.014-.061.02a4.672,4.672,0,0,0-.746.291l-.173.052-.014,0-.018.007-.031.014-.062.027-.051.022-.074.032-.256.119-.093.044-.464.221-.324.094-.093.027c-.156.044-.288.078-.414.109h.015c.024,0,.035,0,.036.007s-.014.015-.044.028-.058.023-.116.041l-.1.031-.1.029-.316.039-.153.019c-.092.012-.176.023-.246.034.087-.016.11-.025.109-.028s0,0-.007,0a.555.555,0,0,0-.067,0,2.937,2.937,0,0,0-.538.076l-.012,0a5.683,5.683,0,0,1-.739.142H6.665c-.063,0-.071-.01-.075-.021s-.006-.02-.043-.02a1.144,1.144,0,0,0-.15.016,1.452,1.452,0,0,1-.365.127c-.11.03-.234.061-.357.091l-.08.018-.114.026-.061.013-.167.035H5.062l-.146,0c-.094,0-.175-.008-.241-.016l.013,0a.777.777,0,0,0,.236-.026c.027-.007.055-.014.1-.021l-.207.01c-.273.013-.554.026-.834.026l-.538-.019-.487-.017-.947.145-.015,0L1.817,50Zm23.018-7.632h0l.064.078a.336.336,0,0,0,.179-.077.267.267,0,0,1,.2-.062l.079,0h.012a.255.255,0,0,1-.064.018.972.972,0,0,0-.239.076.657.657,0,0,0,.4-.091.762.762,0,0,1,.349-.113l-.107.119h.025c.029,0,.054,0,.078,0l.02,0,.024,0,.057-.008h.054l.034,0,.059-.009a.456.456,0,0,0,.092-.031c.024-.011.045-.024.067-.036a.689.689,0,0,1,.08-.042.967.967,0,0,1,.193-.023.49.49,0,0,1,.225.052l.027.013a1.032,1.032,0,0,0,.132.056.67.67,0,0,0,.106.027l.017,0,.049.006.03,0,.029,0,.014,0,.075-.015c.039-.009.081-.019.127-.031.023-.015.035-.027.037-.039a.036.036,0,0,0-.01-.027.034.034,0,0,1-.01-.027c0-.011.015-.024.038-.039a3.223,3.223,0,0,0,.459-.076l.034-.008.148-.034.026-.005L28.124,42h.009l.083-.014h.005l.038-.011.092-.024c.062.013.092.025.092.036s-.033.022-.065.031-.055.016-.055.025.012.015.1.029l-.1.022L28.3,42.1a.578.578,0,0,1-.058.011h-.011l-.036,0-.023,0-.086,0c.081.008.1.014.1.019s-.043.019-.114.034c-.089.019-.2.043-.212.074a.017.017,0,0,0,0,.017,1.337,1.337,0,0,0,.191-.026l.106-.024.017,0a.681.681,0,0,0,.081-.023l.017-.009.03-.014.059-.026.118-.055c.066-.031.152-.07.235-.1.009.028-.062.055-.125.079s-.1.039-.1.056.015.017.043.024l.147-.075a.261.261,0,0,0-.023.024.182.182,0,0,1-.1.062.082.082,0,0,0,.041.01.386.386,0,0,0,.146-.051,1.119,1.119,0,0,1,.143-.061.122.122,0,0,0-.074-.1.241.241,0,0,0,.035,0,1.222,1.222,0,0,1,.231-.118c.04-.017.083-.034.133-.051l.157-.053L29.5,41.7l.048-.009.069-.014.083-.016a1.24,1.24,0,0,0,.251-.077c-.011.008-.018.014-.017.019s.008.008.016.012a.071.071,0,0,1,.016.008,1.131,1.131,0,0,0,.274-.086l.059-.024.089-.037.079-.029.012,0,0-.006,0-.007a.017.017,0,0,1,.007.005.093.093,0,0,0,.026.021.123.123,0,0,1,.014.016.075.075,0,0,0,.018.018.043.043,0,0,0,.023.006.564.564,0,0,0,.223-.114.056.056,0,0,0-.016-.063.057.057,0,0,1-.019-.047c.006-.033.058-.076.163-.137-.017.013-.142.117-.132.143,0,0,.006.006.014.006a.148.148,0,0,0,.039-.008c.126-.095.157-.11.183-.11l.02,0a.221.221,0,0,0,.033,0,.559.559,0,0,0,.166-.036.441.441,0,0,1,.145-.122l.047-.026.022-.012.016-.011.021-.014a.463.463,0,0,0,.038-.031.111.111,0,0,0,.059-.08.331.331,0,0,0,.12.03l.055,0c.031,0,.074-.006.139-.008-.012,0-.017-.009-.017-.014,0-.023.073-.062.152-.1s.179-.093.191-.129a.021.021,0,0,0,0-.016.033.033,0,0,1,.02.025c0,.026-.036.06-.073.092s-.072.062-.064.083.041.027.106.028a2.044,2.044,0,0,1,.2-.119l.035-.02.037-.021c.063-.036.126-.072.13-.093a.009.009,0,0,0,0-.008.072.072,0,0,0-.007-.039A.156.156,0,0,1,32.6,40.5c.044-.022.083-.038.121-.054a1.469,1.469,0,0,0,.26-.134.249.249,0,0,0-.05.064,3.492,3.492,0,0,1,.275-.235l.11-.083.221-.168.1-.045.026-.013.038-.019c.048-.025.085-.046.116-.065a.632.632,0,0,0,.166-.133.03.03,0,0,0,.006.024.048.048,0,0,0,.036.011,1.066,1.066,0,0,0,.29-.09l.032-.013a1.021,1.021,0,0,1,.226-.077c.009,0,.014,0,.016.007s-.009.031-.04.065l.055-.027a.1.1,0,0,0,.022-.015l.006-.005.014-.022.039-.043c.024-.027.047-.056.069-.085a.925.925,0,0,0,.085-.12.035.035,0,0,0,.032.018A.6.6,0,0,0,35.1,39.1a1.109,1.109,0,0,1,.271-.176.85.85,0,0,1,.2-.235,2.279,2.279,0,0,0,.173-.174c-.029.037-.041.064-.035.078a.023.023,0,0,0,.021.012c.087-.114.109-.12.169-.134a.679.679,0,0,0,.118-.038c.052-.056.072-.088.066-.1s-.021-.011-.039-.011-.038,0-.045-.013,0-.029.018-.057a.265.265,0,0,1,.1-.053.015.015,0,0,1,.012,0c.006.007,0,.022,0,.037s0,.048.019.051l.089-.142.044-.071.009-.014c.013-.019.026-.039.019-.043a.025.025,0,0,1,0-.023.269.269,0,0,1,.151-.07l.022-.044a.555.555,0,0,1,.235-.278l-.206.231.122-.048.193-.321a.683.683,0,0,1,.328-.182h.016l.106-.164.007.126a.269.269,0,0,1-.063.067.29.29,0,0,1,.041.078c0,.012.01.023.015.035l.023-.025.724-.883.87-.765.151-.184,0-.143a2.043,2.043,0,0,0-.2.288l-.02.024c-.159.19-.324.386-.469.386l.112-.121a.064.064,0,0,0-.022,0c-.031,0-.141.013-.262.187a.1.1,0,0,0-.024.083.015.015,0,0,0,.014.009H38.2l-.107.069a1.947,1.947,0,0,1,.418-.5l.078-.079a.937.937,0,0,1-.053.079c-.04.056-.081.112-.071.132a.016.016,0,0,0,.016.007h.005c.052-.055.1-.111.157-.178l.076-.09.024-.029a.545.545,0,0,0,.041-.052.4.4,0,0,1,.031-.057l.014-.023.057-.089a.565.565,0,0,0-.039.209c.105-.1.116-.138.128-.187a.32.32,0,0,1,.066-.138.294.294,0,0,1,.091-.041.011.011,0,0,1,.009,0s0,.012,0,.024a2.878,2.878,0,0,1,.192-.273c.036-.045.072-.086.11-.125a1.3,1.3,0,0,1,.121-.117c-.007.015-.025.049-.039.084s-.023.071-.016.081a.011.011,0,0,0,.01,0l.014,0,.083-.1.013-.022,0-.006a3.715,3.715,0,0,0,.081-.378,3.9,3.9,0,0,1,.124-.532c.006-.035.015-.072.028-.122l.016-.058.01-.03.014-.042.045-.083.04-.068c.027-.045.055-.088.083-.131.056-.085.115-.164.171-.241l.028-.038c.049-.066.095-.128.138-.191.024-.035.049-.072.072-.11.011-.018.022-.036.032-.054s.021-.038.024-.047l0-.011c.005-.015.01-.029.014-.044a.532.532,0,0,0,.017-.062.006.006,0,0,0-.005,0c-.008,0-.022.014-.04.036l-.015.018c-.017.021-.029.035-.034.035h-.006s-.006,0-.006-.007a.02.02,0,0,1,0-.016c0-.015.011-.035.021-.06.005.009.011.014.019.014s.046-.043.068-.081.033-.058.044-.058a.79.79,0,0,1,.126-.341.584.584,0,0,0,.093-.227l0,.005h0c.021,0,.073-.073.119-.137L41,31.747a.022.022,0,0,0,.016.008c.017,0,.035-.02.049-.038l.007-.009c.012-.015.022-.028.029-.028s.009.071-.013.216a2.39,2.39,0,0,1,.075-.294c.024-.072.051-.139.077-.2l.02-.05a.926.926,0,0,0,.089-.49l-.06.092.067-.133.067-.133-.008.015c.015-.031.032-.064.048-.1l.011-.022c.015-.036.027-.066.037-.094a1,1,0,0,1,.177-.31c-.008.053-.025.118-.04.18s-.033.127-.041.18a.867.867,0,0,0,.12-.415,1.567,1.567,0,0,1,.054-.29c.023.014.011.07,0,.119s-.017.077-.007.09a.012.012,0,0,0,.01,0,.045.045,0,0,0,.02-.007,1.609,1.609,0,0,0,.083-.326c.009-.052.019-.106.031-.16l.023.032.013-.025.01-.019c.057-.177.024-.217,0-.249s-.047-.057.032-.2h0a.033.033,0,0,1-.024-.013c-.006-.006-.013-.013-.02-.013a.016.016,0,0,0-.01,0l.024-.05c.036-.077.082-.172.108-.172a.01.01,0,0,1,.008,0,.226.226,0,0,1,.012.122,1.19,1.19,0,0,0,.014-.412.792.792,0,0,0-.052.1.143.143,0,0,1-.07.088l.055-.4.005-.2c0-.013,0-.02,0-.02a.429.429,0,0,1,.014.161,2.29,2.29,0,0,0,.1-.546c.006-.083.009-.175.01-.281q0-.074,0-.148v-.007q0-.071,0-.142l.021-.113c.011-.06.023-.121.034-.182.021-.1.042-.2.066-.284s.054-.185.091-.284c.018-.046.037-.093.059-.141l.033-.07a.479.479,0,0,1,.033-.062.052.052,0,0,1-.028.015c-.012,0-.016-.014-.018-.035l0-.014c0-.008,0-.016-.008-.027a.378.378,0,0,0-.019-.061c.007-.106.01-.233.012-.366a5.439,5.439,0,0,1,.028-.55l.035.079c-.01-.19-.027-.359-.042-.521-.009-.092-.018-.181-.024-.265-.012-.134-.019-.236-.023-.329l-.005-.155v-.133l0-.023c0-.01,0-.019,0-.028s0,0,0-.006h.006a.036.036,0,0,1,.016,0,.153.153,0,0,1,.049.047.542.542,0,0,1-.031-.1,1.028,1.028,0,0,1-.017-.118c-.005-.068-.006-.135-.007-.2v-.029c0-.153-.01-.256-.083-.284l.011.114c-.042-.261-.107-.525-.175-.8l-.032-.13c-.022-.09-.045-.181-.069-.271-.058-.223-.117-.453-.153-.677.007-.021.014-.031.021-.031s.027.058.038.12l0,.016c.013.069.028.137.051.137s.017-.008.026-.025a6.4,6.4,0,0,0-.1-.664c-.033-.182-.068-.37-.089-.558l-.01-.048-.013-.062a.2.2,0,0,0,.033.063.085.085,0,0,1,.015.025c-.025-.183-.04-.208-.051-.208s-.012.008-.019.017-.015.022-.023.022-.037-.048-.059-.152l.018,0a.02.02,0,0,0,.016-.006c.013-.014.012-.055,0-.141l-.093-.1a.03.03,0,0,1,.03-.017.067.067,0,0,1,.049.024l.011.014-.011-.014a.915.915,0,0,1-.1-.24c-.016-.055-.033-.112-.05-.167,0-.015-.008-.031-.013-.046l-.011-.038c-.008-.026-.018-.058-.022-.069l-.01-.02-.018-.036q-.016-.031-.032-.057a.307.307,0,0,0-.061-.077c0-.011.009-.015.024-.015l.023,0,.034,0c.015,0,.036,0,.04-.029a1.38,1.38,0,0,0-.215-.446l0-.005a1.57,1.57,0,0,0-.093-.377c-.01-.029-.018-.052-.018-.058l.006.007c-.057-.156-.078-.185-.1-.185l-.012,0-.015,0c-.017,0-.046-.01-.108-.1l.093.291-.24-.48.125.177a1.88,1.88,0,0,0-.2-.4,3.05,3.05,0,0,1-.162-.3.642.642,0,0,0,0,.083c0,.017,0,.034,0,.05l-.04-.069-.019-.033-.009-.013-.013-.011-.028-.032-.056-.064c.027-.038-.02-.118-.059-.181-.027-.045-.051-.084-.042-.1a.015.015,0,0,1,.015-.006.16.16,0,0,1,.053.015,3.333,3.333,0,0,0-.225-.326c-.04-.052-.08-.1-.114-.14l-.124-.144-.031-.058-.025-.042-.05-.085-.057-.1-.042-.073c-.069-.12-.124-.224-.174-.329.008.01.014.016.021.016h.014l.01,0a2.267,2.267,0,0,0-.094-.217.865.865,0,0,0-.086-.144l-.018-.011-.008-.005-.014-.012-.032-.025-.026-.02-.056-.042-.056-.042a.275.275,0,0,1,.065.03.14.14,0,0,0,.053.023l.009,0a.969.969,0,0,0-.231-.229,1.415,1.415,0,0,1-.252-.227.163.163,0,0,0,.07.032.01.01,0,0,0,.01,0c.006-.011-.01-.045-.047-.1a.018.018,0,0,1-.018.011.309.309,0,0,1-.136-.088.269.269,0,0,0,.082.019.031.031,0,0,0,.03-.013c.015-.027-.026-.093-.069-.159l0,0c-.052-.08-.106-.163-.09-.193a.026.026,0,0,1,.026-.011l.023,0,.009,0-.009,0a1.163,1.163,0,0,1-.151-.113l-.049-.04a.717.717,0,0,0-.236-.155.018.018,0,0,0-.014.005.028.028,0,0,0,0,.021c-.046-.047-.1-.111-.17-.187l-.126-.148L38,13.212l-.009-.007-.023-.019-.054-.045-.107-.091-.03-.026-.186-.16-.222-.189-.1-.079-.151-.123-.054-.061-.041-.043-.083-.085a.806.806,0,0,1,.073.054l.062.048a.281.281,0,0,0,.029.02l.006,0a.039.039,0,0,0,.013.006s0-.008,0-.019a.274.274,0,0,0-.024-.039,5.121,5.121,0,0,0-.365-.424c-.066-.069-.129-.132-.177-.179l-.09-.086-.046-.043c-.009-.009-.013-.012-.015-.013l-.009-.005h0a.3.3,0,0,1-.068-.034l-.039-.022-.14-.081c-.1-.061-.2-.121-.306-.185a.027.027,0,0,1,.028-.017.593.593,0,0,1,.216.113l.093.065.093.065.007,0a.638.638,0,0,0,.129.076l.015,0a.06.06,0,0,1,.019.006.056.056,0,0,0,.022.005.03.03,0,0,0,.015,0l-.02-.021-.02-.021L36,11.273l-.5-.331-.142-.106-.257-.192-.183-.135-.24-.177a.4.4,0,0,0-.025-.065.1.1,0,0,0,0-.029.054.054,0,0,0-.011-.014s0,0-.018-.011L34.6,10.2a1.152,1.152,0,0,0-.116-.047c-.055-.019-.113-.036-.174-.054l-.092-.028a2.549,2.549,0,0,1-.285-.1,1.348,1.348,0,0,1-.139-.071c-.022-.013-.045-.026-.068-.042l-.034-.024L33.632,9.8a.018.018,0,0,1,0,.017c0,.005-.012.008-.026.008l-.023,0a.642.642,0,0,1-.087-.047l-.014-.009c-.027-.014-.057-.033-.089-.054-.073-.047-.156-.111-.221-.161h.012c.008,0,.013,0,.015-.006s-.015-.038-.036-.064l-.007-.009c-.021-.025-.04-.049-.036-.058s0,0,.007,0l.012,0a1.939,1.939,0,0,1-.232-.139c-.044-.031-.089-.063-.133-.1l-.059-.045-.007-.006L32.7,9.12l-.006,0-.006,0a.016.016,0,0,0-.008,0l-.025-.01a.713.713,0,0,1-.086-.04c-.05-.028-.069-.054-.057-.076a.094.094,0,0,1-.07.023A.305.305,0,0,1,32.4,9a.806.806,0,0,1-.086-.019l-.048-.014-.022-.007-.008,0a.23.23,0,0,0-.077-.024.023.023,0,0,0-.018.006.021.021,0,0,0,0,.017l-.007,0-.019-.011a.257.257,0,0,0-.008.117v.015l0,.055,0,.06,0,.06c-.008.091-.019.172-.032.247.008-.012.016-.019.022-.019s.012.01.014.03a.456.456,0,0,1,0,.066c0,.014,0,.028,0,.043s0,.04,0,.06c-.009.058-.018.123-.026.182l0,.019c-.005.034-.009.069-.011.1a.142.142,0,0,0-.005-.052.534.534,0,0,0-.05.292,1.172,1.172,0,0,1-.038.337c-.015.032-.027.036-.037.036h-.014c-.015,0-.026.013-.04.082.008,0,.015.019.02.054,0,.016,0,.036,0,.058V10.8l.007.012.005.005s0,0,.006.019.007.035.01.053l0,.024c.01.051.018.106.024.162a1.084,1.084,0,0,1,0,.279.2.2,0,0,0-.037-.108.271.271,0,0,1-.025-.042c.022.108.045.238.065.372l.028.188.029.228-.038.328q-.01.077-.019.153l0,.013-.016.126-.05.4-.025.2L31.8,13.5l-.058.269c-.038.2-.069.373-.092.539l-.041-.193c-.023.054-.043.1-.058.147q-.011.032-.019.059l0,.005a.236.236,0,0,0-.007.027c0,.012,0,.023,0,.034a.367.367,0,0,0,0,.045.41.41,0,0,0,.012.074.605.605,0,0,0,.035.093l.01.023a.616.616,0,0,1,.038.363c-.011.079-.022.159-.032.238l0,.028-.018.133-.01.067,0,.033,0,.008c-.008.394-.015.79-.023,1.186q-.026.163-.052.326l0,.02-.043.265c-.029.185-.059.383-.086.584-.02.18-.039.37-.058.581l-.022.289c-.006.1-.013.2-.018.3l-.005.033c0,.023.005.034.01.034l0,0a.092.092,0,0,0,.011-.018.313.313,0,0,0,.017-.042l.008-.03A.118.118,0,0,1,31.294,19a.036.036,0,0,1,.019-.018l0,.019c0,.012-.007.025-.011.047a.178.178,0,0,1-.023.052l-.008.013c-.009.015-.018.031-.026.049a.287.287,0,0,0-.016.146l.051-.027a4.661,4.661,0,0,0-.2.935l-.023.151c-.033.211-.064.4-.1.567-.021.093-.043.172-.066.24-.014.04-.026.073-.039.1l-.007.015-.014.032-.011.022a.013.013,0,0,1-.006.005.033.033,0,0,0-.015.021l-.013.027a3.635,3.635,0,0,1-.028.561c-.011.089-.022.178-.033.269,0,.024-.005.048-.008.073s0,.044-.007.067q-.008.085-.016.176c-.025.081-.034.112-.047.157l-.022.086-.012.048c-.024.1-.043.2-.058.3-.018.034-.031.05-.04.05s-.013-.038-.012-.066V23.11a.135.135,0,0,0,0-.051c-.007,0-.017.016-.045.093l-.057.28-.028.14v.005a.587.587,0,0,0-.017.1l0,.013v.01l0-.008,0,.036v-.008a2.227,2.227,0,0,1-.012.5c-.009.083-.023.174-.043.3l-.022.126c-.012.067-.024.136-.036.2l-.063.193a6.307,6.307,0,0,0-.266.983l-.019.051-.012.035-.02.066.007-.033a.01.01,0,0,0-.008,0c-.033,0-.117.119-.154.231,0,.011,0,.016.008.016s.03-.024.052-.051.027-.033.042-.049c-.07.2-.124.358-.17.492l0,.012c-.046.126-.085.232-.129.347v0a.046.046,0,0,1,0,.016c0,.016-.006.033-.01.05-.006.035-.013.071-.022.111-.012.061-.026.128-.041.2l-.013.064c0-.055,0-.068-.006-.071s-.03.045-.051.1c-.031.082-.069.183-.1.187,0,.062.019.063.033.064a.021.021,0,0,1,.017.006c.013.015.013.072,0,.19l-.022.1-.029.121-.039.091-.03.066-.026.055-.035.072,0,.005-.12.241-.066.129c-.059.115-.115.224-.166.331,0,.02,0,.037,0,.054l0,.023.006.02a.19.19,0,0,1,0,.025c0,.007,0,.013,0,.019v.021c0,.023,0,.045,0,.064,0,.058.017.086.041.094-.024.184-.041.336-.054.464l0,.044c-.007.059-.013.118-.019.179,0,.033-.007.068-.011.1l0,.014c-.007.059-.014.118-.022.181l-.023.051-.095.211-.005.011c-.036.078-.075.164-.12.258l-.03,0a.8.8,0,0,1-.166.378.657.657,0,0,0-.119.238.114.114,0,0,1-.012-.05c0-.023,0-.043-.019-.043l-.106.276a.2.2,0,0,0,0-.143A.021.021,0,0,0,28,31.755c-.018,0-.051.021-.1.119-.014.062-.018.1-.012.1s.021-.011.032-.023.025-.028.033-.028.01.019.009.036l-.11.031a.216.216,0,0,0-.025.166.024.024,0,0,0,.021.012c.029,0,.07-.039.116-.11l-.1.207-.067.136-.129.275,0,0-.017.036-.027.092c-.043.145-.084.284-.123.421-.061.2-.113.361-.164.508l-.034-.075c0,.019-.009.037-.014.056l0,.015c0,.014-.008.029-.012.043l-.01.033-.01.034-.032.057-.1.169c-.042.072-.08.132-.115.185a1.767,1.767,0,0,1-.21.276.078.078,0,0,1,0,.029c0,.02,0,.044.015.044a.029.029,0,0,0,.017-.009c-.066.179-.09.18-.115.181s-.04,0-.082.087c.028-.069.039-.114.03-.131-.072.15-.153.3-.231.442-.045.083-.09.165-.134.248a1.962,1.962,0,0,0-.529.62.01.01,0,0,0,.01.005.3.3,0,0,0,.133-.108l-.1.184-.171.078-.1.3-.068-.041a.84.84,0,0,0-.089.221l-.008.031c-.006.023-.012.044-.018.065s-.007.023-.011.035l0,.012c0,.009,0,.012,0,.014h0v.005a.01.01,0,0,1,0,.007s-.008.02-.013.03a3.718,3.718,0,0,1-.353.576c-.05.066-.106.141-.2.289a.068.068,0,0,1,.02.046.224.224,0,0,1,0,.033.5.5,0,0,1-.016.059l-.009.016-.023.042-.009.016-.014.024q-.027.043-.059.089l-.077.1-.064.086c-.089.12-.175.244-.166.311-.038.037-.08.081-.132.14l-.067.077,0,.005c-.021.025-.038.045-.075.095l-.131.119-.054.049-.009.008,0,0-.161.153c-.115.113-.23.229-.351.352s-.216.225-.318.336l-.04.044c-.132.143-.248.266-.356.374l.036-.06a.7.7,0,0,0-.244.31.861.861,0,0,1-.24.327l.051-.085a3.238,3.238,0,0,0-.314.273c-.058.057-.114.114-.165.168l-.084.089-.04.046-.021.022-.01.012-.061.093-.074.114-.041.065-.092.147a.175.175,0,0,0-.019.108.038.038,0,0,0-.022-.006.12.12,0,0,0-.1.054.011.011,0,0,0,.01,0,.207.207,0,0,0,.056-.016l.018-.007a.205.205,0,0,1,.041-.013s0,0,0,.008a.018.018,0,0,1,0,.006c-.031,0-.066.021-.067.03s0,0,0,0a.434.434,0,0,0,.143-.041.018.018,0,0,1,.006.008c0,.009.008.018.145.061l.047.015.144.048.2.051c.12.03.26.065.4.1l.2.045.167.035h.019l.232-.017c.089-.008.18-.017.279-.029.045.007.067.015.069.026s-.016.024-.034.036a.2.2,0,0,0-.026.019l.233-.023.2-.023.049-.005.56.035h.016l.432.027.005,0,.017,0,.064-.013Zm-8.654-2.291h0c-.02.045-.007.06.012.074s.039.03.024.1h.015a.233.233,0,0,0,.012-.133c.016.034.026.048.037.048s.016-.008.027-.018a.212.212,0,0,1,.1-.059c-.01-.044.024-.089.06-.136a.453.453,0,0,0,.056-.086.067.067,0,0,0,0,.044.039.039,0,0,0,.023.021c.016-.054.029-.062.052-.062h.048a.24.24,0,0,0,.038,0c.014-.025.018-.042.014-.054s-.019-.017-.034-.023-.049-.017-.043-.058a.1.1,0,0,1,.045-.017c.02,0,.026.017.033.036a.064.064,0,0,0,.03.041l.029-.191a.111.111,0,0,1,.046-.01.119.119,0,0,1,.045.009l.005-.026c.011-.055.021-.106.1-.118l-.092.1.077.005L17,39.4a.323.323,0,0,1,.13-.034.143.143,0,0,1,.073.019l.041-.075.036.087a.051.051,0,0,1-.031.023.58.58,0,0,1,.05.068l.019.028.011-.01.74-.8,0-.013a.483.483,0,0,1-.014-.05l-.005-.036-.016.014a.6.6,0,0,0-.085.15c-.039.088-.076.17-.152.17a.127.127,0,0,1-.035-.005l.037-.062a.1.1,0,0,0-.047-.012c-.031,0-.071.014-.087.083a.061.061,0,0,0,.009.051.028.028,0,0,0,.021.014l-.05.027c-.024-.063.052-.18.114-.273l.026-.039a.266.266,0,0,1-.009.045c-.007.03-.015.06,0,.077a.028.028,0,0,0,.019.012,1.286,1.286,0,0,0,.067-.143,1.272,1.272,0,0,1,.063-.134.282.282,0,0,0,.014.11l.005.019c.054-.03.054-.052.053-.08A.129.129,0,0,1,18,38.579a.132.132,0,0,1,.029-.039c.044,0,.07,0,.068.034a.434.434,0,0,1,.226-.183s-.032.064-.019.091a.023.023,0,0,0,.018.013l.043-.035a.8.8,0,0,0,.088-.167.844.844,0,0,1,.123-.218.412.412,0,0,1,.128-.156.554.554,0,0,1,.141-.081.38.38,0,0,0,.087-.084.243.243,0,0,0,.055-.116.014.014,0,0,0-.012-.005.1.1,0,0,0-.034.011.1.1,0,0,1-.031.011.007.007,0,0,1-.006,0c0-.006,0-.02.012-.044a.036.036,0,0,0,.027.017.056.056,0,0,0,.035-.02l.005,0c.008-.007.016-.014.024-.014a.174.174,0,0,1,.071-.143.115.115,0,0,0,.052-.093.012.012,0,0,0,.013.007.216.216,0,0,0,.075-.035l.025-.014a.041.041,0,0,0,.03.013.067.067,0,0,0,.025-.006.06.06,0,0,1,.02-.006.011.011,0,0,1,.008,0c.009.01.012.042.008.109a.364.364,0,0,1,.086-.206.243.243,0,0,0,.056-.249l-.045.025.012-.011a.592.592,0,0,0,.049-.049c.02-.018.033-.027.046-.037l.047-.036-.007,0c.014-.012.025-.022.034-.031a.232.232,0,0,1,.151-.069.386.386,0,0,1-.036.069.372.372,0,0,0-.038.075c.07-.017.088-.082.107-.151a.328.328,0,0,1,.051-.122c.018.019.007.04,0,.061s-.014.029-.009.04a.038.038,0,0,0,.026.018.309.309,0,0,0,.074-.124.607.607,0,0,1,.03-.067l.017.028c.038-.02.061-.041.067-.063a.078.078,0,0,0-.015-.061c-.009-.015-.016-.028-.011-.039s.026-.021.063-.028a.057.057,0,0,1-.018-.02.043.043,0,0,0-.023-.022l.025-.008a.317.317,0,0,1,.085-.02.033.033,0,0,1,.03.012c.008.012.005.032-.007.062a.272.272,0,0,0,.068-.174.224.224,0,0,0-.055.016.071.071,0,0,1-.029.008.1.1,0,0,1-.038-.01l.024-.035a1.044,1.044,0,0,0,.07-.109l.006-.037h0l.005,0a.055.055,0,0,1,.009.049.118.118,0,0,0,.038-.023.284.284,0,0,0,.037-.047.468.468,0,0,0,.053-.106,1.444,1.444,0,0,0,.058-.227l0-.01a.683.683,0,0,1,.23-.454.025.025,0,0,1-.01,0h-.009c-.022,0-.023-.019-.025-.042a.131.131,0,0,0-.009-.047l.012-.022.011-.02c.009-.022.019-.043.03-.066l.108-.139a.632.632,0,0,1,.1-.1l.009.048c.034-.066.062-.127.09-.185a1.431,1.431,0,0,1,.221-.374h0s0,0,.007.005a.076.076,0,0,1,.022.05v.007a.031.031,0,0,0,0-.007c.014-.063.075-.1.128-.131s.078-.047.082-.076a.063.063,0,0,0-.02-.05l-.035.034a1.927,1.927,0,0,0,.231-.438,3.058,3.058,0,0,1,.14-.3h.007c.013,0,.021,0,.024.009s0,.032-.015.054-.026.05-.017.066.016.014.034.015a.806.806,0,0,0,.108-.153l.044-.085.023-.042.014-.031.009-.033.016-.048a.715.715,0,0,1,.04-.095.053.053,0,0,0,.006.033.026.026,0,0,1,0,.014c.03-.044.042-.07.036-.081s-.012-.007-.02-.007h-.008c-.014,0-.029,0-.035-.01s0-.032.012-.066a.064.064,0,0,0,.032.013c.016,0,.03-.014.054-.042l-.045-.07h0a.088.088,0,0,1,.065.035l0,.01a.048.048,0,0,0,0-.01.326.326,0,0,1,.016-.189c.019-.072.037-.14.01-.181h0a.1.1,0,0,1,.048.021.135.135,0,0,0,.061.026h.009a.274.274,0,0,0,.035-.215.294.294,0,0,0,.1-.135c.015-.022.022-.031.024-.032l0,.006c.029-.039.041-.06.039-.073s-.009-.013-.017-.018-.041-.026-.033-.087l-.1.1.1-.21-.01.1a.35.35,0,0,0,.08-.168.584.584,0,0,1,.054-.143l-.069.026.044-.136a.063.063,0,0,0,.022,0,.087.087,0,0,0,.061-.036l.006-.007c.014-.016.026-.029.039-.029s.026.014.04.043a.839.839,0,0,0,.166-.378,1.326,1.326,0,0,1,.072-.232c0,.013,0,.017.011.022a.035.035,0,0,1,.011.01.4.4,0,0,0,.071-.305.122.122,0,0,1,.015.038c0,.016.008.029.02.037a.2.2,0,0,0,.034-.137.3.3,0,0,1,.021-.148c.006.031.017.047.031.047s.024-.009.04-.029c-.036-.009-.037-.062-.031-.091.023.044.046.067.07.067s.049-.026.071-.051.045-.051.069-.051a.06.06,0,0,1,.045.031l0,.006,0-.006a.32.32,0,0,1-.008-.091c0-.081,0-.183-.055-.183h-.005a1.684,1.684,0,0,1,.15-.4,2.256,2.256,0,0,0,.147-.36l0,.041c0,.031,0,.065.013.065s.012-.006.02-.017a.949.949,0,0,0,.076-.157c.009-.022.017-.045.025-.075l.005-.019v-.026a.384.384,0,0,0-.075-.137.114.114,0,0,1,.048-.017.016.016,0,0,1,.013,0c.007.007.006.023.005.039,0,.035,0,.067.052.078a.453.453,0,0,0-.045-.269.038.038,0,0,0-.028-.012l-.013,0a.9.9,0,0,0,.1-.164q.005-.01,0-.011s-.01.007-.016.014l-.017.02-.01.012s.03-.059.09-.167l-.021.036-.088.148-.006.01a.346.346,0,0,1-.023.035c.026-.049.041-.075.056-.1l.044-.08.033-.06.038-.069-.016.027c-.025.041-.045.075-.052.086.02-.045.04-.084.054-.114l.062-.12.074-.143c-.1.187-.13.242-.134.244s0-.006,0-.007-.016.017-.077.137a.152.152,0,0,0,.012-.035s-.011.011-.031.046l-.01.017c-.015.025-.022.037-.026.037s0,0,0-.014a.9.9,0,0,1-.066.156l0,.007a.166.166,0,0,1,.007-.025.212.212,0,0,0,.011-.041.326.326,0,0,0-.026.059l-.017.041a.146.146,0,0,1-.019.041s0,0,0-.01.008-.044.014-.069a.208.208,0,0,0,.011-.067,1.7,1.7,0,0,1-.054.162c-.01.024-.016.035-.021.035s-.008-.007-.012-.023a.109.109,0,0,0,.009-.042c0-.014,0-.031.007-.047a.8.8,0,0,1-.069.137c-.011.015-.022.029-.032.041l-.05.054a2.659,2.659,0,0,0-.4.518l-.013-.113c-.146.071-.134.133-.121.2a.164.164,0,0,1-.046.177l-.042.04-.019.018c-.112.13-.218.258-.346.411l-.18.221L22.2,30.6l-.043.056-.065.094-.134.108-.1.083c-.066.058-.126.115-.184.174,0,.009,0,.016,0,.019a.017.017,0,0,0,.014,0h.026a.043.043,0,0,1,.028.008.112.112,0,0,1-.051.008h-.012c-.024,0-.048,0-.06.049l.041.025a.948.948,0,0,0-.359.262c-.132.129-.268.262-.411.262h-.023a.8.8,0,0,1-.228.214.878.878,0,0,0-.291.3l-.02,0a.018.018,0,0,1-.016-.006c-.006-.008,0-.022,0-.034l0-.011c0-.012.006-.024,0-.028l0,0a.092.092,0,0,0-.037.02c-.011.015-.029.038-.027.044v.005a.031.031,0,0,1,0,.008l-.014.024-.027.049-.049.087v-.006l-.005.016c-.045.13-.174.224-.338.332l-.017.011c-.073.048-.148.1-.215.15a1.09,1.09,0,0,0-.1.093c-.015.016-.029.033-.042.05l-.013.018c-.014.018-.031.04-.043.06l-.011.01-.013.011.015-.017c0-.009-.014-.014-.033-.014a.185.185,0,0,0-.039.005.164.164,0,0,0-.082.034.018.018,0,0,0,0,.015c.006.007.021.008.039.009l.033,0a3.5,3.5,0,0,1-.475.377c.009-.017.013-.028.01-.034s-.006,0-.012,0a.2.2,0,0,0-.04.007l-.009,0a.259.259,0,0,1-.059.01.048.048,0,0,1-.039-.014.043.043,0,0,0,0,.051c.012.016.022.031-.037.093a1.157,1.157,0,0,1-.152.085l-.015.007-.063.028-.039.015a.034.034,0,0,1-.014,0h-.007a.258.258,0,0,0-.056.029l-.018.011-.086.054a.259.259,0,0,1-.033.091c-.02.038-.036.068-.009.1-.073.067-.127.124-.185.184s-.146.153-.261.254l-.022-.014a.105.105,0,0,1-.067.1.427.427,0,0,1-.038.02l-.025.012-.015.01c-.028.018-.054.035-.076.051a.175.175,0,0,0-.083.05.1.1,0,0,1,.013-.043c.008-.018.016-.033,0-.042a.923.923,0,0,0-.1.068l-.029.022a.093.093,0,0,0,.02-.091.043.043,0,0,0-.043-.025.116.116,0,0,0-.038.007c-.019.027-.026.044-.022.053l-.023-.02a.074.074,0,0,0-.039.08.062.062,0,0,0,.066.042l.024,0c-.109.05-.216.107-.318.163a3.633,3.633,0,0,1-.386.189v-.06a1.135,1.135,0,0,1-.194.1.49.49,0,0,1-.165.046h-.01a.073.073,0,0,1,0,.02c0,.018,0,.04.015.045-.027.035-.046.05-.06.05a.032.032,0,0,1-.023-.014.032.032,0,0,0-.023-.014.058.058,0,0,0-.036.021c.022-.027.037-.048.032-.068l-.258.212c-.007-.011-.035-.017-.074-.017a.444.444,0,0,0-.273.091c0,.017.032.025.056.025a.1.1,0,0,0,.033-.005l-.068.059-.105-.052-.074.133-.041-.069a.212.212,0,0,0-.066.108c-.014.039-.027.076-.063.092a.759.759,0,0,1-.291.066,1.042,1.042,0,0,0-.161.015c.03.078-.056.118-.139.157s-.142.066-.138.122a.693.693,0,0,0-.131.029.986.986,0,0,0-.159.068l-.115.026-.09.022-.1.029-.08.023-.01,0a3.67,3.67,0,0,1-.366.093l.025-.021-.031,0a.151.151,0,0,0-.126.08.194.194,0,0,1-.148.1l.033-.032-.044,0-.054,0-.018,0-.034.005-.027,0a1.086,1.086,0,0,0-.109.068c-.044.03-.087.062-.127.1a2,2,0,0,0-.205.192.037.037,0,0,0,0-.037.034.034,0,0,0-.031-.016.082.082,0,0,0-.044.016c-.015.023,0,.04.017.052s.017.015.015.022-.016.015-.047.024a.02.02,0,0,0,0-.022.032.032,0,0,0-.028-.014.035.035,0,0,0-.016,0,.138.138,0,0,0,.022.075.156.156,0,0,0-.042,0,.384.384,0,0,0-.086.011.2.2,0,0,0,.094.138c0,.031-.025.046-.05.061l.02.011.039.023.079.044.053.028.106.056c.117.059.213.109.3.166l-.035.085a.086.086,0,0,0,.051.018.144.144,0,0,0,.039-.007.145.145,0,0,1,.036-.007c.02,0,.044.009.072.072h-.006a.038.038,0,0,1-.017-.007l-.024-.013a.186.186,0,0,0-.074-.023h-.01c.057.078.093.088.123.088l.032,0,.034,0a.183.183,0,0,1,.122.053l-.1.049a.161.161,0,0,0,.106.083h.061l.061,0a.275.275,0,0,1,.064.01c.118.044.114.1.11.172a.216.216,0,0,0,.129.238.057.057,0,0,0,.054-.029.056.056,0,0,1,.054-.031.686.686,0,0,0,.163.157.641.641,0,0,1,.16.157c-.008.047-.018.069-.03.069s-.015-.008-.021-.016-.014-.016-.02-.016-.016.022-.021.07l-.085-.14c.007.031.007.046,0,.051a.007.007,0,0,1-.005,0c-.009,0-.024-.012-.041-.026l-.012-.01a.131.131,0,0,0-.068-.037.031.031,0,0,0-.027.016.556.556,0,0,0,.209.164c.041.024.083.048.119.073a.03.03,0,0,1-.02.008.085.085,0,0,1-.047-.025l0,0a.078.078,0,0,0-.038-.022c-.012,0-.02.013-.026.039l.068.032h-.019l-.017,0a.046.046,0,0,1-.038-.02c-.019.04.01.055.044.073a.218.218,0,0,1,.055.037.235.235,0,0,0,.076-.09s0,.009,0,.015a.272.272,0,0,1,.066.024l.015.009.007,0,.014,0,.017,0,.039.022.081.047a.348.348,0,0,0,.156.053c-.019,0-.019.013-.019.023a.055.055,0,0,1,0,.013.283.283,0,0,0,.145.032.527.527,0,0,1,.146.023.082.082,0,0,1-.013.068.063.063,0,0,0-.012.05c.007.02.032.039.081.06a.112.112,0,0,0,.039-.049c.014-.026.027-.051.056-.051a.129.129,0,0,1,.065.026.407.407,0,0,0-.053-.005c-.023,0-.037,0-.043.014a.033.033,0,0,0,0,.032c.08.025.079.034.077.06a.152.152,0,0,0,.031.1.11.11,0,0,1,.028,0,.1.1,0,0,1,.06.022l.006,0a.069.069,0,0,0,.038.018c.016,0,.033-.012.054-.039,0,.069,0,.073.017.1.007.013.017.031.03.061,0-.022.013-.031.042-.031a.41.41,0,0,1,.053.005.474.474,0,0,0,.064.006c.032,0,.052-.008.062-.027-.007.043-.044.053-.081.062s-.053.014-.064.034a.087.087,0,0,0,0,.069l.041,0c.023,0,.047,0,.07,0s.05,0,.074,0a.145.145,0,0,0,.122-.045.4.4,0,0,1,.034.05.3.3,0,0,0,.082.1h-.008a.114.114,0,0,0-.03.005.772.772,0,0,1,.223.084l.048.024a.664.664,0,0,0,.127.049.28.28,0,0,0,.059.007A.026.026,0,0,0,16.182,40.077ZM9.248,32.962h0c.016,0,.019,0,.02.02A.07.07,0,0,1,9.274,33a.109.109,0,0,0,.038.07.078.078,0,0,0,.034.013h.019a.153.153,0,0,0,.042-.009,1.134,1.134,0,0,0,.252-.111c.036-.04.021-.054.008-.068s-.028-.028.008-.068c.087-.028.164-.056.238-.087l.038-.018L10,32.7l.041-.019.028-.014.036-.015.094-.028.021-.007L10.3,32.6l.023-.006a2.494,2.494,0,0,1,.262-.054c.054.021.079.036.078.047s-.03.018-.058.023-.049.01-.049.018.008.017.088.041l-.323.036c.077,0,.087.011.087.016s0,.009-.04.021l-.075.023-.026.008a1.038,1.038,0,0,0-.111.04c-.028.016-.042.029-.043.04a.019.019,0,0,0,.007.016l.049-.015c.038-.006.064-.012.091-.018l.085-.024c.061-.019.123-.041.182-.062l.12-.046c.085-.033.174-.067.257-.095.006.029-.057.048-.113.064s-.088.026-.089.043.011.019.036.029l.13-.057a.212.212,0,0,0-.021.021.136.136,0,0,1-.093.048.073.073,0,0,0,.048.016.348.348,0,0,0,.118-.035.838.838,0,0,1,.125-.043.137.137,0,0,0-.059-.111l.03.007a.8.8,0,0,1,.131-.064l.075-.026.019-.009.013-.006.013-.011.021-.015.076-.051.149-.1a1.166,1.166,0,0,0,.234-.2c-.006.011-.009.019-.006.023s.01.005.018.006l.016,0a.848.848,0,0,0,.179-.16l.037-.041.053-.058.02-.021a.7.7,0,0,1,.12-.1l.085-.038a.066.066,0,0,1,.068.044.049.049,0,0,0,.051.034.572.572,0,0,0,.19-.061.062.062,0,0,0-.007-.064.061.061,0,0,1-.01-.053c.012-.029.062-.058.157-.091-.012.007-.139.08-.132.108,0,.007.013.011.033.011h.014a.478.478,0,0,1,.16-.065.068.068,0,0,1,.029.008l.011,0a.215.215,0,0,0,.086.013.782.782,0,0,0,.081,0,.365.365,0,0,1,.165-.092c.063-.021.113-.037.106-.109a.241.241,0,0,1,.028.029.059.059,0,0,0,.016.015.05.05,0,0,0,.027.005l.014-.005c.024-.009.057-.022.105-.037-.012,0-.018,0-.02-.01-.009-.021.04-.075.092-.132.067-.074.136-.15.107-.18a.035.035,0,0,1,.025.019c.011.024-.01.063-.03.1s-.037.073-.026.091.017.013.034.013a.279.279,0,0,0,.066-.011,1.644,1.644,0,0,1,.126-.161c.092-.108.187-.221.16-.285.034-.017.065-.029.094-.04l.012,0,.051-.022.014-.006.023-.013.048-.028.016-.005.035-.012.012,0,.016-.005.017-.005c.02-.006.041-.013.064-.022a.2.2,0,0,0-.055.051,3.122,3.122,0,0,1,.426-.228,1.355,1.355,0,0,0,.493-.311.035.035,0,0,0,.019.033.036.036,0,0,0,.02.017h.015l.017-.011c.022-.014.045-.03.075-.052l.148-.11a.256.256,0,0,1,.1-.057.011.011,0,0,1,.01,0c.006.009,0,.031-.015.066a1.418,1.418,0,0,0,.273-.336.038.038,0,0,0,.035.02.494.494,0,0,0,.2-.121.861.861,0,0,1,.229-.148.621.621,0,0,1,.18-.219,1.783,1.783,0,0,0,.139-.142c-.024.032-.034.055-.028.069a.025.025,0,0,0,.02.014c.073-.1.093-.1.147-.114a.543.543,0,0,0,.106-.027c.043-.048.06-.077.054-.091s-.02-.012-.037-.014-.036,0-.043-.016,0-.028.013-.052a.223.223,0,0,1,.091-.042.017.017,0,0,1,.013,0c.007.007.006.021.006.036s0,.045.02.049l.026-.047.014-.022,0-.014v-.014l.012-.026.022-.052.044-.1a.232.232,0,0,1,.13-.052h.008l.02-.041a.417.417,0,0,1,.2-.235l-.18.2.113-.033.164-.281a.593.593,0,0,1,.286-.141.1.1,0,0,1,.042.009.04.04,0,0,1,0-.022l.121-.127-.008.117a.136.136,0,0,1-.088.05.31.31,0,0,1,.049.085l.014.031.021-.022L19,27.478l.654-.771,0-.131a1.9,1.9,0,0,0-.2.291c-.111.187-.215.364-.348.374l.08-.119-.014,0c-.013,0-.127.005-.211.19a.086.086,0,0,0-.007.076.018.018,0,0,0,.015.01h.008l-.01.008-.024.019-.046.024a.185.185,0,0,1,.018-.054.38.38,0,0,1,.047-.1c.026-.043.057-.09.084-.13.049-.072.1-.147.15-.213l.035-.049a.776.776,0,0,1-.033.075c-.025.053-.051.109-.04.127a.015.015,0,0,0,.014.006h.007c.059-.087.112-.178.162-.266s.093-.162.144-.239a.477.477,0,0,0-.028.165c0,.009,0,.018,0,.026.1-.082.1-.12.114-.164a.245.245,0,0,1,.056-.12l.006,0a.246.246,0,0,1,.075-.028.013.013,0,0,1,.011,0,.028.028,0,0,1,0,.023,1.729,1.729,0,0,1,.377-.446c0,.006-.065.123-.048.151a.012.012,0,0,0,.011.006l.011,0,.075-.088a2.63,2.63,0,0,0,.131-.238l.064-.134.017-.034.018-.036.011-.021a.5.5,0,0,0,.023-.047.613.613,0,0,1,.034-.1c.015-.039.032-.08.053-.126a2.348,2.348,0,0,1,.4-.694,1.91,1.91,0,0,0,.273-.435.006.006,0,0,0-.006,0c-.012,0-.035.019-.056.038l0,0a.154.154,0,0,1-.047.034c-.007-.007,0-.032.031-.085.005.011.011.016.02.016s.041-.026.062-.052l.008-.009c.018-.022.035-.042.045-.042a.622.622,0,0,1,.15-.281.456.456,0,0,0,.109-.185v0l0,.006,0,0c.014,0,.051-.035.094-.075.022-.021.044-.042.065-.06a.025.025,0,0,0,.021.011.092.092,0,0,0,.047-.023l.008-.005a.077.077,0,0,1,.03-.017.006.006,0,0,1,.005,0c.008.011,0,.062-.041.174a1.327,1.327,0,0,1,.221-.382.772.772,0,0,0,.2-.434l-.074.062.25-.273-.011.011.018-.021.031-.043a.788.788,0,0,1,.22-.221,1.48,1.48,0,0,1-.067.142,1.431,1.431,0,0,0-.069.147.646.646,0,0,0,.181-.325,1.167,1.167,0,0,1,.1-.235c.02.017,0,.062-.019.1s-.029.064-.021.077a.018.018,0,0,0,.017.007h.012a1.218,1.218,0,0,0,.131-.257c.018-.043.036-.088.057-.132l.015.033c.149-.159.116-.21.095-.244s-.025-.055.074-.146c-.01,0-.016-.009-.021-.017s-.011-.017-.02-.017h-.006l.033-.035c.048-.051.107-.114.134-.114a.012.012,0,0,1,.01,0c.009.012,0,.048-.014.107a.9.9,0,0,0,.1-.343.608.608,0,0,0-.071.073.115.115,0,0,1-.085.053l.209-.492c0-.007.008-.015.011-.015a.306.306,0,0,1-.036.135,1.907,1.907,0,0,0,.347-.637l.059-.165.067-.187c.025-.069.047-.125.068-.177l.038-.088.035-.075.034-.1c.012-.035.027-.073.045-.116a1.676,1.676,0,0,1,.117-.229.054.054,0,0,1-.029.017.009.009,0,0,1-.007,0c-.008-.009-.007-.035-.006-.065a.372.372,0,0,0,0-.087c.025-.072.051-.156.081-.258s.06-.2.088-.3l.043-.07c.01-.017.021-.033.031-.049.022-.033.042-.062.062-.088l0,.077.085-.192.142-.322c.035-.076.067-.149.1-.22l.087-.18c0-.016.017-.066.03-.108s.025-.083.04-.124v0h0c.012,0,.041.03.042.074v.013a.1.1,0,0,0,0-.013.909.909,0,0,1,.126-.348c.064-.121.115-.217.056-.275l-.037.092c.035-.108.069-.227.1-.375.035-.128.07-.258.105-.389l.05-.2.05-.2c.017-.067.034-.132.052-.2l.049-.175,0-.014,0-.031c.012-.013.021-.019.027-.019s.008,0,.01.011a.176.176,0,0,1,0,.048c0,.007,0,.012,0,.016l-.009.034,0,.017a.354.354,0,0,0-.013.058c0,.017,0,.028,0,.034a.014.014,0,0,0,.011,0,.058.058,0,0,0,.026-.009l.028-.064.023-.057c.005-.023.015-.075.022-.113l.019-.124.011-.084.022-.169a4.585,4.585,0,0,1,.089-.52.148.148,0,0,0,.006.062.062.062,0,0,1,0,.025c.034-.108.046-.165.036-.178a.008.008,0,0,0-.007,0l-.01,0-.009,0a.061.061,0,0,1-.023.007c-.015-.006-.023-.013-.013-.085a.813.813,0,0,1,.032-.084c.01.011.018.016.026.016s.039-.028.081-.1l-.024-.119a.017.017,0,0,1,.011,0,.058.058,0,0,1,.05.05c0,.006,0,.012,0,.017a.086.086,0,0,0,0-.017,1.192,1.192,0,0,1,.088-.362.875.875,0,0,0,.078-.344.013.013,0,0,1,.008,0c.011,0,.023.013.036.026l.005.005c.016.017.031.031.048.031a.031.031,0,0,0,.018-.006.873.873,0,0,0,.076-.182,1.551,1.551,0,0,0,0-.226,1.21,1.21,0,0,0,.109-.32c.006-.024.01-.043.012-.048l0,.008c.046-.172.032-.176.009-.183s-.047-.014-.049-.132l-.083.252.064-.46.007.188a.914.914,0,0,0,.03-.121l.009-.061.008-.072.007-.034,0-.026.01-.051c.005-.034.012-.068.018-.1a1.781,1.781,0,0,1,.051-.217l-.077.095.054-.279c.039,0,.067-.051.091-.106l.011-.027c.018-.042.033-.079.05-.079s.023.017.035.053c.021-.053.043-.11.066-.18.017-.054.038-.123.043-.154l-.005-.106c0-.021,0-.042,0-.063s0-.039,0-.058q-.006-.056-.011-.112c0-.042-.008-.083-.012-.124a4.589,4.589,0,0,1-.029-.46c0,.024.01.025.019.027a.021.021,0,0,1,.014.007,1.371,1.371,0,0,0,.009-.152c0-.023,0-.047,0-.069l0-.091a1.024,1.024,0,0,0,.039-.206c.005-.055.008-.108.011-.16a.211.211,0,0,1,.011.062c0,.027,0,.05.017.055a.721.721,0,0,0,.061-.273,1.065,1.065,0,0,1,.047-.287c0,.047.009.072.022.072s.031-.025.056-.077a.021.021,0,0,1-.018-.008.231.231,0,0,1,0-.143c.016.058.035.088.057.088s.032-.015.052-.046.031-.056.048-.088l.01-.019.014-.028.011-.017a.267.267,0,0,1,.023-.029c.008-.016.018-.024.03-.024a.064.064,0,0,1,.04.022l.006.006-.006-.006a.3.3,0,0,1-.036-.081l-.029-.1L27.147,8.1c-.038-.117-.066-.17-.09-.17a.025.025,0,0,0-.019.012l-.005-.03c-.006-.047-.011-.089-.015-.129,0-.024,0-.048-.007-.072S27,7.66,27,7.635s-.008-.067-.01-.11L26.9,7.512l-.154-.023c-.133-.018-.31-.041-.5-.053a.65.65,0,0,1,.075-.009c.057,0,.114-.01.115-.021s-.015-.013-.046-.021a3.486,3.486,0,0,0-.74-.071h-.4c-.127,0-.238,0-.351-.007a.029.029,0,0,1,.007-.023c.014-.015.048-.023.1-.023s.131.007.207.015h.007c.074.008.151.015.211.015s.114-.012.123-.037l-.263-.02-.147-.011-.114-.008-.1-.007-.045,0c-.047,0-.094-.007-.117-.007h-.014l-1,.314-.029,0L23.694,7.5a.3.3,0,0,1-.038-.011.341.341,0,0,0-.052-.014.448.448,0,0,0-.1-.01H23.49a1.641,1.641,0,0,0-.242.026l-.019,0a2.21,2.21,0,0,1-.346.036.89.89,0,0,1-.258-.035.022.022,0,0,1,0,.023c-.018.034-.146.052-.36.052h-.045c.011-.007.017-.013.016-.019s-.036-.023-.069-.032-.055-.015-.056-.024,0-.008.012-.012a1.615,1.615,0,0,1-.277.033c-.041,0-.083,0-.125,0h-.041l-.079,0-.017,0-.013,0-.01,0-.005,0h-.033a.257.257,0,0,1-.042,0c-.034-.006-.051-.019-.052-.04-.012.06-.115.085-.237.109l-.033.006c-.05.009-.1.019-.148.032a.594.594,0,0,0-.08.028.027.027,0,0,0-.014.022h-.031a.171.171,0,0,0-.078.022l.008.015a.171.171,0,0,1,.032.1.046.046,0,0,1,.027-.011h.008s.01.013.02.034l.017.039.014.031.029.072c.022.057.045.115.066.158-.01-.014-.019-.026-.023-.026l0,0a.239.239,0,0,0,.036.14c.014.027.031.057.048.086l.025.046c.008.013.021.042.033.068l.007.014.019.089,0,.008c0,.015.006.028.008.043a.4.4,0,0,1,.007.1c-.006.037-.019.039-.032.042s-.03.005-.022.08a.021.021,0,0,1,.015.01,1.364,1.364,0,0,1,.13.646.153.153,0,0,0-.039-.093.223.223,0,0,1-.025-.035,3.918,3.918,0,0,1,.1.616v.011q.007.077.015.153c.006.059.011.114.016.169.011.117.021.235.031.352l-.031.319-.023.29c-.007.088-.012.184-.017.291q0,.077,0,.154V11.7q0,.074,0,.147l-.006.042,0,.023,0,.045-.008.09-.053-.167c-.12.283-.085.368-.048.458a.463.463,0,0,1,.018.335l-.161.637-.009.038-.212.843-.169.271-.007.011-.162.26-.151.248-.058.1-.08.135-.075.181-.077.2c-.05.129-.1.263-.146.4,0,.017,0,.027,0,.03s.019-.01.031-.023.036-.041.052-.041a.286.286,0,0,1-.058.071.2.2,0,0,0-.074.158l.054-.011-.011.017a.934.934,0,0,0-.081.145,5.527,5.527,0,0,0-.447.624c-.082.127-.167.258-.271.407-.1.08-.121.1-.165.131l-.01.007c-.049.036-.092.065-.131.089a.775.775,0,0,1-.24.108,2.366,2.366,0,0,1-.216.211c-.036.031-.073.061-.11.09l-.056.043-.044.034c-.044.041-.088.081-.132.123s-.1.095-.146.146a2.994,2.994,0,0,0-.3.368.116.116,0,0,1-.048.022.008.008,0,0,1-.007,0c0-.008,0-.027.015-.054l.005-.011c.01-.021.02-.04.017-.045s-.025.009-.071.053l-.075.1-.037.049-.062.074c-.068.047-.1.072-.132.1l-.025.02-.11.086.006-.009-.023.022a1.61,1.61,0,0,1-.3.215c-.06.034-.126.069-.2.105l-.106.051-.055.025-.024.011H16.3l-.011,0-.031.021-.062.042-.125.084c-.1.066-.177.121-.249.173-.094.069-.168.127-.235.182-.036.031-.074.063-.108.1L15.4,20.2l-.064.061-.1.041.041-.021a.007.007,0,0,0,0-.006s-.013-.008-.03-.009h-.075a.488.488,0,0,0-.16.039c-.006.006-.008.011-.006.015s.033.01.067.01h.054c-.236.1-.381.163-.515.217l-.091.035-.109.042-.117.042-.005,0-.1.038-.231.057c.037-.018.054-.029.053-.036s-.013-.007-.037-.007l-.062,0h-.006l-.082,0c-.057,0-.087-.007-.1-.022-.046.028-.041.042-.036.055a.022.022,0,0,1,0,.019c-.008.017-.053.04-.146.073s-.169.037-.258.052l-.052.008-.074.012-.063.009-.031,0-.015,0-.251.048-.038.007c-.1.019-.189.038-.278.058a.784.784,0,0,1-.151.093c-.072.037-.129.067-.122.11l-.222.072-.084.027H11.7l-.073,0-.225.005c-.11,0-.209,0-.31,0l-.227,0-.014-.025a.218.218,0,0,1-.075.025l-.043,0h-.069l-.051-.008-.03-.006-.059-.015-.117-.032a.573.573,0,0,0-.139-.026.115.115,0,0,0-.038.005.1.1,0,0,1,.039-.029c.019-.01.035-.018.029-.033l-.254,0c.067-.006.12-.032.122-.061s-.043-.05-.125-.064c-.079.013-.089.022-.09.028s.014.014.028.02.032.014.031.023-.009.012-.027.018l-.054-.092H9.9c-.067,0-.114.019-.118.047s.042.06.122.082L9.756,21.2l-.205-.025-.222-.044-.336-.067-.159-.032-.1-.02-.084-.018L8.5,20.963l-.072-.009-.08-.009L8.4,20.9c-.149,0-.31-.015-.443-.031l-.027,0-.027,0a.221.221,0,0,1-.037-.006l-.024-.01a.344.344,0,0,1-.055-.033l0,.008a.114.114,0,0,0,.028.059v.017c0,.008,0,.009,0,.009h0s-.01-.005-.018-.012l-.012-.01a.021.021,0,0,0-.013-.007.005.005,0,0,0,0,0,.015.015,0,0,0,0,.009.313.313,0,0,0-.032-.057l.005.064,0,.027,0,.013,0,.039-.024.333c-.012,0-.033.031-.058.081-.012.024-.026.054-.04.089l-.007.019-.013.035a.552.552,0,0,0-.023.07l-.013.034-.01.022-.018.046c-.011.027-.021.056-.031.084l0,.011a1.21,1.21,0,0,0-.046.19.01.01,0,0,0,.007,0c.022,0,.066-.061.088-.122l-.03.178-.13.107.009.274L7.333,22.4a.571.571,0,0,0-.007.163v.013c0,.019,0,.038.006.056l0,.033.009.01,0,0a.025.025,0,0,1,.006.007V22.7a.218.218,0,0,1,0,.023.287.287,0,0,1,0,.073,2.751,2.751,0,0,1-.162.561c-.028.067-.059.143-.106.288a.067.067,0,0,1,.035.04.279.279,0,0,1,.009.032s0,.009,0,.014a.071.071,0,0,0,0,.017.065.065,0,0,1,0,.029c0,.007,0,.013,0,.02s0,.014,0,.022c0,.027,0,.056,0,.085v.006l-.008.081c0,.041-.008.079-.012.117-.011.117-.02.246.023.292-.018.066-.035.139-.049.218-.007.04-.013.078-.02.118l-.008.06a.154.154,0,0,1,0,.022.1.1,0,0,0,0,.011v.022l0,.017.01.07L7.08,25c0,.029.009.053.012.078l.032.177,0,.009.02.108.053.282L7.264,26c0,.037,0,.075,0,.112s0,.076,0,.112,0,.065,0,.1,0,.072,0,.106l-.015-.059a.519.519,0,0,0,.04.345.67.67,0,0,1,.06.339l-.024-.083c-.005.033-.011.072-.014.113V27.1c0,.031,0,.063-.008.1,0,0,0,.043,0,.059v.005c0,.022,0,.044.006.067.005.05.011.1.017.149.013.095.029.2.049.31.016.088.036.184.062.3l.015.065c.006.027.012.051.017.076s.01.036.014.054l0,.013,0,.016,0,0,0,.008.01.009a.1.1,0,0,1,.009.016l.008.014.016.03.02.035c-.014-.019-.027-.031-.038-.031a.015.015,0,0,0-.012.007c-.01.015-.011.059.019.131.011.015.021.023.03.023s.019-.01.026-.019.013-.019.019-.019.024.031.041.1c-.009-.012-.016-.019-.024-.019a.011.011,0,0,0-.009.005.088.088,0,0,0,0,.068l.15.185.042.152.032.115.016.057.023.08.02.07.011.035.018.056.023.146c.009.058.018.114.027.17l.052.3c.018.1.038.2.059.293L8.1,30.4l.018.075.017.07a.088.088,0,0,0,0,.015l0,.014.007.009a.041.041,0,0,1,.011.015q.02.03.038.059c.01.034.011.055,0,.063a.012.012,0,0,1-.01,0,.1.1,0,0,1-.036-.014.175.175,0,0,0-.026-.012c.1.163.2.321.285.453l.144.218.03.046.04.061.035.053.051.083c.043.131.083.254.122.374l-.073.067a.258.258,0,0,0,.087.145c.041.038.077.07.076.237,0,.009,0,.01,0,.01s-.009-.017-.022-.053a.74.74,0,0,0-.09-.2.921.921,0,0,0,.048.229.322.322,0,0,0,.031.058.035.035,0,0,0,.019.014l.007,0,.01,0a.052.052,0,0,1,.017.006A.3.3,0,0,1,9,32.559a.826.826,0,0,1,.11.181l-.138-.05a.535.535,0,0,0,.152.273.04.04,0,0,0,.03.015h.032a.216.216,0,0,0,.049-.014ZM9.311,16.24a.19.19,0,0,1,.071.015l.033.014a.608.608,0,0,1,.125.058h0l0,0,0,0s0,0,.018,0l.1.005.193.011c.115.007.25.015.384.019l.2,0a5.2,5.2,0,0,0,.552-.027c.009-.006.013-.011.013-.015s-.008-.012-.017-.018a.06.06,0,0,1-.03-.033.1.1,0,0,1,.044.026.076.076,0,0,0,.047.024.071.071,0,0,0,.041-.016l-.017-.046a.533.533,0,0,0,.22.037c.06,0,.123,0,.181-.01l.057-.005c.054,0,.11-.01.162-.012h.1l.045,0,.008.009c.007.008.012.014.04.018a.225.225,0,0,1,.068.027.8.8,0,0,1,.3-.094.873.873,0,0,0,.391-.142c.018,0,.028.008.031.016s-.009.027-.021.041-.018.02-.015.025.006,0,.015,0l.03,0,.127-.069.063-.035.031-.018c.007,0,.008-.006.009-.008l0-.012a.066.066,0,0,1,0-.011.064.064,0,0,1,0-.015l0-.006L12.942,16a.9.9,0,0,1,.1-.06c.063-.033.131-.061.2-.09l.034-.014a1.039,1.039,0,0,0,.436-.267l-.008.014c0,.012.019.018.041.018a.13.13,0,0,0,.089-.037.018.018,0,0,0,0-.014c-.007-.007-.022-.007-.041-.007h-.031a3,3,0,0,1,.419-.368l.042-.032c-.014.022-.014.031-.012.035s.005,0,.011,0a.186.186,0,0,0,.041-.009l.009,0a.231.231,0,0,1,.062-.012.048.048,0,0,1,.037.013.044.044,0,0,0-.007-.051c-.013-.016-.023-.03.033-.094a1.338,1.338,0,0,1,.248-.14l.123-.054.031-.014a.024.024,0,0,1,.011,0h.005l.024-.006h.005l-.009-.029,0-.011,0-.014a.047.047,0,0,1,0-.014l0-.009c.005-.032.007-.06-.023-.081.05-.084.085-.154.122-.227.048-.095.1-.193.182-.327l.025.007c-.021-.064.034-.113.083-.157s.073-.064.065-.1a.1.1,0,0,1,.019.034c.006.014.01.027.025.031l.042-.124a.1.1,0,0,0,.021.079.043.043,0,0,0,.033.016.075.075,0,0,0,.054-.036c0-.031,0-.048-.006-.055l.029,0a.078.078,0,0,0,0-.077.053.053,0,0,0-.047-.026.1.1,0,0,0-.062.027c.071-.1.136-.206.2-.308a3.74,3.74,0,0,1,.241-.363l.031.053a1.211,1.211,0,0,1,.1-.169c.02-.027.041-.052.06-.073s.012-.01.014-.01l.019,0a.052.052,0,0,1,.017,0l-.008,0a.138.138,0,0,0-.051-.022s0,0-.005-.005,0,0,0-.007a.067.067,0,0,1,0-.007.087.087,0,0,1,0-.022.053.053,0,0,1,.007-.025.027.027,0,0,1,.025-.009h.01a.027.027,0,0,0,.021-.007.062.062,0,0,0,.011-.041c0,.03.006.06.025.072l.036-.337a.4.4,0,0,0,.2-.3.021.021,0,0,0-.011,0,.093.093,0,0,0-.067.052l.008-.092.112-.037-.041-.149.077.023a.2.2,0,0,0-.017-.1.035.035,0,0,0-.02-.026l-.025-.015c-.007,0-.011-.006-.009-.01l0-.015.005-.024,0-.011c0-.012.005-.022.007-.032q.009-.039.019-.068a.547.547,0,0,1,.035-.087c.007-.014.014-.026.022-.04a1.07,1.07,0,0,0,.069-.144c-.082-.015-.071-.109-.061-.2s.017-.157-.032-.182a1.737,1.737,0,0,0,.089-.635c0-.131.007-.267.023-.4l.013.031a.146.146,0,0,0-.026-.174.2.2,0,0,1-.047-.171l.022.042a.547.547,0,0,0,.031-.11c0-.018,0-.027.006-.034V9.508a.268.268,0,0,0,0-.03l0-.007-.013-.02-.011-.017-.02-.032c-.023-.037-.049-.076-.084-.123a2.315,2.315,0,0,0-.168-.2.044.044,0,0,0,.024.009.027.027,0,0,0,.024-.014.066.066,0,0,0-.008-.064A.032.032,0,0,0,16.262,9a.046.046,0,0,0-.031.017l0,0c-.008.007-.014.014-.02.014s-.016-.015-.023-.048a.026.026,0,0,0,.015.005.022.022,0,0,0,.019-.011.036.036,0,0,0,0-.034L16.1,8.881c-.02-.065-.04-.132-.059-.2l-.02-.062-.014-.042-.017-.052,0-.011c0-.013-.008-.023-.02-.051l-.042-.138c-.015-.046-.029-.087-.044-.124a1.616,1.616,0,0,0-.11-.233c0-.036.017-.04.029-.04a.105.105,0,0,1,.025,0l.021,0c-.053-.111-.115-.216-.169-.305L15.656,7.6c-.023-.038-.045-.075-.067-.112l-.021-.036-.008-.013c0-.009-.008-.015-.009-.015L15.537,7.4l-.006,0a.826.826,0,0,0,.064-.06.056.056,0,0,0-.038-.009.346.346,0,0,0-.05,0h-.012c-.024,0-.049-.01-.07-.081,0,0,0-.005,0-.006h0a.063.063,0,0,1,.022.013l.025.018a.155.155,0,0,0,.078.032c-.058-.105-.1-.105-.141-.105a.176.176,0,0,1-.152-.068l.107-.035c-.033-.069-.073-.1-.129-.1a.336.336,0,0,0-.063.008.36.36,0,0,1-.055.008C15,6.988,15,6.929,15,6.861a.218.218,0,0,0-.143-.232.056.056,0,0,0-.054.033.056.056,0,0,1-.054.033.617.617,0,0,0-.059-.064l-.013-.014a.443.443,0,0,0-.031-.033c-.012-.012-.023-.021-.033-.03l-.022-.018L14.552,6.5a.618.618,0,0,1-.137-.145c.009-.047.018-.069.03-.069s.014.008.021.017.014.017.02.017.017-.022.022-.068l.082.142c-.007-.032-.007-.047,0-.052h0a.081.081,0,0,1,.046.026l.011.009a.128.128,0,0,0,.068.037.032.032,0,0,0,.027-.015.576.576,0,0,0-.21-.171c-.039-.024-.079-.048-.114-.073a.028.028,0,0,1,.02-.008.085.085,0,0,1,.047.026c.017.015.031.026.043.026s.021-.012.027-.038l-.065-.033h.032a.049.049,0,0,1,.041.021c.019-.039-.01-.055-.043-.073a.225.225,0,0,1-.055-.038.252.252,0,0,0-.077.09.147.147,0,0,1,0-.016.491.491,0,0,1-.22-.159.447.447,0,0,0-.176-.135l.005,0h0c.015,0,.016-.007.018-.016a.059.059,0,0,1,0-.012.116.116,0,0,0-.053-.038.094.094,0,0,0-.039.013.07.07,0,0,0-.016.012.046.046,0,0,1-.036.016.136.136,0,0,1-.036-.006.08.08,0,0,1,.006-.069.062.062,0,0,0,.006-.05c-.009-.019-.037-.035-.088-.051a.111.111,0,0,0-.034.053c-.012.029-.023.057-.058.057a.145.145,0,0,1-.061-.018h.03c.025,0,.057,0,.065-.019s0-.019-.007-.032c-.083-.016-.084-.026-.085-.052a.149.149,0,0,0-.042-.1.115.115,0,0,1-.037.007.109.109,0,0,1-.055-.017l0,0a.083.083,0,0,0-.037-.013c-.018,0-.035.014-.055.045,0-.068-.006-.072-.027-.1-.009-.012-.021-.029-.037-.057a.028.028,0,0,1-.006.022.06.06,0,0,1-.045.012l-.045,0-.044,0c-.03,0-.065,0-.076.034,0-.045.04-.057.075-.069s.051-.017.06-.038a.088.088,0,0,0-.01-.069.485.485,0,0,1-.086.005h-.063a.171.171,0,0,0-.155.055c-.01-.009-.01-.012-.007-.015V5.287a.011.011,0,0,0,0-.01c0-.018-.041-.044-.09-.065h.007a.071.071,0,0,0,.032-.01H12.84a.939.939,0,0,1-.2-.032l-.007,0a.869.869,0,0,0-.186-.03.191.191,0,0,0-.114.031.051.051,0,0,0,.006-.045c-.014-.037-.078-.058-.134-.077s-.092-.031-.094-.052.012-.025.039-.041a.239.239,0,0,0-.051,0,.464.464,0,0,0-.179.035.05.05,0,0,0-.019-.066.169.169,0,0,0-.036-.018l-.017-.006a.035.035,0,0,1-.014,0h-.006l-.017,0a.127.127,0,0,1-.059-.027c-.025.038-.081.044-.14.051a.45.45,0,0,0-.1.019.068.068,0,0,0,.034-.029.038.038,0,0,0,0-.03.137.137,0,0,1-.054.018c-.017,0-.025-.01-.039-.026a.269.269,0,0,0-.049-.048c-.027.007-.043.016-.049.028s0,.026.007.041.022.048-.012.072c-.027-.008-.043-.017-.048-.029s0-.026.008-.041a.065.065,0,0,0,.009-.051l-.158.112a.111.111,0,0,1-.064-.067l-.022.014a.168.168,0,0,1-.088.036.11.11,0,0,1-.067-.026h.132L11,4.844l-.159.07c-.09-.036-.138-.08-.152-.138L10.6,4.8l.04-.086h.012a.041.041,0,0,1,.029.011.608.608,0,0,1,.017-.094l.006-.025h-.014L9.6,4.587l-.012.02a.633.633,0,0,0-.035.067h.012a.549.549,0,0,0,.157-.036A.558.558,0,0,1,9.878,4.6a.1.1,0,0,1,.1.062l-.071.015a.091.091,0,0,0,.083.07.126.126,0,0,0,.06-.018.062.062,0,0,0,.031-.04.031.031,0,0,0,0-.026l.053.019c-.031.061-.17.081-.281.1l-.045.007a.273.273,0,0,1,.04-.023c.027-.014.055-.029.061-.048a.028.028,0,0,0,0-.023,1.263,1.263,0,0,0-.154.046,1.324,1.324,0,0,1-.139.042A.31.31,0,0,0,9.686,4.7l.009-.013a.144.144,0,0,0-.048-.01.059.059,0,0,0-.044.019.114.114,0,0,1-.06.043L9.53,4.722c-.016-.021-.028-.036-.017-.053H9.508l-.005,0a.383.383,0,0,1-.246.085s.052-.05.048-.08a.023.023,0,0,0-.013-.018l-.053.019a.8.8,0,0,0-.137.13.843.843,0,0,1-.185.166.547.547,0,0,1-.345.143.383.383,0,0,0-.257.1c0,.013.024.016.044.018s.032,0,.033.011-.009.017-.033.034c0-.023-.012-.034-.032-.034a.119.119,0,0,0-.025,0,.106.106,0,0,1-.022,0,.014.014,0,0,1-.012,0,.161.161,0,0,1-.131.09.116.116,0,0,0-.091.051l0-.007c-.009-.013-.047-.013-.085-.013H7.928c-.007-.03-.028-.033-.046-.035s-.019,0-.022-.009.008-.04.047-.1a.369.369,0,0,1-.179.131.244.244,0,0,0-.175.185l.051,0-.173.038-.008,0,.008,0L7.381,5.6l-.021,0-.026,0H7.317l-.049,0a.237.237,0,0,1,.024-.057l.005,0A.316.316,0,0,0,7.351,5.5a.1.1,0,0,0-.083.017.317.317,0,0,0-.03.1l0,.01a.309.309,0,0,1-.043.111c-.019-.018-.009-.04,0-.062s.013-.029.008-.041a.038.038,0,0,0-.027-.017A.315.315,0,0,0,7.1,5.74a.648.648,0,0,1-.027.067L7.06,5.78c-.038.022-.059.043-.065.065a.078.078,0,0,0,.017.06c.009.015.017.028.012.039s-.025.022-.062.031a.056.056,0,0,1,.018.019A.045.045,0,0,0,7,6.016l-.024.008a.305.305,0,0,1-.087.022.031.031,0,0,1-.028-.011c-.008-.011-.006-.032,0-.061a.263.263,0,0,0-.062.175.224.224,0,0,0,.054-.017.07.07,0,0,1,.03-.008.111.111,0,0,1,.037.008l-.144.227s-.005,0-.007,0a.09.09,0,0,1,.02-.071.51.51,0,0,0-.232.21c-.033.043-.063.089-.092.134a.71.71,0,0,1-.391.353c.018,0,.026.006.031.013s0,.023,0,.039a.13.13,0,0,0-.009.047,1.534,1.534,0,0,0-.116.107A1.016,1.016,0,0,1,5.8,7.35l0-.049a.362.362,0,0,0-.036.058l-.009.029-.015.04-.03.075-.034.085-.02.05a.951.951,0,0,1-.126.22h0s0,0-.008-.005A.079.079,0,0,1,5.5,7.8c-.01.065-.068.106-.119.141S5.3,8,5.3,8.027a.062.062,0,0,0,.022.048l.035-.036a1.064,1.064,0,0,0-.1.163c-.015.03-.029.059-.042.09a.27.27,0,0,0-.019.052l0,.013,0,.035,0,.017v.14c0,.087,0,.156-.011.219a.053.053,0,0,1-.023.007.014.014,0,0,1-.011,0c-.009-.009-.007-.031-.005-.054V8.709a.085.085,0,0,0-.008-.058.023.023,0,0,0-.018-.007.069.069,0,0,0-.023,0,1.061,1.061,0,0,0-.046.285,1.223,1.223,0,0,1-.045.292A.054.054,0,0,0,5,9.194a.026.026,0,0,1-.006-.013c-.021.047-.03.075-.023.086a.013.013,0,0,0,.012,0l.017,0,.02,0a.021.021,0,0,1,.018.007c.008.01.008.032,0,.066a.078.078,0,0,0-.029-.008c-.018,0-.03.015-.051.051l.056.061H5.006A.093.093,0,0,1,4.94,9.42l-.006-.008.006.008a.325.325,0,0,1,.018.19c-.006.074-.012.144.022.18H4.975a.124.124,0,0,1-.043-.012l-.007,0a.143.143,0,0,0-.052-.015.034.034,0,0,0-.017,0,.273.273,0,0,0,0,.218.326.326,0,0,0-.078.155.086.086,0,0,1-.009.025c-.017.039-.022.065-.016.077s.012.009.022.011.048.011.061.071L4.9,10.2l-.02.231-.024-.1a.31.31,0,0,0-.02.16l.005.088a.36.36,0,0,1,0,.044.111.111,0,0,1,0,.026.1.1,0,0,1,.021-.008.057.057,0,0,0,.031-.019.046.046,0,0,0,0,.024.026.026,0,0,1,0,.008l0,.006a.043.043,0,0,1,.005.012l.011.042c-.045.008-.052.048-.058.08s-.008.046-.028.046a.1.1,0,0,1-.045-.019.856.856,0,0,0,.048.4,1.22,1.22,0,0,1,.055.251c0-.014-.012-.015-.021-.015a.033.033,0,0,1-.014,0,.414.414,0,0,0,.086.3.122.122,0,0,1-.032-.027c-.011-.012-.021-.022-.035-.022a.3.3,0,0,0,.008.076.051.051,0,0,0,.031.026.048.048,0,0,1,.024.015.443.443,0,0,1,.054.1.082.082,0,0,0-.043-.02.018.018,0,0,0-.013.005.066.066,0,0,0-.01.046.039.039,0,0,1,.017,0c.027,0,.054.029.068.053a.185.185,0,0,0-.066-.016c-.052,0-.052.052-.052.095s0,.1-.048.1l-.023,0-.007,0,.008,0a.348.348,0,0,1,.069.067l.018.02c.042.046.085.089.118.089a.034.034,0,0,0,.025-.011,1.286,1.286,0,0,1,.1.292l.037.154.018.076.008.025.014.012.011.009.066.066a.225.225,0,0,1-.038-.017.174.174,0,0,0-.055-.022.008.008,0,0,0-.008,0s0,.013.005.026a1.2,1.2,0,0,0,.334.34,2.627,2.627,0,0,1,.208.172.046.046,0,0,1-.033.015c-.036,0-.077-.048-.115-.094s-.085-.1-.125-.1a.048.048,0,0,0-.027.009c.1.109.209.222.322.335l.043.042c.042.042.086.085.132.125l.194.158c-.032.1.038.154.119.211a.338.338,0,0,1,.177.238.038.038,0,0,1,.034-.02c.035,0,.09.04.155.113a.028.028,0,0,0-.021.009c-.008.01,0,.028,0,.044s.007.029,0,.036a.016.016,0,0,1-.013,0c.081.034.237.16.248.244a.056.056,0,0,1-.023.055.067.067,0,0,1,.034-.01c.037,0,.067.037.1.077s.074.092.127.093a.487.487,0,0,0,.138.154.683.683,0,0,1,.149.159c0-.017.01-.025.02-.025a.112.112,0,0,1,.053.032l0,0,.053.049c.007.007.008.007.009.007l.005,0a.025.025,0,0,0-.012.009.035.035,0,0,0-.007.018s0,0,0,0l.008,0,.032.007.029.007a.189.189,0,0,1,.114.055.038.038,0,0,1,0,.042c-.008.014-.015.027.015.048.005-.009.019-.013.04-.013a.362.362,0,0,1,.27.138.055.055,0,0,0-.028-.009.072.072,0,0,0-.026.006.117.117,0,0,1-.027.008,1.984,1.984,0,0,1,.294.13c.042.022.087.047.141.08l.07.041.033.021.007,0,.046.016.078.026c.051.017.1.034.157.049a1.834,1.834,0,0,0,.324.062l-.1.057a.224.224,0,0,0,.137.069.162.162,0,0,0,.093-.039A.184.184,0,0,1,9.311,16.24Z" fill="#f6f5f1"/>
  </g>
</svg>
