<svg xmlns="http://www.w3.org/2000/svg" width="30" height="45" viewBox="0 0 30 45">
  <g id="Highlighted_Ability" data-name="Highlighted Ability" transform="translate(-0.456 0)">
    <path id="Fill_1" data-name="Fill 1" d="M3.713,45h0l-.1-.022-1.675-.25L.624,43.638,0,42.084l.023-1.676.216-.447,1.3-1.569,1.982-.4.431-.009,0-.014,1.489-.049,1.595.115,1.595-.247,1.6-.187,1.561-.3,1.507-.5,1.53-.433,1.461-.633,1.291-.884L18.9,34.04l1.319-.806,1.13-1.056,1.013-1.172.942-1.226.823-1.319.711-1.384.523-1.48.463-1.493.382-1.533.3-1.558.031-1.6.008-1.6-.228-1.6L26.2,14.584l-.4-1.795-.61-1.733-.737-1.679-.9-1.594-.839-1.629-1.051-1.5-.886-1.569-.243-.7L20.561,2l.815.491,1.237,1.2,1.219,1.229,1.09,1.348,1.012,1.41.824,1.53.83,1.524.6,1.629.606,1.622.473,1.751.536,1.747.2,1.83-.015,1.837L29.872,23l-.187,1.834L29.4,26.685,28.9,28.5l-1.436,2.2-.142,1.274-.958,1.7L25.279,35.3l-1.416,1.406L22.5,38.157l-1.641,1.167L19.182,40.43l-1.364.861-1.434.741-1.482.635-1.475.671-1.58.358-1.941.555L7.917,44.6l-2.02.233L3.713,45ZM15.774,30h0l-1.489-.122-.866-.535-.45-.882.022-1.309.563-1.339.607-.773.706-.747,1.156-1.723,1.055-1.756.746-1.924.24-2.041-.006-2.065-.14-2.1-1.086-2.027L15.722,8.681,14.288,6.843,12.516,5.257l-1.891-1.52L8.92,2.912,7.2,2.142,5.413,1.559l-1.838-.37L2.284.85,1.32.383,1,.193,1.7.026,3.383,0l1.68.136L6.7.566,8.325.986l1.591.556,1.574.62,1.2.635,1.125.769,1.112.8,1.091.832L17,6.158l.832,1.108.919,1.022.756,1.154.746,1.16.522,1.282.433,1.3.365,1.322.311,1.331L22,17.2l-.013,1.352L21.851,19.9l-.3,1.744-.51,1.695L20.21,24.9l-1.292,2.256-.608,1.187-.977,1.04-.7.4L15.774,30Z" transform="translate(0.456)" fill="#e2decb"/>
  </g>
</svg>
