<svg xmlns="http://www.w3.org/2000/svg" width="30" height="50" viewBox="0 0 30 50">
  <path id="Fill_1" data-name="Fill 1" d="M19.787,50v0l-.525-2.783L18.8,44.251l-.336-2.98L18.07,38.3l-.435-2.937L16.33,32.873l-1.581-2.367-1.312-2.524-1.525-2.4-1.251-2.56L9,20.623l1.418-2.507.958-2.629.913-2.647,1.426-2.432,1.018-2.6.879-2.662,1.122-2.562L18,0l.46,2.923.9,2.756.43,2.862.861,2.764.712,2.8L21.774,17l1.9,2.244,1.444,2.515,1.509,2.47,1.741,2.32L30,28.961,28.829,31.68,27.55,34.33l-1.409,2.588-1.335,2.623-1.171,2.7-1.168,2.7-1.424,2.584L19.789,50ZM13,43h0l-2.579-.543-2.479-.95-2.508-.758-1.44-2.63L2.7,35.393,1.25,32.742,0,30l2.789,1.679,3.005,1.285,2.794,1.685,3.046,1.366L12.06,39.6,13,43Z" transform="translate(0 0)" fill="#bd9b5e"/>
</svg>
