<svg xmlns="http://www.w3.org/2000/svg" width="44" height="73.674" viewBox="0 0 44 73.674">
  <path id="Fill_1" data-name="Fill 1" d="M29.071,73.674v0l-.768-4.1L27.626,65.2l-.49-4.392-.576-4.381L25.925,52.1l-1.909-3.665L21.7,44.951l-1.918-3.718L17.558,37.7l-1.829-3.772L13.3,30.387l2.074-3.694,1.4-3.874,1.336-3.9L20.2,15.335,21.685,11.5l1.285-3.923L24.611,3.8,26.452,0l.672,4.307,1.309,4.06.629,4.218,1.259,4.072,1.04,4.126.614,4.262,2.783,3.307,2.111,3.7,2.207,3.64,2.545,3.419L44,42.674,42.288,46.68l-1.869,3.9L38.359,54.4l-1.951,3.866L34.7,62.243l-1.708,3.981-2.081,3.807-1.835,3.641ZM19.442,63.442h0l-3.858-.812-3.707-1.421L8.124,60.074,5.971,56.142,4.036,52.067,1.87,48.1,0,44l4.172,2.511,4.494,1.922,4.179,2.52L17.4,53l.638,5.366,1.406,5.079Z" transform="translate(0 0)" fill="#bd9b5e"/>
</svg>
