<svg xmlns="http://www.w3.org/2000/svg" xmlns:xlink="http://www.w3.org/1999/xlink" width="26" height="27" viewBox="0 0 26 27">
  <defs>
    <clipPath id="clip-path">
      <path id="Clip_2" data-name="Clip 2" d="M0,0H26V27H0Z" transform="translate(0.2)" fill="none"/>
    </clipPath>
  </defs>
  <g id="Structure_Icon" data-name="Structure Icon" transform="translate(-0.2)">
    <path id="Clip_2-2" data-name="Clip 2" d="M0,0H26V27H0Z" transform="translate(0.2)" fill="none"/>
    <g id="Structure_Icon-2" data-name="Structure Icon" clip-path="url(#clip-path)">
      <path id="Fill_1" data-name="Fill 1" d="M8.667,27H0a27.368,27.368,0,0,0,2.167-6.128,27.77,27.77,0,0,0,.722-8.082l9.389-6.6V0h1.444V6.192l9.389,6.6a27.868,27.868,0,0,0,.723,8.082A27.108,27.108,0,0,0,26,27H17.334a16.812,16.812,0,0,1-2.709-4.262A19.962,19.962,0,0,1,13,17.061v.006a20.074,20.074,0,0,1-1.625,5.671A16.622,16.622,0,0,1,8.667,27ZM15.889,4.973h0V.711l5.778,2.131L15.89,4.973Z" transform="translate(0.2)" fill="#243746"/>
    </g>
  </g>
</svg>
