<svg xmlns="http://www.w3.org/2000/svg" width="60" height="58.824" viewBox="0 0 60 58.824">
  <path id="Xur_Icon" data-name="Xur Icon" d="M29.412,58.824A29.421,29.421,0,1,1,54.853,14.643H53.244A28.181,28.181,0,0,0,40.323,3.583,28.039,28.039,0,0,0,18.5,55.241a28.009,28.009,0,0,0,30.732-6.007,28.126,28.126,0,0,0,4.522-5.914h1.58a29.212,29.212,0,0,1-25.924,15.5Zm-.346-14.47a14.6,14.6,0,0,1-10.744-4.683,14.553,14.553,0,0,1,.9-20.587,15.007,15.007,0,0,1,1.338-1.091,13.158,13.158,0,0,0,6.062,22.946l.474-2.247a7.416,7.416,0,0,1-3.834-2.606,7.291,7.291,0,0,1-1.518-4.477,7.363,7.363,0,1,1,9.212,7.13l.469,2.218a13,13,0,0,0,2.348-.659,13.106,13.106,0,0,0,3.845-22.266,14.983,14.983,0,0,1,1.288,1.056,14.529,14.529,0,0,1,3.28,4.406A14.54,14.54,0,0,1,29.066,44.354Zm-.042-14.765h0l1.362,6.446a4.606,4.606,0,1,0-2.716-.049ZM60,39.742H50.928V36.718H60v3.023ZM60,33.7H50.928V30.671H60v3.023Zm0-6.235H50.928V18.389h3.024v6.047h3.024L57,18.4l3-.013v9.07ZM29.154,22.867a4.177,4.177,0,1,1,4.177-4.178A4.182,4.182,0,0,1,29.154,22.867Z" transform="translate(0 0)" fill="#90a4b3"/>
</svg>
