<svg xmlns="http://www.w3.org/2000/svg" xmlns:xlink="http://www.w3.org/1999/xlink" width="21.401" height="39.837" viewBox="0 0 21.401 39.837">
  <defs>
    <clipPath id="clip-path">
      <path id="Clip_2" data-name="Clip 2" d="M0,0H21.4V39.837H0Z" transform="translate(0 0)" fill="none"/>
    </clipPath>
  </defs>
  <g id="Ability_Icon" data-name="Ability Icon" transform="translate(0 0)" clip-path="url(#clip-path)">
    <path id="Fill_1" data-name="Fill 1" d="M10.421,39.829h0c-.128-1.149-.244-2.32-.356-3.452-.259-2.613-.526-5.311-.957-7.939-.414-2.525-.99-4.989-1.6-7.6-.268-1.146-.545-2.33-.809-3.529a9.351,9.351,0,0,0,3.923.964,8.4,8.4,0,0,0,4.157-1.187,126.6,126.6,0,0,0-4.043,20.5l0,.029Q10.577,38.722,10.421,39.829Zm-3.287-3.86c-.127-.479-.249-.968-.368-1.44-.266-1.061-.542-2.159-.88-3.217-.36-1.125-.778-2.21-1.221-3.359-.191-.5-.388-1.007-.58-1.524l-.584.137L0,27.39c.129-.4.241-.762.348-1.107.211-.675.393-1.258.594-1.823a9.367,9.367,0,0,1,1.4-2.706c.055.632.109,1.263.17,1.973l.057.668.249-.043,2.259-.391c1.868,2.567,2.638,7.056,2.061,12.009Zm6.928-.455h0A23.4,23.4,0,0,1,15.8,23.887l.663.12,2.2.4V21.589l.206-.054.278-.072.509,1.322,0,.011L21.4,27.32l-1.824-.363-2.134-.425a18.63,18.63,0,0,0-2.5,6.083C14.68,33.575,14.405,34.566,14.063,35.514Zm-3.4-20.92c-2.159,0-4.319-1.1-6.6-3.375l.024.1c.037.166.071.316.1.453l.005.023.1.461c.056.249.1.456.149.661l0,0-.023-.013-.026-.017-.006-.006-.02-.011-.009-.008-.014-.008,0,0-.01-.009-.01-.005-.006,0L4.3,12.824h0l0,0h0l0,0-.016-.013h0l0,0-.01-.005-.019-.015c-.068-.047-.134-.1-.2-.147A5.529,5.529,0,0,1,2.026,8.8V8.8h0V8.636a7.97,7.97,0,0,1,.26-2.613,8.554,8.554,0,0,1,7.714-6c.2-.012.4-.018.6-.018a8.6,8.6,0,0,1,8.178,5.348A6.4,6.4,0,0,1,16.848,13l.208-.911.254-1.111C15.074,13.411,12.9,14.595,10.667,14.595ZM10.644,2.5h-.131A5.67,5.67,0,0,0,4.849,7.932a5.688,5.688,0,0,0,5.773,5.346c.088,0,.177,0,.264-.006A5.435,5.435,0,0,0,16.338,7.7,5.526,5.526,0,0,0,10.644,2.5ZM10.63,11.95h0a4.488,4.488,0,0,1-3.213-1.278A3.942,3.942,0,0,1,7.529,5a4.537,4.537,0,0,1,3.106-1.166h.013a4.25,4.25,0,0,1,4.4,4.065,3.872,3.872,0,0,1-1.309,2.856A4.589,4.589,0,0,1,10.63,11.95Z" transform="translate(0 0)" fill="#fff"/>
  </g>
</svg>
