<svg xmlns="http://www.w3.org/2000/svg" xmlns:xlink="http://www.w3.org/1999/xlink" width="60" height="120" viewBox="0 0 60 120">
  <defs>
    <clipPath id="clip-path">
      <path id="Clip_2" data-name="Clip 2" d="M0,0H60V120H0Z" fill="none"/>
    </clipPath>
  </defs>
  <g id="Jora_Logo" data-name="Jora Logo" clip-path="url(#clip-path)">
    <path id="Fill_1" data-name="Fill 1" d="M29.667,120h0L0,101.948V0H23.747l-.021.021L30,6.267,36.279.021,36.258,0H60V101.948L29.668,120ZM53.175,55.355l-6,6.063v40.05l6-3.794Zm-46.274,0V97.674l6,3.794V61.419ZM29.864,90.14h0l3.676,1.923-.7-4.073,2.974-2.884-4.11-.595L29.864,80.8l-1.838,3.706-4.11.595L26.89,87.99l-.7,4.073,3.675-1.923ZM27.806,60.394v0l-1.118,3.458,3.212,3.2,3.29-3.273L32.1,60.394,34.6,62.374,37.39,59.6,32.913,55.21l8.979-.092,1.74-1.732L35.926,51.4h9.7L47.5,49.54l-7.844-1.85h9.7l3.881-3.862L36.686,43.69l.086.086-1.444,1.437-3.882,3.863L30,50.513l-1.444-1.437-3.882-3.863-1.444-1.437.088-.087-16.759.139,3.882,3.862h9.805l-7.927,1.869,1.85,1.841h9.805l-3.835.99-3.952,1.019,1.718,1.71,9.082.093L22.46,59.648l2.784,2.77L27.8,60.4ZM30,37.66l-4.6,4.576L30,46.813l4.6-4.577ZM12.874,22.889l-.286.319a23.985,23.985,0,0,0-3.5,5.073l-.189.368.241.336c.511.713,1.133,1.49,1.849,2.308A21.122,21.122,0,0,0,9.86,34.924c-1.047.258-1.994.536-2.816.827l-.4.139-.052.415a24.206,24.206,0,0,0-.19,3.282l.007.671,8.846,0-.024-.7c-.005-.165-.01-.343-.01-.523a14.784,14.784,0,1,1,29.565,0c0,.155,0,.323-.009.515l-.024.7,8.849,0,.009-.671a24,24,0,0,0-.2-3.429l-.055-.415-.4-.138c-.825-.285-1.777-.558-2.83-.81a21.077,21.077,0,0,0-1.565-4.549c.669-.856,1.25-1.67,1.727-2.42l.221-.349-.21-.356a23.724,23.724,0,0,0-3.783-4.858l-.3-.3-.4.142c-.817.286-1.728.663-2.709,1.119a20.739,20.739,0,0,0-3.1-2.13c.058-1.082.07-2.081.033-2.969L40.02,17.7l-.382-.173a23.53,23.53,0,0,0-5.86-1.78l-.422-.07-.247.348c-.509.717-1.04,1.557-1.579,2.5-.5-.037-1.01-.057-1.516-.057a20.374,20.374,0,0,0-2.444.148c-.582-.918-1.151-1.734-1.692-2.428l-.262-.337-.419.089a23.472,23.472,0,0,0-5.771,2.033l-.373.189v.417c0,.888.057,1.889.164,2.977a20.539,20.539,0,0,0-3.168,2.422c-1-.4-1.93-.722-2.765-.963l-.412-.12Z" fill="#f6f5f1"/>
  </g>
</svg>
