<svg id="Group_3" data-name="Group 3" xmlns="http://www.w3.org/2000/svg" xmlns:xlink="http://www.w3.org/1999/xlink" width="59.946" height="119.915" viewBox="0 0 59.946 119.915">
  <defs>
    <clipPath id="clip-path">
      <path id="Clip_2" data-name="Clip 2" d="M0,0H59.946V119.915H0Z" fill="none"/>
    </clipPath>
  </defs>
  <path id="Clip_2-2" data-name="Clip 2" d="M0,0H59.946V119.915H0Z" fill="none"/>
  <g id="Group_3-2" data-name="Group 3" clip-path="url(#clip-path)">
    <path id="Fill_1" data-name="Fill 1" d="M25.972,110.259c2.843-3.648,3.341-7.552,2.741-12.445-1.638-13.356-2.722-26.867-4.806-40.085-1.465-9.3.483-15.336,6.249-19.583,6.069,4.645,7.544,11.167,6.138,20.2-1.967,12.626-3.036,25.512-4.661,38.246-.7,5.489-.476,10.031,2.945,14.093,1.714,2.035,2.355,5.78,3.663,9.231,6.334-7.11,12.57-14.092,18.786-21.106,1.017-1.147,1.948-2.436,2.919-3.66l-.658-1.225-12.575,7.393c1.753-4.335,2.66-6.432,3.46-8.6.708-1.92,1.3-3.923,1.939-5.889l-.833-.67-8.6,9.824c-3.8-11.369-4.082-13.512-2.857-23.9,1.142-9.69,2.4-19.355,3.414-27.519-1.7-3.127-3.277-5.021-3.913-7.393-2.4-8.937-4.478-18.035-6.7-27.063C31.964,7.42,31.24,4.77,30,0c-1.251,5.416-1.945,8.563-2.7,11.679q-3.086,12.685-6.236,25.34a11.941,11.941,0,0,1-1.529,4.045,8,8,0,0,1-2.676,1.809c1.289,10.878,2.286,21.255,3.808,31.485,1.151,7.732-.465,14.342-2.871,21.665L8.312,85.7l-.664.865,5.833,14.72L.551,93.782Q.276,94.466,0,95.149l21.9,24.725c1.525-3.745,2.324-7.377,4.069-9.615" transform="translate(0 0)" fill="#f6f5f1"/>
  </g>
</svg>
