<svg xmlns="http://www.w3.org/2000/svg" xmlns:xlink="http://www.w3.org/1999/xlink" width="120" height="180.001" viewBox="0 0 120 180.001">
  <defs>
    <filter id="Q_Rath_Logo" x="0" y="0" width="120" height="180.001" filterUnits="userSpaceOnUse">
      <feOffset dy="2" input="SourceAlpha"/>
      <feGaussianBlur stdDeviation="10" result="blur"/>
      <feFlood flood-color="#f6f5f1"/>
      <feComposite operator="in" in2="blur"/>
      <feComposite in="SourceGraphic"/>
    </filter>
  </defs>
  <g transform="matrix(1, 0, 0, 1, 0, 0)" filter="url(#Q_Rath_Logo)">
    <path id="Q_Rath_Logo-2" data-name="Q&apos;Rath Logo" d="M27.8,120h0a19.073,19.073,0,0,1-6.641-6.961,26.372,26.372,0,0,1-2.725-8.313c-.085-.479-.236-2.611-.445-5.562-.566-7.994-1.514-21.371-2.673-23.987-1.459-3.293-3.462-6.567-8.194-8.212a13.677,13.677,0,0,0,3.624-8.088,15.436,15.436,0,0,1-.5-2.249,25.616,25.616,0,0,1-6.875,1.624c-.362-.453-.723-.871-1.105-1.313C1.617,56.183.877,55.326,0,54.131a54.266,54.266,0,0,0,16.279-7.175c4.182-2.572,7.485-4.6,13.721-4.6,6.349,0,9.721,2.04,13.989,4.623A58.6,58.6,0,0,0,60,54.131c-.877,1.195-1.617,2.052-2.27,2.808-.383.443-.743.861-1.105,1.314a25.618,25.618,0,0,1-6.875-1.625,15.283,15.283,0,0,1-.5,2.249,16.36,16.36,0,0,0,3.625,8.088c-4.734,1.645-6.736,4.918-8.195,8.212-1.158,2.614-2.106,15.983-2.672,23.971-.21,2.96-.361,5.1-.447,5.578a26.358,26.358,0,0,1-2.724,8.313A19.055,19.055,0,0,1,32.2,120l0-53.872A27.4,27.4,0,0,1,36.689,63.4c3.39-1.765,6.9-3.59,8.436-8.649-1.018-.453-2.042-1-3.127-1.577-.49-.261-.995-.53-1.507-.795a11.063,11.063,0,0,1-20.875-.055c-.553.284-1.095.573-1.619.853-1.084.578-2.106,1.123-3.122,1.575,1.54,5.059,5.046,6.884,8.435,8.649A27.4,27.4,0,0,1,27.8,66.127V120Zm3.31-71.766a25.841,25.841,0,0,0-7.585,1.22c.995,2.744,4.142,4.662,7.654,4.662,3.489,0,6.63-1.9,7.64-4.624A25.917,25.917,0,0,0,31.115,48.236Zm25.726,0h0a8.389,8.389,0,0,1-3.125-1.4.058.058,0,0,1,0-.066c3.872-4.646.288-8.319-4.25-12.968-3.021-3.1-6.445-6.6-8.454-11.142a28.553,28.553,0,0,1-1.972-7.392,17.448,17.448,0,0,1,.6-8.2c.331-.84.506-1.183.6-1.183a.043.043,0,0,1,.031.014,5.1,5.1,0,0,1,.07,1.606c-.044,2.582-.135,7.956,2.051,12.261,2.349,4.626,4.4,6.435,7.789,9.433,1.9,1.682,4.273,3.776,7.363,6.962a8,8,0,0,1,2.439,6.159,8.442,8.442,0,0,1-3.051,5.9A.154.154,0,0,1,56.841,48.236Zm-51.328,0a.154.154,0,0,1-.093-.021,8.442,8.442,0,0,1-3.051-5.9,8,8,0,0,1,2.439-6.159c3.09-3.187,5.459-5.28,7.363-6.962,3.393-3,5.441-4.807,7.79-9.433,2.187-4.305,2.1-9.679,2.051-12.262a5.1,5.1,0,0,1,.07-1.605.043.043,0,0,1,.031-.014c.1,0,.272.343.6,1.183a17.448,17.448,0,0,1,.6,8.2,28.553,28.553,0,0,1-1.972,7.392C19.329,27.2,15.905,30.7,12.885,33.8c-4.538,4.649-8.122,8.322-4.25,12.968a.058.058,0,0,1,0,.066A8.386,8.386,0,0,1,5.512,48.236Zm44.345-3.53h0c-6.4-3.958-12.74-11.776-12.8-11.854-2.191-3.1-3.659-9.387-4.028-17.243C32.713,8.969,33.293,2.689,34.4.674c.254-.46.421-.674.528-.674a.078.078,0,0,1,.058.027,8.786,8.786,0,0,1-.024,2.859c-.3,4.221-.92,13.006,1.94,20.727,2.135,5.764,5.944,9.166,9,11.9,3.473,3.1,5.982,5.343,3.947,9.192Zm-39.714,0h0c-2.035-3.849.474-6.09,3.946-9.192,3.061-2.734,6.87-6.136,9-11.9,2.86-7.721,2.239-16.506,1.94-20.728A8.785,8.785,0,0,1,25.01.027.078.078,0,0,1,25.068,0c.106,0,.274.214.528.674,1.111,2.015,1.691,8.3,1.379,14.933-.369,7.857-1.837,14.142-4.029,17.243-.063.079-6.4,7.9-12.8,11.854Z" transform="translate(30 28)" fill="#243746"/>
  </g>
</svg>
