<svg xmlns="http://www.w3.org/2000/svg" width="120" height="117.256" viewBox="0 0 120 117.256">
  <path id="Shael_Icon" data-name="Shael Icon" d="M58.628,117.256A58.694,58.694,0,0,1,0,58.628a58.465,58.465,0,0,1,18.183-42.4,6,6,0,0,1,9.372-7.289,58.57,58.57,0,0,1,81.787,20.254h-3.208A56.171,56.171,0,0,0,80.376,7.142a55.819,55.819,0,0,0-51.322,4.067,6,6,0,0,1-9.036,7.03c-.319.3-.614.592-.9.879a55.876,55.876,0,1,0,88.036,67.233H110.3a59.153,59.153,0,0,1-9.326,12.9,57.935,57.935,0,0,1-26.5,15.868A59.381,59.381,0,0,1,58.628,117.256ZM28.286,91.206c-.643,0-1.294-.014-1.933-.041l.242-5.58c.538.023,1.09.036,1.639.036A31.132,31.132,0,0,0,42.41,82.436a29.16,29.16,0,0,1-6.849-6.483,42.312,42.312,0,0,1-7.224.608c-.643,0-1.31-.014-1.981-.042l.237-5.58c.556.024,1.124.036,1.692.036a38.12,38.12,0,0,0,4.116-.22,29.165,29.165,0,0,1-1.458-21.061A13.651,13.651,0,1,1,50.308,30.516a29.077,29.077,0,0,1,8.391-1.23,29.579,29.579,0,0,1,4.069.284c.031-.364.051-.542.064-.66a3.383,3.383,0,0,0,.017-.591c0-.343-.012-.982-.012-2.308h5.585v.044c-.05,1.469-.106,3.135-.171,4.839a29.076,29.076,0,1,1-20,54.6,33.3,33.3,0,0,1-9.283,4.269A38.752,38.752,0,0,1,28.286,91.206ZM68,36.647h0c-.408,7.968-1.14,17.208-3.475,25.33A47.42,47.42,0,0,1,60.228,72.4a39.256,39.256,0,0,1-6.922,8.945,23.758,23.758,0,0,0,5.394.618A23.617,23.617,0,0,0,68,36.647Zm-9.445,24.64a37.267,37.267,0,0,1-4.783,5.624,33.672,33.672,0,0,1-12.348,7.534c.2.212.387.411.582.607a23.667,23.667,0,0,0,5.454,4.075c.5-.417.992-.853,1.453-1.3C53.1,73.817,56.348,68.251,58.552,61.287ZM35.814,52.514a23.7,23.7,0,0,0-.725,5.842,23.446,23.446,0,0,0,1.853,9.189c.3.72.651,1.436,1.029,2.129A28.269,28.269,0,0,0,49.9,62.88c6.319-6.057,10.437-15.439,12.24-27.886a23.873,23.873,0,0,0-9.063.422,13.659,13.659,0,0,1-17.267,17.1h0Zm4.251-21.043a8.067,8.067,0,1,0,8.066,8.067A8.076,8.076,0,0,0,40.064,31.471ZM120,79.341H101.554V73.193H120V79.34Zm0-12.3H101.554V60.895H120v6.148Zm0-12.005h-6.148v-12.3H107.7l-.052,12.271-6.1.027V36.592H120V55.038Z" transform="translate(0 0)" fill="#f6f5f1"/>
</svg>
