<svg xmlns="http://www.w3.org/2000/svg" width="25" height="50.002" viewBox="0 0 25 50.002">
  <path id="Q_Rath_Logo" data-name="Q&apos;Rath Logo" d="M11.586,50h0a8.685,8.685,0,0,1-3.9-6.366c-.036-.2-.1-1.092-.186-2.326-.236-3.328-.63-8.9-1.112-9.986A5.615,5.615,0,0,0,2.969,27.9a5.7,5.7,0,0,0,1.51-3.37,6.411,6.411,0,0,1-.209-.937,10.665,10.665,0,0,1-2.865.677c-.151-.188-.3-.362-.459-.546C.661,23.4.366,23.053,0,22.555a22.617,22.617,0,0,0,6.782-2.99A9.622,9.622,0,0,1,12.5,17.647a9.919,9.919,0,0,1,5.829,1.926A24.417,24.417,0,0,0,25,22.555c-.366.5-.674.855-.946,1.17-.159.184-.309.358-.46.547a10.684,10.684,0,0,1-2.865-.677,6.246,6.246,0,0,1-.208.937,6.822,6.822,0,0,0,1.51,3.37,5.614,5.614,0,0,0-3.415,3.421c-.482,1.089-.877,6.658-1.112,9.986-.087,1.234-.151,2.126-.186,2.326A8.687,8.687,0,0,1,13.416,50l0-22.447a11.428,11.428,0,0,1,1.872-1.134c1.413-.735,2.873-1.5,3.515-3.6-.428-.191-.859-.421-1.316-.664-.2-.107-.406-.217-.615-.325a4.61,4.61,0,0,1-8.7-.022c-.233.12-.461.241-.682.359-.449.24-.872.465-1.293.652.642,2.108,2.1,2.868,3.515,3.6a11.428,11.428,0,0,1,1.872,1.134V50Zm1.379-29.9a10.792,10.792,0,0,0-3.161.509,3.331,3.331,0,0,0,3.19,1.942,3.339,3.339,0,0,0,3.183-1.926A10.8,10.8,0,0,0,12.965,20.1Zm10.719,0a3.487,3.487,0,0,1-1.3-.584.024.024,0,0,1,0-.027c1.613-1.936.12-3.466-1.771-5.4a16.3,16.3,0,0,1-3.522-4.642c-.688-1.556-1.321-4.6-.573-6.5.136-.346.211-.493.251-.493a.018.018,0,0,1,.013.006,2.126,2.126,0,0,1,.029.669,11.191,11.191,0,0,0,.854,5.109,11.421,11.421,0,0,0,3.246,3.931c.793.7,1.78,1.573,3.067,2.9a3.335,3.335,0,0,1,1.016,2.567,3.518,3.518,0,0,1-1.271,2.457A.065.065,0,0,1,23.684,20.1ZM2.3,20.1a.065.065,0,0,1-.039-.009A3.518,3.518,0,0,1,.987,17.633,3.335,3.335,0,0,1,2,15.066c1.287-1.327,2.274-2.2,3.067-2.9A11.422,11.422,0,0,0,8.317,8.235a11.192,11.192,0,0,0,.854-5.109A2.126,2.126,0,0,1,9.2,2.457a.018.018,0,0,1,.013-.006c.04,0,.115.147.251.493.748,1.9.115,4.941-.573,6.5a16.3,16.3,0,0,1-3.522,4.642c-1.891,1.937-3.385,3.468-1.771,5.4a.024.024,0,0,1,0,.027A3.486,3.486,0,0,1,2.3,20.1Zm18.477-1.471h0a26.255,26.255,0,0,1-5.334-4.939C14.526,12.4,13.914,9.777,13.76,6.5c-.13-2.766.112-5.383.575-6.222.106-.191.175-.281.22-.281a.032.032,0,0,1,.024.011,3.66,3.66,0,0,1-.01,1.191,21.186,21.186,0,0,0,.808,8.636A12.149,12.149,0,0,0,19.129,14.8c1.447,1.292,2.492,2.226,1.645,3.83Zm-16.547,0h0c-.848-1.6.2-2.537,1.645-3.83A12.152,12.152,0,0,0,9.623,9.839,21.188,21.188,0,0,0,10.431,1.2a3.66,3.66,0,0,1-.01-1.191A.032.032,0,0,1,10.445,0c.044,0,.114.089.22.281.463.84.7,3.456.575,6.222-.154,3.274-.766,5.893-1.679,7.185a26.237,26.237,0,0,1-5.333,4.939Z" transform="translate(0 0)" fill="#90a4b3"/>
</svg>
