<svg xmlns="http://www.w3.org/2000/svg" xmlns:xlink="http://www.w3.org/1999/xlink" width="30" height="60" viewBox="0 0 30 60">
  <defs>
    <clipPath id="clip-path">
      <path id="Clip_2" data-name="Clip 2" d="M0,0H30V60H0Z" fill="none"/>
    </clipPath>
  </defs>
  <g id="Jora_Logo" data-name="Jora Logo" clip-path="url(#clip-path)">
    <path id="Fill_1" data-name="Fill 1" d="M14.834,60h0L0,50.974V0H11.873l-.01.011L15,3.134,18.14.011,18.129,0H30V50.974L14.834,60ZM26.588,27.678l-3,3.031V50.735l3-1.9Zm-23.138,0V48.837l3,1.9V30.709ZM14.932,45.07h0l1.838.962L16.42,44l1.487-1.443-2.056-.3L14.932,40.4l-.919,1.853-2.055.3L13.445,44l-.351,2.037,1.837-.962ZM13.9,30.2v0l-.558,1.728,1.606,1.6,1.644-1.637L16.048,30.2l1.253.99L18.695,29.8l-2.238-2.193,4.489-.047.87-.866L17.963,25.7h4.852l.934-.93-3.922-.925h4.852l1.94-1.931-8.276-.068.043.043-.722.719-1.941,1.931L15,25.257l-.722-.719-1.941-1.931-.722-.719.044-.043-8.38.068,1.94,1.931h4.9l-3.964.935.925.92h4.9l-1.918.495L8.095,26.7l.859.855,4.54.047L11.23,29.824l1.392,1.385L13.9,30.2ZM15,18.83h0l-2.3,2.288L15,23.406l2.3-2.289L15,18.83ZM6.437,11.444l-.143.159a12.032,12.032,0,0,0-1.75,2.537l-.095.184.121.168c.258.359.568.747.924,1.154a10.541,10.541,0,0,0-.564,1.816c-.523.129-1,.268-1.408.413l-.2.07-.027.207A12.1,12.1,0,0,0,3.2,19.794l0,.337,4.423,0-.012-.35c0-.1,0-.184,0-.262a7.392,7.392,0,1,1,14.783,0c0,.086,0,.172-.005.257l-.012.351,4.424,0,0-.335a12.135,12.135,0,0,0-.1-1.714l-.028-.208-.2-.068c-.412-.143-.888-.279-1.415-.4a10.5,10.5,0,0,0-.783-2.275c.335-.429.626-.836.864-1.21l.111-.174-.1-.178a11.825,11.825,0,0,0-1.892-2.429l-.152-.15-.2.071c-.406.142-.862.33-1.354.559A10.382,10.382,0,0,0,20,10.541c.03-.542.035-1.041.016-1.484l-.008-.209-.191-.086a11.771,11.771,0,0,0-2.93-.89l-.212-.035-.123.175c-.252.354-.517.774-.789,1.248-.248-.019-.5-.028-.757-.028a10.149,10.149,0,0,0-1.223.074c-.288-.455-.572-.863-.846-1.214l-.131-.168-.209.044A11.809,11.809,0,0,0,9.714,8.983l-.187.094v.209c0,.439.028.939.082,1.489a10.249,10.249,0,0,0-1.584,1.211c-.5-.2-.964-.361-1.382-.482l-.206-.059Z" fill="#bd9b5e"/>
  </g>
</svg>
