<svg xmlns="http://www.w3.org/2000/svg" width="30" height="59" viewBox="0 0 30 59">
  <g id="Group_1" data-name="Group 1" transform="translate(-27)">
    <path id="Fill_1" data-name="Fill 1" d="M21.448,0l-.14.011L21.238.005l-.463,0-.463.054L19.851.049,19.388,0l-.463.043-.463.017L18,.044l-.463.012-.463,0-.463.01-.4-.022V0l-.463.037L15.292.025,14.83.046,14.367.007H13.9l-.463.053L12.979.051l-.327.127-.6-.132-.463.017L11.129.046l-.463.012-.463,0L9.741.064,9.278.039,8.816.033,8.353.039,7.891.071,7.606.216,7.424.237,6.966.069,6.347.036,6.041.006,5.578,0,5.115.042,4.653,0,4.19.04,3.727.068l-.463,0L2.8.028,2.339.04,1.877.056,1.414.05H.952L.489.014.062.037l0,.325L0,1.584l.062.669,0,.946.026.946v.946l-.019.946.01.946L.068,7.93l.018.946H.067l-.01.808,0,.946,0,.946.006.946-.008.946.008.946.021.946L.063,16.3l0,.946.02.724.416-.018.463-.011.463-.014.463.015.463.016.463-.022.463.04.529-.7.264.475.595.17.292-.105.143-.067h.694l.259.206.463.024L6.973,18l.463-.036.463.013.463-.021.463.04h.463l.463-.054.463.008.463.048.462-.043.463-.017.463.017.463-.012.462,0,.463-.009.4.021V18l.463-.037.463.013.463-.021.463.039h.463l.462-.053.463.008.327-.127.6.132.463-.017.463.017.463-.012.463,0,.463-.009.463.025.463.006.463-.007.463-.031.336-.171h.12l.469.172.618.033.307.029.463.006.463-.042.463.04.463-.038.463-.027.463,0,.463.037.463-.012.463-.016.463.006h.463l.463.034.318-.017v-.074l-.019-.946L29.89,16l-.02-.946,0-.946.014-.627.016-1.265.1-1.1-.1-.787-.015-.946,0-.945,0-.946.012-.946,0-.946,0-.946-.006-.946L29.9,2.76l-.008-.946L29.957.592,29.9.029l-.338.015L29.1.054l-.463.014L28.178.053,27.716.037l-2.1.022L25.149.02,25.027.18h-.015l-.448.006L24.146.18,23.761.07l-.292.105-.017.008h-.079l-.6,0-.2.011-.2-.162L22.12.025,21.7.045,21.534.03,22.1.024,21.91.015Z" transform="translate(27 41)" fill="#f6f5f1"/>
    <path id="Fill_1-2" data-name="Fill 1" d="M21.448,0l-.14.011L21.238.005l-.463,0-.463.054L19.851.049,19.388,0l-.463.043-.463.017L18,.044l-.463.012-.463,0-.463.01-.4-.022V0l-.463.037L15.292.025,14.83.046,14.367.007H13.9l-.463.053L12.979.051l-.327.127-.6-.132-.463.017L11.129.046l-.463.012-.463,0L9.741.064,9.278.039,8.816.033,8.353.039,7.891.071,7.606.216,7.424.237,6.966.069,6.347.036,6.041.006,5.578,0,5.115.042,4.653,0,4.19.04,3.727.068l-.463,0L2.8.028,2.339.04,1.877.056,1.414.05H.952L.489.014.062.037l0,.325L0,1.584l.062.669,0,.946.026.946v.946l-.019.946.01.946L.068,7.93l.018.946H.067l-.01.808,0,.946,0,.946.006.946-.008.946.008.946.021.946L.063,16.3l0,.946.02.724.416-.018.463-.011.463-.014.463.015.463.016.463-.022.463.04.529-.7.264.475.595.17.292-.105.143-.067h.694l.259.206.463.024L6.973,18l.463-.036.463.013.463-.021.463.04h.463l.463-.054.463.008.463.048.462-.043.463-.017.463.017.463-.012.462,0,.463-.009.4.021V18l.463-.037.463.013.463-.021.463.039h.463l.462-.053.463.008.327-.127.6.132.463-.017.463.017.463-.012.463,0,.463-.009.463.025.463.006.463-.007.463-.031.336-.171h.12l.469.172.618.033.307.029.463.006.463-.042.463.04.463-.038.463-.027.463,0,.463.037.463-.012.463-.016.463.006h.463l.463.034.318-.017v-.074l-.019-.946L29.89,16l-.02-.946,0-.946.014-.627.016-1.265.1-1.1-.1-.787-.015-.946,0-.945,0-.946.012-.946,0-.946,0-.946-.006-.946L29.9,2.76l-.008-.946L29.957.592,29.9.029l-.338.015L29.1.054l-.463.014L28.178.053,27.716.037l-2.1.022L25.149.02,25.027.18h-.015l-.448.006L24.146.18,23.761.07l-.292.105-.017.008h-.079l-.6,0-.2.011-.2-.162L22.12.025,21.7.045,21.534.03,22.1.024,21.91.015Z" transform="translate(27 20)" fill="#f6f5f1"/>
    <path id="Fill_1-3" data-name="Fill 1" d="M21.448,0l-.14.011L21.238.005l-.463,0-.463.054L19.851.049,19.388,0l-.463.043-.463.017L18,.044l-.463.012-.463,0-.463.01-.4-.022V0l-.463.037L15.292.025,14.83.046,14.367.007H13.9l-.463.053L12.979.051l-.327.127-.6-.132-.463.017L11.129.046l-.463.012-.463,0L9.741.064,9.278.039,8.816.033,8.353.039,7.891.071,7.606.216,7.424.237,6.966.069,6.347.036,6.041.006,5.578,0,5.115.042,4.653,0,4.19.04,3.727.068l-.463,0L2.8.028,2.339.04,1.877.056,1.414.05H.952L.489.014.062.037l0,.325L0,1.584l.062.669,0,.946.026.946v.946l-.019.946.01.946L.068,7.93l.018.946H.067l-.01.808,0,.946,0,.946.006.946-.008.946.008.946.021.946L.063,16.3l0,.946.02.724.416-.018.463-.011.463-.014.463.015.463.016.463-.022.463.04.529-.7.264.475.595.17.292-.105.143-.067h.694l.259.206.463.024L6.973,18l.463-.036.463.013.463-.021.463.04h.463l.463-.054.463.008.463.048.462-.043.463-.017.463.017.463-.012.462,0,.463-.009.4.021V18l.463-.037.463.013.463-.021.463.039h.463l.462-.053.463.008.327-.127.6.132.463-.017.463.017.463-.012.463,0,.463-.009.463.025.463.006.463-.007.463-.031.336-.171h.12l.469.172.618.033.307.029.463.006.463-.042.463.04.463-.038.463-.027.463,0,.463.037.463-.012.463-.016.463.006h.463l.463.034.318-.017v-.074l-.019-.946L29.89,16l-.02-.946,0-.946.014-.627.016-1.265.1-1.1-.1-.787-.015-.946,0-.945,0-.946.012-.946,0-.946,0-.946-.006-.946L29.9,2.76l-.008-.946L29.957.592,29.9.029l-.338.015L29.1.054l-.463.014L28.178.053,27.716.037l-2.1.022L25.149.02,25.027.18h-.015l-.448.006L24.146.18,23.761.07l-.292.105-.017.008h-.079l-.6,0-.2.011-.2-.162L22.12.025,21.7.045,21.534.03,22.1.024,21.91.015Z" transform="translate(27)" fill="#243746"/>
  </g>
</svg>
