<?xml version="1.0" encoding="UTF-8"?>
<svg width="460px" height="137px" viewBox="0 0 460 137" version="1.1" xmlns="http://www.w3.org/2000/svg" xmlns:xlink="http://www.w3.org/1999/xlink">
    <title>Immortal Logo</title>
    <defs>
        <polygon id="path-1" points="0.274108421 0.0576041667 32.7794211 0.0576041667 32.7794211 49.9947569 0.274108421 49.9947569"></polygon>
        <polygon id="path-3" points="0.169401342 0.144444444 103.987576 0.144444444 103.987576 74.9752431 0.169401342 74.9752431"></polygon>
        <polygon id="path-5" points="0 0.042611451 189.983231 0.042611451 189.983231 16.3460424 0 16.3460424"></polygon>
    </defs>
    <g id="Homepage" stroke="none" stroke-width="1" fill="none" fill-rule="evenodd">
        <g id="Home_Desktop" transform="translate(-738.000000, -258.000000)">
            <g id="Immortal-Logo" transform="translate(738.000000, 258.000000)">
                <path d="M301,122.263164 L301,122.42118 L300.500834,123.120804 L300.500834,126 L300.369123,126 L299.58086,125.54622 C299.143381,125.84874 298.663888,126 298.144715,126 C297.694565,126 297.275759,125.912922 296.887629,125.738767 C296.499166,125.564987 296.165055,125.321394 295.884628,125.00874 C295.604201,124.696836 295.386796,124.323753 295.232077,123.890241 C295.077026,123.456354 295,122.99244 295,122.5 C295,122.006434 295.077026,121.543646 295.232077,121.109759 C295.386796,120.675871 295.604201,120.302413 295.884628,119.990134 C296.165055,119.678606 296.499166,119.435013 296.887629,119.260858 C297.275759,119.087078 297.694565,119 298.144715,119 C298.646549,119 299.096365,119.114853 299.493498,119.344933 L300.010003,119 L300.150383,119 L300.150383,121.336086 L300.010003,121.336086 C299.531511,120.738177 298.923975,120.442413 298.188396,120.448794 C297.942981,120.448794 297.711237,120.501716 297.491831,120.60681 C297.272758,120.712279 297.083361,120.858284 296.922307,121.045576 C296.761921,121.232869 296.637879,121.45319 296.550183,121.706166 C296.462821,121.959142 296.41914,122.224129 296.41914,122.5 C296.41914,122.775871 296.462821,123.040483 296.550183,123.293458 C296.637879,123.54681 296.761921,123.766756 296.922307,123.954424 C297.083361,124.14134 297.272758,124.288097 297.491831,124.392815 C297.711237,124.497909 297.942981,124.550831 298.188396,124.550831 C298.597199,124.550831 298.944315,124.438981 299.23041,124.215657 L299.23041,123.120804 L298.652217,122.42118 L298.652217,122.263164 L301,122.263164 Z" id="Fill-1" fill="#F7F5F1"></path>
                <path d="M307.786472,123.656939 L309.165109,123.656939 L308.48577,121.996818 L307.786472,123.656939 Z M311.437457,125.316731 L312,125.870324 L312,126 L309.378742,126 L309.378742,125.870324 L309.864407,125.351289 L309.553567,124.599232 L307.388405,124.599232 L307.067955,125.342732 L307.563229,125.870324 L307.563229,126 L305,126 L305,125.870324 L305.573262,125.308173 L308.203759,120 L308.795871,120 L311.437457,125.316731 Z" id="Fill-3" fill="#F7F5F1"></path>
                <polygon id="Fill-5" fill="#F7F5F1" points="321 120 321 121.641158 320.839813 121.641158 320.252912 121.191401 319.185451 121.191401 319.185451 125.187818 319.736792 125.867659 319.736792 126 317.254403 126 317.254403 125.867659 317.806082 125.179421 317.806082 121.191401 316.73896 121.191401 316.15172 121.641158 316 121.641158 316 120"></polygon>
                <polygon id="Fill-7" fill="#F7F5F1" points="329.847195 124.261532 330 124.261532 330 126 325 126 325 125.867331 325.599613 125.240931 325.599613 120.758733 325 120.132333 325 120 329.918762 120 329.918762 121.676668 329.756286 121.676668 328.96325 121.191335 327.174855 121.191335 327.174855 122.470667 328.698646 122.470667 329.237524 122.240931 329.379884 122.240931 329.379884 123.714734 329.237524 123.714734 328.698646 123.484998 327.174855 123.484998 327.174855 124.808665 329.196518 124.808665"></polygon>
                <path d="M339.648488,121.060214 L339.520013,121.060214 C339.360235,120.843646 339.154806,120.67437 338.903725,120.552386 C338.651993,120.430777 338.401239,120.369973 338.149833,120.369973 C337.927122,120.369973 337.745496,120.429276 337.605609,120.547882 C337.466047,120.665737 337.39594,120.813995 337.39594,120.991153 C337.39594,121.076729 337.417135,121.162306 337.460178,121.247507 C337.50322,121.333458 337.584413,121.423914 337.704084,121.518874 C337.824081,121.614209 338.03701,121.74933 338.342219,121.92311 C338.647754,122.097265 338.831662,122.200858 338.894921,122.233887 C339.248716,122.424558 339.521317,122.657641 339.713051,122.933512 C339.904133,123.209759 340,123.558445 340,123.97882 C340,124.268204 339.94261,124.537694 339.828809,124.787292 C339.714356,125.037265 339.555882,125.252332 339.353061,125.433244 C339.15024,125.61378 338.912203,125.75378 338.637646,125.852493 C338.36374,125.950456 338.075487,126 337.772561,126 C337.098883,126 336.507704,125.802949 336,125.408472 L336,123.791153 L336.128149,123.791153 C336.333578,124.034745 336.595093,124.244933 336.911714,124.422842 C337.228988,124.6 337.529958,124.688954 337.815603,124.688954 C337.970164,124.688954 338.115595,124.657426 338.252547,124.595121 C338.389826,124.532815 338.486672,124.450617 338.543409,124.348901 C338.600799,124.246434 338.629494,124.149598 338.629494,124.057641 C338.629494,123.992332 338.618081,123.914638 338.595256,123.826059 C338.572104,123.737105 338.516671,123.647024 338.427978,123.554692 C338.339284,123.462735 338.233961,123.377534 338.11103,123.298713 C337.988098,123.219893 337.675715,123.045362 337.173229,122.775871 C336.813565,122.57882 336.530529,122.338981 336.3251,122.055979 C336.119671,121.773351 336.01663,121.41866 336.01663,120.991153 C336.01663,120.748311 336.063911,120.506595 336.158148,120.266756 C336.252384,120.026542 336.388033,119.81185 336.564767,119.620804 C336.742154,119.430134 336.958996,119.279249 337.216271,119.167399 C337.472895,119.05555 337.752996,119 338.05527,119 C338.597864,119 339.126111,119.150885 339.64001,119.453029 L339.648488,121.060214 Z" id="Fill-9" fill="#F7F5F1"></path>
                <path d="M353.499814,120.448794 C353.148121,120.448794 352.813919,120.537748 352.497953,120.715282 C352.181615,120.892815 351.940826,121.145791 351.77447,121.474584 C351.608485,121.803003 351.524749,122.145308 351.524749,122.5 C351.524749,122.703432 351.557871,122.920751 351.623,123.150456 C351.688128,123.380912 351.810197,123.612493 351.989579,123.845952 C352.168962,124.079035 352.395236,124.255067 352.669148,124.373298 C352.943059,124.491528 353.219948,124.550831 353.499814,124.550831 C353.780424,124.550831 354.042426,124.497909 354.286937,124.392815 C354.531448,124.288097 354.741719,124.14134 354.917752,123.954424 C355.093413,123.766756 355.229996,123.54681 355.328247,123.293458 C355.425754,123.040483 355.474879,122.775871 355.474879,122.5 C355.474879,122.145308 355.391887,121.803003 355.22553,121.474584 C355.059174,121.145791 354.818385,120.892815 354.501675,120.715282 C354.186081,120.537748 353.851879,120.448794 353.499814,120.448794 M353.499814,119 C353.995162,119 354.458132,119.091957 354.887979,119.275871 C355.318571,119.459786 355.691477,119.712761 356.007443,120.034799 C356.323781,120.356836 356.56792,120.731796 356.740975,121.159303 C356.913658,121.586059 357,122.033083 357,122.5 C357,122.966542 356.913658,123.413566 356.740975,123.840697 C356.56792,124.268204 356.323781,124.642788 356.007443,124.964826 C355.691477,125.286863 355.31671,125.539839 354.883513,125.724129 C354.449944,125.908043 353.988835,126 353.499814,126 C353.011537,126 352.549684,125.908043 352.116487,125.724129 C351.68329,125.539839 351.308523,125.286863 350.992185,124.964826 C350.676219,124.642788 350.431708,124.268204 350.259025,123.840697 C350.086342,123.413566 350,122.966542 350,122.5 C350,122.033083 350.086342,121.586059 350.259025,121.159303 C350.431708,120.731796 350.676219,120.356836 350.992185,120.034799 C351.308523,119.712761 351.681801,119.459786 352.112021,119.275871 C352.54224,119.091957 353.004466,119 353.499814,119" id="Fill-11" fill="#F7F5F1"></path>
                <polygon id="Fill-13" fill="#F7F5F1" points="362 120 367 120 367 121.623691 366.838771 121.623691 366.054458 121.191401 364.153033 121.191401 364.153033 122.611543 365.752681 122.611543 366.215303 122.382467 366.365809 122.382467 366.365809 124.032357 366.215303 124.032357 365.752681 123.802609 364.153033 123.802609 364.153033 125.241225 364.74663 125.867659 364.74663 126 362 126 362 125.867659 362.593597 125.241225 362.593597 120.758775 362 120.132341"></polygon>
                <path d="M379.924552,122.867827 L380.536286,122.867827 C380.836163,122.867827 381.086403,122.795275 381.286663,122.651178 C381.487608,122.507418 381.588251,122.300174 381.588251,122.029446 C381.588251,121.758719 381.487608,121.551475 381.286663,121.407042 C381.086403,121.263282 380.836163,121.191401 380.536286,121.191401 L379.924552,121.191401 L379.924552,122.867827 Z M378,120 L380.599274,120 C380.922771,120 381.230179,120.044002 381.520813,120.132005 C381.81179,120.220344 382.068191,120.349997 382.289675,120.520629 C382.511844,120.691261 382.685061,120.904215 382.811379,121.160163 C382.937012,121.416112 383,121.702626 383,122.020377 C383,122.261546 382.957894,122.502715 382.874024,122.74422 C382.790155,122.985725 382.636108,123.214466 382.411201,123.432458 C382.186293,123.649779 381.90901,123.808991 381.579351,123.90875 C381.24935,124.008845 380.922771,124.058893 380.599274,124.058893 L379.924552,124.058893 L379.924552,125.240889 L380.455498,125.867659 L380.455498,126 L378,126 L378,125.867659 L378.530946,125.240889 L378.530946,120.758775 L378,120.132005 L378,120 Z" id="Fill-15" fill="#F7F5F1"></path>
                <polygon id="Fill-17" fill="#F7F5F1" points="394 120 394 120.132341 393.37746 120.679169 391.241478 123.794211 391.241478 125.187818 391.854608 125.867659 391.854608 126 389.096086 126 389.096086 125.867659 389.709216 125.179421 389.709216 123.758943 387.662437 120.714774 387 120.132341 387 120 389.788257 120 389.788257 120.132341 389.313636 120.643901 390.549683 122.558473 391.746209 120.662039 391.251264 120.132341 391.251264 120"></polygon>
                <path d="M404,125.867331 L404,126 L402.003466,126 L400.326779,123.282468 L400.326779,122.867667 L400.70364,122.867667 C400.979741,122.867667 401.21353,122.8015 401.405367,122.669167 C401.596845,122.536498 401.692225,122.32322 401.692225,122.029333 C401.692225,121.752911 401.587163,121.544335 401.377039,121.402933 C401.166557,121.261867 400.901213,121.191335 400.581008,121.191335 L400.015897,121.191335 L400.015897,125.249664 L400.59033,125.867331 L400.59033,126 L398,126 L398,125.867331 L398.555788,125.240931 L398.555788,120.758733 L398,120.132333 L398,120 L400.731967,120 C401.058268,120 401.375605,120.036946 401.682902,120.110502 C401.990558,120.184057 402.265583,120.298925 402.507261,120.454433 C402.749298,120.610278 402.940776,120.811464 403.081695,121.058665 C403.222973,121.305867 403.293611,121.588334 403.293611,121.906068 C403.293611,122.317846 403.169904,122.666144 402.921771,122.951299 C402.673997,123.236789 402.342318,123.417488 401.928166,123.494066 L403.227993,125.16133 L404,125.867331 Z" id="Fill-19" fill="#F7F5F1"></path>
                <polygon id="Fill-21" fill="#F7F5F1" points="413.847582 124.261532 414 124.261532 414 126 409 126 409 125.867331 409.6 125.240931 409.6 120.758733 409 120.132333 409 120 413.918762 120 413.918762 121.676668 413.756286 121.676668 412.96325 121.191335 411.174855 121.191335 411.174855 122.470667 412.699033 122.470667 413.237911 122.240931 413.379884 122.240931 413.379884 123.714734 413.237911 123.714734 412.699033 123.484998 411.174855 123.484998 411.174855 124.808665 413.196905 124.808665"></polygon>
                <g id="Group-25" transform="translate(427.000000, 61.000000)">
                    <mask id="mask-2" fill="white">
                        <use xlink:href="#path-1"></use>
                    </mask>
                    <g id="Clip-24"></g>
                    <polygon id="Fill-23" fill="#F7F5F1" mask="url(#mask-2)" points="32.2587505 35.4898958 32.7794558 32.9471875 29.3318242 34.7940625 26.1864032 36.9086458 22.6908347 36.7555208 19.6072453 36.9121181 15.1553716 36.8701042 15.11994 32.4280903 15.3498979 25.9773958 15.3922768 22.8461458 15.1748242 19.6454514 15.2151189 16.3968403 15.3669189 13.2357292 15.0588032 10.0485764 15.1327926 6.7753125 15.4249295 3.30725694 16.9856558 0.348576389 15.54894 0.487465278 15.5107295 0.348923611 10.3161821 0.209340278 6.95330842 0.311076389 3.43377158 0.316631944 0.843445263 0.0576041667 0.274108421 0.0964930556 0.628424211 0.658645833 2.08876105 3.33746528 1.87651895 6.69024306 1.95120316 9.69684028 1.87721368 12.8117708 1.89110842 15.8367708 1.87026632 18.8596875 2.11099263 21.9461458 1.93974 25.0103819 2.14468737 28.0645486 1.98698211 31.1909375 2.02345579 37.2496181 2.18046632 40.3093403 2.02658211 43.3860764 2.10508737 46.7214931 0.660034737 49.4673264 0.334203158 49.9319097 3.73285579 49.9947569 6.52639263 49.9180208 9.39739263 49.7273958 11.3169505 49.5121181 11.9727821 49.1100347 13.9222137 47.4968403 16.5267821 48.6746181 17.3055821 48.8690625 18.3396979 48.0937153 19.9910874 46.7492708 22.52514 49.2819097 23.8281189 49.6468403 28.4672242 49.7669792 29.0761611 47.6343403 30.0189189 44.6885069 30.5503926 41.5475347"></polygon>
                </g>
                <polygon id="Fill-26" fill="#F7F5F1" points="410.81543 110.967954 414.168497 111 417.509943 110.857882 419 110.848129 418.365027 109.634902 416.915118 106.699891 415.599741 103.675358 414.378747 100.740346 412.662241 97.8391222 411.498651 94.9065486 409.77475 91.9795482 408.709417 89.0246815 407.022494 86.2105394 405.646191 83.2741342 404.397022 80.312301 402.733343 77.4434713 400.150836 71.5351314 398.55407 68.5861863 397.407033 65.6086783 395.550009 62 395.129159 62.742287 393.819416 65.6511744 390.972073 71.5278165 389.633452 74.449592 388.348362 77.5221935 386.790688 80.3384256 385.442206 83.2480096 382.446244 89.0239849 381.194611 92.0603603 378.265211 97.8485271 375.584447 103.859624 373.917598 106.606539 372.562777 109.491391 372 110.877389 373.566479 110.97283 376.902994 110.813645 380.353967 110.76871 381.542209 110.824791 383.856709 110.976662 385.155534 111 387.359804 111 386.867462 110.142765 385.81516 108.022144 388.920648 100.965715 390.368444 98.2289013 391.770104 95.4868631 393.132321 92.7253185 395.507396 87.3746517 398.137798 92.7159136 399.406688 95.6498806 400.743901 98.446258 402.17127 101.214769 405.486303 107.975468 404.79639 109.444367 404.154021 110.980145 406.271303 110.964471 407.700081 110.892018 409.770171 111"></polygon>
                <polygon id="Fill-28" fill="#F7F5F1" points="377 61.4192115 373.870541 61.3494586 370.339256 61.2085647 367.221057 61.0433787 364.16373 61 361.137719 61.0281094 359.81507 61.1478345 355.276053 61.1908662 351.652932 61.1318712 349.771879 61.2366741 348.659996 61.2325097 345.522093 61.1290949 342.468636 61.1575514 340.287093 61.0978623 337 61 337.297675 66.2488201 337 69.8419628 337.018297 73.3261383 337.115411 77.1549139 338.811384 76.0930039 340.349021 74.8280816 342.444006 74.844392 345.504851 74.7184203 348.68533 74.7912965 349.982644 74.8645197 350.000941 76.7558301 350.28982 79.8624375 350.328173 82.9228901 350.220151 86.0374792 350.207836 89.0625347 350.103333 92.1573431 350.132186 95.1685175 350.036127 101.269642 350.269764 104.356122 350.071665 107.758051 348.256059 110.924695 348.97632 110.990977 351.537874 110.793865 355.293998 110.706413 358.937527 111 362.469867 110.982301 365.616216 110.74771 365.343171 110.304553 363.992725 107.697321 364.07858 104.397071 363.846351 101.339742 364.009263 95.1931566 363.881889 92.1743476 363.95578 89.0372016 364.135581 85.9385758 364.129951 82.946141 363.930094 79.9131038 363.975484 76.8061494 364.057468 74.9373959 364.224954 74.9443365 367.313245 75.0342171 370.371628 75.0005552 373.663647 75.1216685 376.925757 77.9027624 376.977833 75.9757079 376.989444 73.3750694 376.919424 66.2307746"></polygon>
                <path d="M317.7061,82.1279069 C316.769858,83.8934353 315.220288,84.6130724 315.220288,84.6130724 L313.03118,81.6357433 L311.495239,79.370747 L310.081615,77.0633169 L307.293857,73.2978303 C307.293857,73.2978303 308.252116,73.3089605 309.340729,73.2978303 C309.94532,73.2919174 312.71211,73.2731352 313.315303,73.3200907 C314.032075,73.3764374 315.489733,73.5941719 316.125777,73.9284258 C316.783138,74.2738099 317.76656,75.471698 318.124771,76.1200323 C318.480536,76.7631493 318.942541,78.2173798 318.908642,78.9509297 C318.869851,79.798912 318.104152,81.3773139 317.7061,82.1279069 L317.7061,82.1279069 Z M333.387022,110.109236 L331.641746,107.39138 L327.990087,102.203662 L325.756246,99.133465 L323.662544,96.0691812 L323.696443,95.4076298 L327.452246,92.4435177 L329.43097,90.1277399 L331.12732,87.6860518 L332.19077,84.8485458 L333.063758,82.0263438 L333.144486,79.0938833 L332.759715,76.0181214 L332.194615,73.0873999 L331.01374,70.3159795 L329.552937,67.6603827 L327.596579,65.3866911 L325.275718,63.4656877 L322.559602,61.9613712 L319.955668,61.3154717 L317.17455,61.0424339 L314.220092,61.1547794 L311.146114,61 L308.205286,61.0497381 L305.2033,61.1499099 L302.146796,61.1655618 L299.131181,61.3735574 L296.03903,61.2386037 L293,61.1679965 L294.693553,64.3856685 L294.631696,66.3971048 L294.86235,69.7469479 L294.853263,75.7196928 L296.794944,78.1909456 L298.545811,81.0649726 L300.576957,83.851697 L301.763772,85.7104408 L297.41596,85.5967041 L294.987462,85.6808762 L294.836489,87.756659 L294.735141,94.2723491 L294.946573,100.865603 L294.748071,104.213359 L294.67573,107.723547 L293,110.80383 L296.54472,110.895654 L299.483801,110.710267 L302.561273,110.73218 L305.418227,110.951653 L308.643527,110.689398 L308.475081,110.428186 L307.063204,107.93502 L306.969195,104.724305 L306.937043,101.438113 L307.061456,97.8726218 L310.629591,98.112269 L312.821146,101.124032 L314.307111,103.829715 L316.078598,106.343749 L317.123876,107.929803 L315.473308,110.80383 L318.696861,110.751657 L323.24632,110.690093 L326.226988,110.923132 L329.260776,110.682094 L332.299108,111 L334,110.85809 L333.387022,110.109236 Z" id="Fill-30" fill="#F7F5F1"></path>
                <polygon id="Fill-32" fill="#F7F5F1" points="177.528655 110.639434 178 110.670577 176.495723 107.963563 176.113926 104.668985 175.876519 101.541887 175.472162 98.4341673 175.349987 95.3430569 175.036567 92.3419149 174.195227 83.092806 174.073052 79.9442541 173.788093 76.9313471 173.673901 73.8571923 173.108495 70.7698882 172.857898 67.6870826 172.491374 64.2008028 174.231324 61.3934392 173.738459 61.4235441 171.040548 61.0622859 170.051001 61 168.155209 61.1429115 165.1949 61.158137 162.134282 61.4138552 159.102125 61.1359909 157.259438 61.2103879 157.255967 61.3654106 156.01617 61.2827087 153.587599 61.0564033 152.988526 61.0799336 153.452582 61.7768435 154.807611 64.4838576 153.001021 67.6244507 149.642255 73.9571958 148.182405 76.3635074 146.803426 79.0324579 144.284265 82.9222118 141.891096 78.9815911 140.304559 76.6071144 138.788134 74.0603135 134.576574 67.6040347 133.042447 64.5025433 134.684171 61.4453441 134.157292 61.4823696 132.01958 61.3778677 131.901917 61.4719887 128.524408 61.3141977 125.530778 61.4533029 122.524653 61.3245787 119.502909 61.4058964 116.492619 61.1453337 114.58225 61.1505242 114.217808 61.3470708 113.371608 61.3612582 115.051859 64.4015018 114.968558 67.8850133 114.655138 70.9508634 114.444109 73.9879927 114.169562 77.2085193 113.56563 80.1805945 113.325793 83.1834666 112.953368 89.7511679 113.290737 92.1076508 115.330223 95.6659054 113.086302 96.7846292 112.997101 99.2092806 111.826375 101.634278 111.714612 104.649261 111.400845 108.008893 110 110.70518 110.370689 110.665386 113.064436 110.978546 115.990384 111 118.903836 110.82906 121.967578 110.841517 124.948019 110.980622 127.062823 110.863663 127.481757 110.777847 128.04161 110.797571 127.685498 110.245649 126.550175 107.621682 126.875743 104.519153 126.75218 101.532198 127.200617 98.5085643 127.499806 95.6897817 127.508483 92.6869096 127.796219 89.7567044 128.66845 84.2122219 132.156679 88.9750164 133.472835 91.0467144 139.370547 101.365065 140.689479 103.99872 143.893444 109.263262 144.979828 110.9782 145.707671 109.482646 148.767941 103.55303 151.069826 98.811689 153.230793 94.1302121 154.748259 92.0484792 155.924539 89.5913007 159.589783 84.1239835 159.822679 90.9280252 160.312767 94.2388664 160.483534 97.532406 161.169379 104.129866 161.211029 106.505035 161.222136 107.710959 159.799771 110.236306 159.552645 110.732863 160.452643 110.703104 162.824292 110.78719 165.850201 110.738399 168.871598 110.744628 171.860369 110.910724 174.787011 110.689609"></polygon>
                <polygon id="Fill-34" fill="#F7F5F1" points="100.528655 111.63283 101 111.664543 99.4957227 108.907948 99.1139264 105.553028 98.8765185 102.368656 98.4721615 99.2040156 98.3499867 96.0562895 97.1639886 88.8746252 97.1952265 83.5816671 97.0733988 80.3754474 96.7880929 77.3073569 96.6739011 74.1768969 96.1084955 71.0330468 95.8578983 67.8937776 95.4913739 64.3436442 97.2313236 61.4848619 96.7384593 61.5155181 94.040548 61.1476433 93.0513485 61.0842166 91.1555565 61.2297456 88.1952469 61.2452499 84.7580392 61 82.1024725 61.2226982 80.2594377 61.2984579 80.2559668 61.4563199 79.0165173 61.3721033 76.5875988 61.141653 75.9888728 61.1656142 76.4525817 61.8752885 77.8076114 64.6318833 76.0010208 67.8299985 72.6422548 74.278732 71.1824047 76.7291169 69.803773 79.446951 67.2842647 83.4079484 64.8914433 79.3951525 63.3049062 76.9771857 61.7881337 74.3837384 57.5765736 67.8092086 56.0424468 64.6509113 57.6845179 61.5377175 57.1572919 61.5754211 55.0195798 61.4690052 54.9019171 61.56485 42.5029094 61.4975472 39.4929664 61.2322122 37.5825966 61.2374978 37.2181547 61.4376442 36.3716082 61.4520914 38.051859 64.5480191 37.968558 68.0953335 37.6551379 71.2173366 37.4441087 74.310093 37.1695625 77.5896058 36.5656302 80.6161165 36.3257927 83.6739881 35.9533678 90.3619813 35.8048143 92.4867757 35.696523 94.6809872 35.4806346 97.5334268 35.1564548 100.0564 34.8263746 102.462739 34.7146124 105.532943 34.4008453 108.954109 33 111.69978 33.3706895 111.659258 36.0644358 111.978153 38.9907307 112 41.9041834 111.825929 44.967925 111.838614 47.9480185 111.980267 50.0628228 111.861166 50.4817575 111.773778 51.0416097 111.793863 50.6854979 111.231832 49.5505217 108.559806 49.421058 104.883877 49.7521795 102.358789 50.2009637 99.2797753 50.499806 96.4093648 50.5084832 93.3514931 50.7962188 90.3676192 51.6687968 84.7215858 55.1566794 89.5716141 56.4728353 91.6812567 62.3705466 102.188594 63.6894792 104.870487 66.8934441 110.231452 67.9798281 111.977801 68.7076706 110.454855 71.7679414 104.416633 74.2159497 100.131455 78.2498009 92.7859383 82.5897834 84.6317313 82.8230262 91.5603935 83.3131138 94.931875 83.4838808 98.285738 84.1693787 105.004035 84.2110292 107.422706 84.222136 108.650718 82.7997713 111.222318 82.552645 111.72797 83.452643 111.697666 85.824292 111.783292 88.8505482 111.733608 91.8719451 111.739951 94.8603687 111.909088 97.7870108 111.683924"></polygon>
                <polygon id="Fill-36" fill="#F7F5F1" points="23.6201156 110.30285 22.3069474 107.689232 22.3901113 104.381248 22.1642341 101.316083 22.3226904 95.1544445 22.1988002 92.1282422 22.2706702 88.983761 22.4455539 85.8771986 22.4400781 82.877783 22.2456868 79.836622 22.2901778 76.7224062 22.4215972 73.6200184 22.5098947 70.5666815 22.4770398 67.5429144 22.2559539 64.1858789 24 61.0267867 23.4387293 61.01148 20.8739959 61 13.8283373 61.069228 10.303968 61.0100885 7.70945987 61.158633 7.1119119 61.1433263 7.35113643 61.5858288 9.01441427 64.0832545 8.87546554 67.5745714 8.71221791 70.6578259 8.66943813 73.6805494 8.69750166 76.6723116 8.97847925 79.7861795 9.01578322 82.8541272 8.91037384 85.9763442 8.89873774 89.0088083 8.79675075 92.1111961 8.82515652 95.130093 8.73172548 101.245812 8.95931391 104.33985 8.76629155 107.750111 7 110.92451 7.70090391 110.991303 10.1923983 110.79336 13.8461337 110.705694 17.3896684 111 20.8253981 110.982258 23.8860347 110.747092"></polygon>
                <polygon id="Fill-38" fill="#F7F5F1" points="269.316851 91.1449379 265.05016 92.4727403 262.656309 93.9024702 261.407632 96.2519494 260.176439 100.045572 256.82309 106.747388 251.787822 112.344475 246.152167 117.385594 239.258745 120.584469 231.989775 122.655621 224.464147 123.876691 216.913691 122.777796 209.479677 121.032332 206.287177 119.092278 202.922289 114.330173 200.01547 115.019298 196.738 112.739144 191.6828 107.180494 187 98.6010854 188.144475 106.771755 191.266691 112.798172 196.053693 118.109039 200.008477 122.909925 201.56906 125.258717 204.275167 124.237727 210.5189 128.11852 213.433062 128.833728 225.400567 132 232.58107 130.365729 239.865774 129.242468 243.773003 129.354691 249.33103 126.320891 254.597781 122.861878 259.102598 119.524011 265.98693 114.84084 266.865304 109.816537 270.119696 104.461742 272.331718 98.354675 272.862869 95.3486731 274 91.7575322 273.479339 89"></polygon>
                <g id="Group-42" transform="translate(185.000000, 0.000000)">
                    <mask id="mask-4" fill="white">
                        <use xlink:href="#path-3"></use>
                    </mask>
                    <g id="Clip-41"></g>
                    <polygon id="Fill-40" fill="#F7F5F1" mask="url(#mask-4)" points="88.2570523 15.7953819 75.8032268 27.3703819 70.5599517 35.0328819 58.6711463 40.0082292 58.4149852 39.8731597 57.3830121 39.4783681 56.3035758 34.7068403 49.0940725 35.1960764 40.900757 41.2280208 40.4093745 35.6849653 43.7886765 26.1807986 43.8504483 19.5450347 36.0836027 27.7669097 31.8883544 32.4245486 29.7580993 32.4245486 20.9097235 37.4783681 18.1240591 42.6953819 12.5530792 46.4450347 5.64824698 55.9623958 4.1077906 60.1957292 1.62365638 65.0151736 0.169401342 73.7988542 4.22016644 66.2551042 10.1408376 57.1613542 15.0222067 53.3380903 15.6402738 52.9780208 16.1578309 53.4071875 19.272945 50.9210764 20.7561664 50.3134375 24.2234148 49.0339236 31.6381262 47.1280208 35.2603275 46.6724653 39.6108779 51.1294097 43.8504483 50.8467708 45.0541262 52.4023264 50.4303678 49.9707292 51.2274685 52.6141319 50.5329718 54.8832292 49.2577503 64.0519792 43.8504483 74.9752431 50.0771866 72.8557986 59.9086765 61.7696875 61.8752537 57.6939931 66.1354148 54.1071875 78.4252134 37.1523264 103.987576 8.94815972 103.987576 0.144340278"></polygon>
                </g>
                <polygon id="Fill-43" fill="#F7F5F1" points="284 36 266.06717 59.3722952 262.24819 65.0082229 262.24819 71.6386637 254.145546 75.1196364 252 84 264.738891 81.0870684 269.886149 79.2636178 274.037199 72.4672482 274.53548 62.8532678 282.173439 49.2608817"></polygon>
                <polygon id="Fill-45" fill="#F7F5F1" points="254.927467 20.9473661 260 12 254.927467 13.8947322 251.883811 13.8947322 250.463393 17.052855 246 21.894909 246 28 252.49261 25.1580786"></polygon>
                <polygon id="Fill-47" fill="#F7F5F1" points="285 102.617284 284.982702 93 279.991068 101.491217 279 110 282.293386 106.818259"></polygon>
                <polygon id="Fill-49" fill="#BD9B5E" points="247.647283 96.8898831 246.235722 98.7445694 244.5149 99.4441501 242.624493 101.970683 240.267202 104.074626 237.87719 106.138354 235.070958 107.60789 232.189433 108.918304 229.143953 109.835247 225.978146 110.164237 222.802488 110.230104 219.606775 110.072022 216.581702 109.043798 213.527778 108.106055 210.821467 106.426091 208.208744 104.616818 206.099496 102.256686 203.933955 99.9440487 202.479823 97.1426058 201.034838 94.3338828 200.270654 91.2741704 199.132117 88.265072 200.006426 85.0302911 200.268543 81.9164982 200.834996 78.8134521 202.221224 75.9724888 203.726724 73.2084862 205.680109 70.7308334 207.918129 68.5062499 207.651086 66.7534847 210.003804 65.8261416 213.768081 62.5806139 220.646798 60 217.174191 60.5532858 214.031957 61.4383352 211.144099 62.9446178 208.402253 64.667916 205.811696 66.6141232 203.586342 68.960388 202.474897 71.3898537 199.957873 74.2758842 198.53435 77.1757815 197.708595 80.2940811 197.256839 83.4747814 197 86.6790552 198.733841 91.0131277 198.127981 92.9839485 198.888648 96.1112616 200.495828 98.9095845 202.084712 101.704441 204.209793 104.131133 206.702189 105.930699 209.135476 108.275577 211.848824 110.057462 214.922099 111.130754 218.010502 112.120497 221.225566 112.580876 224.471943 113 227.725357 112.642583 230.86935 111.797401 234.024954 111.001792 236.949754 109.582871 239.738746 107.92336 242.00069 104.77178 243.412602 104.307935 246.347606 100.922699 248.157091 98.2561109 250 93.6447022"></polygon>
                <polygon id="Fill-51" fill="#BD9B5E" points="283.28901 120.127691 280.4433 120 277.595187 120.166441 274.792396 120.334728 272.146861 122.048222 269.652745 124.08685 267 125.813261 270.014639 125.88744 273.060867 125.714725 276.108468 126 279.155039 125.785582 282.203671 125.924345 285.192559 125.706237 287.106752 122.998155 289 120.178251 286.135749 120.346537"></polygon>
                <polygon id="Fill-53" fill="#BD9B5E" points="458.005722 130.057692 456.958208 127.578436 455.927545 125.089526 454.80245 122.636472 453.953276 120 451.068401 120.062059 448.251277 120.176868 445.433451 120.225136 442.615274 120.132048 440.987485 120.165835 439.79815 120.190659 436.980324 120.043097 434.163551 120.160319 431.345374 120.146183 428.526495 120.253063 425.707616 120.058611 422.888035 120.237548 420 120.172041 421.749601 122.835751 423.459533 125.356379 426.236989 125.471533 429.107472 125.542901 431.977252 125.298113 434.849841 125.530834 437.720675 125.497391 440.59221 125.270186 443.458129 125.434643 445.760623 126.900614 448.142453 128.251431 450.6475 129.399177 452.973514 130.840669 455.37079 132.169076 457.72243 133.576436 460 135 458.908606 132.595904"></polygon>
                <g id="Group-57" transform="translate(0.000000, 120.000000)">
                    <mask id="mask-6" fill="white">
                        <use xlink:href="#path-5"></use>
                    </mask>
                    <g id="Clip-56"></g>
                    <polygon id="Fill-55" fill="#BD9B5E" mask="url(#mask-6)" points="186.098167 2.63533435 184.404552 0.526680507 181.478901 0.453865822 179.298956 0.145146416 176.411305 0.113568619 173.522607 0.315295017 170.635305 0.243594843 167.748699 0.297091346 164.861745 0.231706731 161.975488 0.218332605 159.088185 0.330155157 156.200883 0.120627185 153.31358 0.118769668 150.426974 0.280002185 147.540369 0.165579108 144.653415 0.19232736 141.766461 0.223905157 138.880901 0.269600087 135.994295 0.266999563 133.108387 0.382908654 130.222479 0.242480332 127.337268 0.24545236 124.451011 0.13065778 121.566149 0.38885271 120.448461 0.29746285 118.68024 0.15294799 115.795378 0.432690122 112.911213 0.315295017 110.025305 0.416343969 107.139396 0.239508304 104.252791 0.423774038 101.367231 0.317524038 98.4806257 0.310093969 95.5947174 0.340185752 92.7088092 0.103909528 89.8229009 0.410399913 86.9369927 0.200128934 84.0510844 0.303406906 81.1655248 0.307864948 78.2796165 0.151833479 75.3937083 0.193441871 72.5084972 0.365076486 69.622589 0.258826486 66.7370294 0.220190122 63.8518183 0.264770542 60.9659101 0.36544799 58.0803505 0.107624563 55.1947908 0.269600087 52.3099284 0.173380682 49.4240202 0.348730332 46.5384605 0.281116696 43.6529009 0.229106206 40.7683872 0.178581731 37.8831761 0.306750437 34.9976165 0.224648164 32.1120569 0.042611451 29.2271945 0.0801333042 26.3426807 0.0920214161 23.458167 0.0871918706 20.5722587 0.286689248 17.6866991 0.042611451 14.8018367 0.312694493 11.9173229 0.298948864 9.03350642 0.210902535 6.22185504 0.313809003 5.1937633 2.90653191 4.20192844 5.60401879 3.11282752 8.25766827 1.93482752 10.8700809 1.08906605 13.6273798 -3.4866033e-05 16.3460424 2.32946972 14.6973099 4.7684422 13.3673274 7.03937798 11.7390275 9.50624036 10.4677426 11.8047174 8.88996722 14.1181853 7.34154065 16.498589 5.91459572 19.3545156 5.9874104 22.2111394 6.00189904 25.0663688 5.94691652 27.9222954 5.83695149 30.7768275 5.91719624 33.631011 6.09811844 36.4851945 5.93019886 38.3729927 5.73887456 40.8837816 5.35622596 44.1116899 4.97432037 48.0567174 4.20976617 50.5671578 4.59241477 52.7192128 3.82786058 55.5883872 4.97432037 57.7400936 4.97432037 62.1728459 5.93837194 65.0270294 5.87335883 67.880167 5.89044799 70.7333046 6.05576705 73.5860936 6.02307474 76.4399284 5.96920673 79.2920202 5.99484047 82.1455064 5.88859047 84.9975982 5.95063156 87.8493413 5.7741674 90.7024789 5.87855988 93.5559651 5.79088505 96.4094514 5.99669799 99.2629376 5.78122596 102.116772 5.89527753 104.96991 6.05725306 107.823745 6.02196023 110.676883 6.11595061 113.53002 6.14009834 116.383506 5.97180726 119.236295 5.9866674 122.089782 5.86221372 124.071708 6.07285621 124.942919 6.16573208 127.795708 5.87818837 130.649194 5.97366477 133.502332 5.86184222 136.354772 6.07025568 139.20791 6.14158435 142.061396 5.86555726 144.914185 6.08400131 147.766277 6.1252382 150.619066 6.05168051 153.472901 6.1256097 156.325341 6.0613396 159.177433 6.12263767 162.029873 5.90753715 164.88336 6.01155813 167.736149 5.9870389 170.588589 5.8272924 173.440332 6.1464139 176.292772 6.0297618 179.145561 5.88598995 181.291341 6.49785621 184.143782 6.32956512 186.995525 6.29984484 189.983231 6.43098558 188.057084 4.40034747"></polygon>
                </g>
                <polygon id="Fill-58" fill="#BD9B5E" points="422.836362 52.7576049 424.971011 52.950903 427.864344 52.8506489 430.758027 52.7394081 433.652407 52.8293621 436.54609 52.8094486 439.439423 52.7404381 442.332407 52.8743391 445.226439 52.8461855 448.12047 52.7318547 451.013454 52.9639497 453.938909 52.9024926 454.906379 50.3628373 455.939488 47.8856692 456.986911 45.4160544 457.991391 42.9320195 458.847834 40.3875575 460 38 457.722901 39.4344572 455.338266 40.7604202 452.912782 42.0139394 450.562015 43.3879695 448.236734 44.8066332 445.833595 46.095516 443.584078 47.7232713 440.661417 47.5079997 437.780653 47.4983863 434.901635 47.7002678 432.021918 47.5059397 429.142899 47.5546934 426.264928 47.4098057 423.386957 47.6274806 420.508986 47.593147 418.18615 47.5838769 417.630666 47.5814736 414.751997 47.3885188 411.873677 47.4698894 408.995007 47.453066 406.117036 47.502163 403.238367 47.7047312 400.360745 47.5169265 397.483821 47.3998489 394.60585 47.6477374 391.728228 47.6497974 388.851305 47.6580375 385.97473 47.4338392 378.290132 47.414269 376.134884 48.1208542 375.417049 49.1803887 372.543268 48.4738035 369.310569 48.4738035 368.23277 48.1208542 365.837313 47.3730687 362.959341 47.6813843 360.082418 47.4791595 357.204796 47.4880862 354.327174 47.3878322 351.449901 47.5265399 348.572629 47.5172698 345.695705 47.3528119 344.573914 47.3984756 342.818083 47.4698894 339.941159 47.4667994 337.063887 47.5227632 334.186963 47.5066264 331.30969 47.5883403 328.432767 47.360022 325.555843 47.3284351 322.679269 47.5086864 319.802345 47.503193 316.924723 47.3102383 314.048149 47.3308384 311.171923 47.4640527 308.295349 47.5018197 305.417727 47.4128957 302.541152 47.3050882 299.665276 47.3349585 296.788353 47.586967 291.695081 47.2419144 291.208378 49.8193367 290 53 297.611628 52.7988052 300.510547 52.6051638 303.406324 52.7534849 306.302451 52.9045526 309.198228 52.8468722 312.093307 52.8915059 314.988386 52.7953718 317.883465 52.6106571 320.778893 52.6357207 323.67467 52.6906544 326.569749 52.7658449 329.464828 52.9443796 332.359907 52.7284213 335.255335 52.6614709 337.681867 52.8616357 338.150065 52.9004326 341.044446 52.8794891 343.939175 52.9361395 346.833207 52.9546797 349.727588 52.6964911 352.621619 52.6618142 355.516 52.8218087 358.408635 52.7998352 361.303016 52.7727117 364.196349 52.7974318 367.088984 52.7194946 369.982666 52.8767424 372.877047 52.7867884 375.771777 52.865069 378.665808 52.7737417 381.560887 52.6487674 384.45457 52.9206894 387.349299 52.6504841 390.243331 52.6439607 393.137362 52.6631875 396.032092 52.8176887 398.925775 52.6429307 401.820155 52.9206894 404.714187 52.9378562 407.60752 53 410.501901 52.859919 413.395932 52.7651583 416.289266 52.8544256 419.183297 52.6611275 422.077678 52.6889377"></polygon>
                <polygon id="Fill-60" fill="#BD9B5E" points="1.9718971 42.9014366 3.00858146 45.3784882 3.97726937 47.8854874 5.09136508 50.3363778 5.95439697 52.9938039 8.90962737 52.9018955 11.7689653 52.866096 14.6279546 52.8275427 17.4872926 52.7827933 20.3476766 53 23.2070146 52.8210024 26.0663526 52.6661006 28.9260392 52.895011 31.7864233 52.895011 34.64611 52.7080962 37.505448 52.852327 40.3654833 52.8086102 43.2258674 52.9838214 46.0852054 52.9580044 48.9452407 52.870571 51.8052761 52.692606 54.6649628 52.6702313 57.5253468 52.779351 60.3853822 52.8137736 63.2454176 52.9087801 66.1058016 52.7573205 68.965837 52.7514687 69.2517708 52.7586974 71.8265698 52.8244446 74.6866051 52.8777997 77.5469892 52.6812466 85.7417821 52.9242702 88.6018175 52.7376997 91.460458 52.8640307 94.3190986 52.7201441 97.1798314 52.7091289 100.038472 52.7456169 102.898856 52.8278869 105.758543 52.7067193 117.287254 52.6313338 120.147289 52.9084358 123.008022 52.9394162 125.868057 52.7662704 128.729139 52.8895034 131.59022 52.6974252 134.450953 52.7249633 146.647424 52.9304663 156.176691 52.6936387 159.03847 52.6330549 161.8999 52.7425188 167.491649 52.6719525 170.353428 52.9259914 173.217997 52.6809023 179.547246 52.8079218 181.333286 50.3291491 182 47.696163 173.263676 47.5419497 170.39039 47.5426381 164.275243 47.4782679 161.400562 47.2941068 158.52623 47.361231 155.652595 47.3199238 146.110427 47.4662199 133.900705 47.6373003 131.026722 47.6493483 128.152041 47.3959978 125.277709 47.3815403 122.403725 47.5660455 119.529045 47.5601937 116.654713 47.419061 105.111007 47.3784423 102.237024 47.6448733 99.3619944 47.443501 96.4873137 47.4121764 93.613679 47.6510694 90.7407417 47.6541674 87.8674558 47.6631173 84.992775 47.5395401 76.7850802 47.649004 73.9103995 47.3729346 71.0364161 47.3409216 68.1624328 47.5660455 66.8391172 47.5354094 65.2881007 47.4992657 62.4130713 47.6324812 59.5387392 47.6424637 56.6637097 47.6569212 53.7879829 47.4910042 50.9133021 47.620089 48.0375753 47.3922113 45.1621971 47.6472829 42.2864703 47.6579539 39.4110921 47.6996053 36.5357139 47.674821 33.6603358 47.4049477 30.785655 47.5770608 27.9099282 47.7078667 25.0324578 47.5529649 22.156731 47.5464246 19.2789119 47.700638 16.4112051 47.5126905 14.0501591 46.1774371 11.7497869 44.7196393 9.43825619 43.2793969 6.98829174 42.0718515 4.59934973 40.7582844 2.23167841 39.4061639 0 38 0.895112264 40.4388425"></polygon>
            </g>
        </g>
    </g>
</svg>