<svg xmlns="http://www.w3.org/2000/svg" width="30.857" height="40" viewBox="0 0 30.857 40">
  <g id="IMMORTAL_Icon" data-name="IMMORTAL Icon" transform="translate(-0.827)">
    <path id="Fill_1" data-name="Fill 1" d="M24.871.684l-1.289.423-.723.456-.377.749-.372,1.21L21.1,5.66,19.575,7.445l-1.7,1.608-2.083,1.02-2.2.661-2.274.389-2.281-.35-2.246-.557L5.827,9.6,4.811,8.079l-.878.22-.99-.727L1.415,5.8,0,3.062.346,5.668,1.289,7.59,2.735,9.284,3.93,10.815l.472.749.818-.326,1.887,1.238.88.228,3.616,1.01,2.169-.521,2.2-.358,1.181.036,1.679-.967,1.591-1.1,1.361-1.064,2.08-1.494.265-1.6.983-1.708.668-1.948.16-.959L26.286.88,26.128,0Z" transform="translate(1.97 26.286)" fill="#243746"/>
    <path id="Fill_2" data-name="Fill 2" d="M30.857,0,26.182,4.781l-3.7,3.536-1.558,2.341-3.534,1.52-.076-.041-.307-.121-.321-1.457-2.143.149-2.435,1.842-.146-1.693,1-2.9.018-2.027L10.675,8.437,9.428,9.86H8.794L6.164,11.4,5.337,13,3.681,14.143,1.628,17.05l-.458,1.293L.432,19.815,0,22.5l1.2-2.3,1.76-2.778,1.451-1.168.184-.11.154.131.926-.759.441-.186,1.03-.391,2.2-.582,1.077-.139,1.293,1.361,1.26-.086.358.475,1.6-.743.237.807-.207.693-.379,2.8-1.607,3.336,1.851-.647,2.922-3.386.584-1.245,1.266-1.1L23.259,11.3l7.6-8.615Z" transform="translate(0.827)" fill="#243746"/>
    <path id="Fill_3" data-name="Fill 3" d="M9.143,0,4.019,7.234,2.928,8.979v2.052L.613,12.108,0,14.857l3.64-.9,1.471-.564,1.186-2.1.142-2.976L8.621,4.1Z" transform="translate(21.398 10.286)" fill="#243746"/>
    <path id="Fill_4" data-name="Fill 4" d="M2.915,2.556,4.571,0,2.915.541H1.921l-.464.9L0,2.827V4.571l2.12-.812Z" transform="translate(19.113 3.429)" fill="#243746"/>
    <path id="Fill_5" data-name="Fill 5" d="M2.286,2.586,2.279,0,.378,2.283,0,4.571l1.255-.856Z" transform="translate(29.398 28.571)" fill="#243746"/>
    <path id="Fill_6" data-name="Fill 6" d="M15.29,11.137l-.426.56-.519.211-.571.763-.712.635-.722.623-.847.444-.87.4-.919.277-.956.1-.959.02-.965-.048-.913-.31-.922-.283-.817-.507-.789-.546-.637-.712-.654-.7-.439-.846-.436-.848L.987,9.441.644,8.533l.264-.977.079-.94.171-.937.418-.858.454-.834.59-.748L3.3,2.568l-.081-.529.71-.28L5.062.779,7.139,0,6.09.167,5.142.434,4.27.889l-.828.52L2.66,2l-.672.708-.336.733-.76.871-.43.875-.249.941-.136.96L0,8.054.523,9.362l-.183.595.23.944.485.845.48.844.642.733.752.543.735.708.819.538.928.324.932.3.971.139.98.127.982-.108.949-.255.953-.24.883-.428.842-.5.683-.951.426-.14.886-1.022.546-.805L16,10.157Z" transform="translate(4.256 18.286)" fill="#bd9b5e"/>
  </g>
</svg>
