<svg xmlns="http://www.w3.org/2000/svg" xmlns:xlink="http://www.w3.org/1999/xlink" width="25" height="50" viewBox="0 0 25 50">
  <defs>
    <clipPath id="clip-path">
      <path id="Clip_2" data-name="Clip 2" d="M0,0H25V50H0Z" transform="translate(0 0)" fill="none"/>
    </clipPath>
  </defs>
  <g id="Aru_Logo_Placeholder" data-name="Aru Logo Placeholder" transform="translate(0 0)">
    <path id="Clip_2-2" data-name="Clip 2" d="M0,0H25V50H0Z" transform="translate(0 0)" fill="none"/>
    <g id="Aru_Logo_Placeholder-2" data-name="Aru Logo Placeholder" clip-path="url(#clip-path)">
      <path id="Fill_1" data-name="Fill 1" d="M12.559,50h0c-3.019-.907-3.335-2.466-2.881-4.527a34.045,34.045,0,0,0,.517-7.484l0-.385c-.009-2.133-1.052-4.233-3.188-6.419l-.884-.9-.013-.013c-1.176-1.2-2.392-2.445-3.559-3.681A8.9,8.9,0,0,1,.118,22.2a7.606,7.606,0,0,1,.712-4.709q.28-.6.557-1.192l0-.008a66.369,66.369,0,0,1,4.287-8.16c-.043.294-.072.6-.1.887a8.072,8.072,0,0,1-.343,1.925C4.474,13.1,3.58,15.259,2.727,17.267c-1.234,2.9-.57,5.631,1.973,8.114,1.675,1.636,3.422,3.22,5.272,4.9.827.75,1.683,1.526,2.55,2.323.875-.81,1.744-1.6,2.584-2.362l.007-.006c1.912-1.737,3.717-3.377,5.421-5.087,2.335-2.342,2.96-4.868,1.859-7.507q-.166-.4-.333-.8l0-.009c-.671-1.6-1.364-3.246-1.876-4.9a11.693,11.693,0,0,1-.44-4.413c.4.894.789,1.808,1.164,2.692a63.683,63.683,0,0,0,2.78,5.966c2.3,4.172,1.6,7.921-2.165,11.462-.073.069-.14.145-.2.218a2.184,2.184,0,0,1-.325.319c-5.688,4.258-7.447,9.578-5.7,17.249a3.816,3.816,0,0,1-.143,2.743A4.325,4.325,0,0,1,12.559,50ZM5.7,45.231h0l-1.327-.9-3.287-2.24c2.361-1.344,3.557-2.842,3.656-4.582a10.17,10.17,0,0,0-1.434-4.7,16.548,16.548,0,0,1-1.288-3.2c1.9,2.071,3.967,4.549,4.874,7.222A9.484,9.484,0,0,1,5.7,45.23ZM19.986,45h0a7.2,7.2,0,0,1-2.308-5.607c.093-3.308,2.131-6.866,5.59-9.762a25.191,25.191,0,0,1-1.257,2.83c-1.677,3.4-3.26,6.6,2.018,9.675l-.166.117-.025.018L19.987,45ZM12.324,24.275v0c-.117-.268-.225-.548-.328-.82a8.8,8.8,0,0,0-.893-1.871A11.7,11.7,0,0,0,9.564,19.89c-.235-.228-.479-.464-.7-.7l2.567-3.77,1.118-1.643,2.018,2.991,1.49,2.208-1.6,2.27-2.131,3.024Zm.31-20.286h0c-1.127-.594-1.689-1.2-1.72-1.838-.032-.674.524-1.377,1.7-2.15C13.551.7,14,1.367,14,2.032s-.451,1.291-1.366,1.956Z" transform="translate(0 0)" fill="#90a4b3"/>
    </g>
  </g>
</svg>
