<svg xmlns="http://www.w3.org/2000/svg" width="119.016" height="149.508" viewBox="0 0 119.016 149.508">
  <g id="Sunspear_Icon" data-name="Sunspear Icon" transform="translate(-0.078)">
    <path id="Fill_1" data-name="Fill 1" d="M94,2.5,89.125,4.052,86.391,5.72,84.965,8.46l-1.406,4.425L79.73,20.7l-5.75,6.53-6.435,5.881-7.872,3.732-8.3,2.416-8.594,1.424-8.621-1.282-8.489-2.036-3.645-2.264L18.181,29.55l-3.319.8-3.742-2.66L5.348,21.209,0,11.2l1.307,9.532,3.565,7.03,5.466,6.2,4.516,5.6,1.782,2.74,3.09-1.191,7.13,4.528,3.327.834L43.85,50.164l8.2-1.907,8.318-1.31,4.462.131,6.346-3.539L77.189,39.5l5.144-3.894,7.861-5.464,1-5.861,3.716-6.247,2.526-7.124.606-3.507,1.3-4.189L98.75,0Z" transform="translate(2.046 99.344)" fill="#f7f5f1"/>
    <path id="Fill_2" data-name="Fill 2" d="M119.016,0,100.983,17.692,86.706,30.777,80.7,39.439,67.066,45.063l-.294-.153-1.183-.447L64.352,39.07l-8.265.553-9.393,6.819-.563-6.266L50,29.432l.071-7.5-8.9,9.294L36.363,36.49H33.92L23.777,42.2l-3.193,5.9L14.2,52.339,6.281,63.1,4.515,67.883,1.667,73.331,0,83.261l4.644-8.528,6.787-10.28,5.6-4.322.709-.407.593.485L21.9,57.4l1.7-.687,3.974-1.446,8.5-2.154,4.152-.515,4.987,5.038,4.86-.319,1.38,1.758,6.163-2.748.914,2.988-.8,2.565L56.275,72.243l-6.2,12.347,7.139-2.4L68.485,69.662l2.254-4.607L75.623,61,89.712,41.834l29.3-31.882Z" transform="translate(0.078)" fill="#f7f5f1"/>
    <path id="Fill_3" data-name="Fill 3" d="M34.426,0,15.134,26.342l-4.109,6.352v7.473L2.308,44.09,0,54.1l13.7-3.283,5.538-2.055,4.466-7.66.536-10.835,8.217-15.319Z" transform="translate(77.783 39.344)" fill="#f7f5f1"/>
    <path id="Fill_4" data-name="Fill 4" d="M9.408,9.9,14.754,0,9.408,2.1H6.2L4.7,5.591,0,10.949V17.7L6.842,14.56Z" transform="translate(69.914 10.82)" fill="#f7f5f1"/>
    <path id="Fill_5" data-name="Fill 5" d="M6.885,11.129,6.865,0,1.137,9.826,0,19.672,3.779,15.99Z" transform="translate(106.308 104.262)" fill="#f7f5f1"/>
    <path id="Fill_6" data-name="Fill 6" d="M58.276,42.447l-1.624,2.134-1.98.8L52.5,48.293l-2.712,2.421-2.75,2.375-3.229,1.691L40.49,56.287l-3.5,1.055-3.643.379-3.654.076-3.677-.182-3.481-1.183-3.514-1.079L15.9,53.419,12.9,51.338,10.47,48.622,7.978,45.961,6.305,42.738,4.643,39.506l-.879-3.521-1.31-3.462L3.459,28.8l.3-3.583.652-3.57,1.6-3.269L7.74,15.2l2.248-2.851,2.575-2.56-.307-2.017L14.963,6.7l4.331-3.734L27.209,0l-4,.637L19.6,1.655,16.275,3.388,13.12,5.371,10.139,7.61l-2.561,2.7L6.3,13.106,3.4,16.426,1.765,19.763l-.95,3.588L.3,27.011,0,30.7l2,4.987-.7,2.268.875,3.6,1.849,3.22,1.828,3.216L8.3,50.779l2.868,2.071,2.8,2.7,3.122,2.05,3.536,1.235,3.554,1.139,3.7.53,3.735.482,3.743-.411,3.618-.972,3.631-.915,3.365-1.633,3.209-1.909,2.6-3.626,1.625-.534,3.377-3.9,2.082-3.068,2.121-5.306Z" transform="translate(14.833 64.918)" fill="#bd9b5e"/>
  </g>
</svg>
