<svg xmlns="http://www.w3.org/2000/svg" xmlns:xlink="http://www.w3.org/1999/xlink" width="134" height="39.765" viewBox="0 0 134 39.765">
  <defs>
    <clipPath id="clip-path">
      <path id="Clip_24" data-name="Clip 24" d="M0,0H8.865V13.982H0Z" transform="translate(0.075 0.016)" fill="none"/>
    </clipPath>
    <clipPath id="clip-path-2">
      <path id="Clip_41" data-name="Clip 41" d="M0,0H29.948V21.95H0Z" transform="translate(0.049 0.042)" fill="none"/>
    </clipPath>
    <clipPath id="clip-path-3">
      <path id="Clip_56" data-name="Clip 56" d="M0,0H55V4.8H0Z" transform="translate(0 0.013)" fill="none"/>
    </clipPath>
  </defs>
  <g id="Immortal_Logo" data-name="Immortal Logo" transform="translate(0 -0.042)">
    <path id="Fill_1" data-name="Fill 1" d="M2,.932V.977l-.166.2V2H1.79l-.263-.13A.922.922,0,0,1,1.048,2a1.157,1.157,0,0,1-.419-.075.991.991,0,0,1-.334-.209A.929.929,0,0,1,.077,1.4,1.022,1.022,0,0,1,0,1,1.021,1.021,0,0,1,.077.6.931.931,0,0,1,.295.283,1,1,0,0,1,.629.075,1.159,1.159,0,0,1,1.048,0,1,1,0,0,1,1.5.1L1.67,0h.047V.667H1.67A.786.786,0,0,0,1.063.414.6.6,0,0,0,.831.459a.577.577,0,0,0-.19.125A.562.562,0,0,0,.517.773a.61.61,0,0,0,0,.454.563.563,0,0,0,.124.189.576.576,0,0,0,.19.125.6.6,0,0,0,.232.045.61.61,0,0,0,.347-.1V1.177l-.193-.2V.932Z" transform="translate(85 35)" fill="#243746"/>
    <path id="Fill_3" data-name="Fill 3" d="M.733,2H0V1.957l.164-.187L.915,0h.169L1.84,1.772,2,1.957V2H1.251V1.957l.139-.173L1.3,1.533H.682L.59,1.781l.142.175V2Z" transform="translate(88 35)" fill="#243746"/>
    <path id="Fill_5" data-name="Fill 5" d="M2,0V.547H1.936L1.7.4H1.274V1.729l.221.227V2H.5V1.956l.221-.229V.4H.3L.061.547H0V0Z" transform="translate(91 35)" fill="#243746"/>
    <path id="Fill_7" data-name="Fill 7" d="M1.939,1.421H2V2H0V1.956l.24-.209V.253L0,.044V0H1.968V.559H1.9L1.585.4H.87V.824h.61L1.7.747h.057v.491H1.7l-.216-.077H.87V1.6h.809Z" transform="translate(94 35)" fill="#243746"/>
    <path id="Fill_9" data-name="Fill 9" d="M.912.589H.88A.429.429,0,0,0,.726.444.387.387,0,0,0,.537.391.187.187,0,0,0,.4.442.169.169,0,0,0,.349.569.18.18,0,0,0,.365.642.241.241,0,0,0,.426.72a1.385,1.385,0,0,0,.16.115L.724.924a.6.6,0,0,1,.2.2.569.569,0,0,1,.072.3.618.618,0,0,1-.043.231.555.555,0,0,1-.119.185.531.531,0,0,1-.179.12A.566.566,0,0,1,.443,2,.647.647,0,0,1,0,1.831V1.369H.032a.73.73,0,0,0,.2.18.423.423,0,0,0,.226.076A.233.233,0,0,0,.563,1.6a.158.158,0,0,0,.073-.07.189.189,0,0,0,.022-.083.308.308,0,0,0-.009-.066A.187.187,0,0,0,.607,1.3a.454.454,0,0,0-.079-.073Q.482,1.194.293,1.079A.662.662,0,0,1,.081.873.557.557,0,0,1,0,.569.633.633,0,0,1,.04.362a.6.6,0,0,1,.1-.185A.486.486,0,0,1,.3.048.464.464,0,0,1,.514,0a.7.7,0,0,1,.4.129Z" transform="translate(97 35)" fill="#243746"/>
    <path id="Fill_11" data-name="Fill 11" d="M1,2a1.007,1.007,0,0,1-.4-.078A.993.993,0,0,1,.284,1.7a1,1,0,0,1-.21-.321,1.033,1.033,0,0,1,0-.767A.987.987,0,0,1,.284.3.974.974,0,0,1,.6.079,1,1,0,0,1,1,0a1,1,0,0,1,.4.079.98.98,0,0,1,.529.537,1.033,1.033,0,0,1,0,.767.974.974,0,0,1-.531.538A1.007,1.007,0,0,1,1,2ZM1,.414A.571.571,0,0,0,.714.491.5.5,0,0,0,.507.707.65.65,0,0,0,.436,1a.7.7,0,0,0,.028.186.594.594,0,0,0,.105.2.482.482,0,0,0,.193.151A.606.606,0,0,0,1,1.586a.574.574,0,0,0,.225-.045.534.534,0,0,0,.18-.125.6.6,0,0,0,.118-.189.639.639,0,0,0-.03-.519A.494.494,0,0,0,1.286.491.571.571,0,0,0,1,.414Z" transform="translate(101 35)" fill="#243746"/>
    <path id="Fill_13" data-name="Fill 13" d="M0,0H2V.541H1.936L1.622.4H.861V.871H1.5L1.686.794h.06v.55h-.06L1.5,1.268H.861v.48l.237.209V2H0V1.956l.237-.209V.253L0,.044Z" transform="translate(105 35)" fill="#243746"/>
    <path id="Fill_15" data-name="Fill 15" d="M.982,2H0V1.956l.212-.209V.253L0,.044V0H1.039a1.492,1.492,0,0,1,.369.044,1.062,1.062,0,0,1,.308.13.639.639,0,0,1,.208.213A.551.551,0,0,1,2,.673a.612.612,0,0,1-.05.241.6.6,0,0,1-.185.229.858.858,0,0,1-.333.159,1.609,1.609,0,0,1-.392.049H.77v.394l.212.209V2ZM.77.4V.956h.245a.581.581,0,0,0,.3-.072A.229.229,0,0,0,1.436.677.229.229,0,0,0,1.315.469.581.581,0,0,0,1.014.4Z" transform="translate(109 35)" fill="#243746"/>
    <path id="Fill_17" data-name="Fill 17" d="M2,0V.044L1.822.226l-.61,1.038v.465l.175.227V2H.6V1.956l.175-.229V1.253L.189.238,0,.044V0H.8V.044L.661.215l.353.638L1.356.221,1.215.044V0Z" transform="translate(112 35)" fill="#243746"/>
    <path id="Fill_19" data-name="Fill 19" d="M2,1.956V2H1.334L.776,1.094V.956H.9A.4.4,0,0,0,1.135.89a.241.241,0,0,0,.1-.213A.235.235,0,0,0,1.126.468.467.467,0,0,0,.86.4H.672V1.75l.191.206V2H0V1.956l.185-.209V.253L0,.044V0H.911a1.358,1.358,0,0,1,.317.037A.883.883,0,0,1,1.5.151a.575.575,0,0,1,.191.2.559.559,0,0,1,.071.282.512.512,0,0,1-.124.348.557.557,0,0,1-.331.181l.433.556Z" transform="translate(115 35)" fill="#243746"/>
    <path id="Fill_21" data-name="Fill 21" d="M1.939,1.421H2V2H0V1.956l.24-.209V.253L0,.044V0H1.968V.559H1.9L1.585.4H.87V.824h.61L1.7.747h.057v.491H1.7L1.48,1.162H.87V1.6h.809Z" transform="translate(118 35)" fill="#243746"/>
    <g id="Group_25" data-name="Group 25" transform="translate(124 18)">
      <path id="Clip_24-2" data-name="Clip 24" d="M0,0H8.865V13.982H0Z" transform="translate(0.075 0.016)" fill="none"/>
      <g id="Group_25-2" data-name="Group 25" clip-path="url(#clip-path)">
        <path id="Fill_23" data-name="Fill 23" d="M8.723,9.921l.142-.712-.94.517-.858.592-.953-.043-.841.044-1.214-.012-.01-1.244.063-1.806.012-.877-.059-.9.011-.91.041-.885L4.032,2.8l.02-.917L4.132.91,4.558.081,4.166.12,4.155.082,2.739.042,1.822.071l-.96,0L.155,0,0,.011.1.168l.4.75-.058.939.02.842-.02.872,0,.847-.006.846L.5,6.129l-.047.858.056.855-.043.875.01,1.7.043.857-.042.861.021.934-.394.769-.089.13.927.018.762-.021.783-.053.524-.06.179-.113.532-.452.71.33.212.054.282-.217.45-.376.691.709.355.1,1.265.034.166-.6.257-.825.145-.879Z" transform="translate(0.075 0.016)" fill="#243746"/>
      </g>
    </g>
    <path id="Fill_26" data-name="Fill 26" d="M11.562,13.991l1,.009,1-.041.444,0-.189-.347-.432-.839-.392-.864-.364-.839-.511-.829L11.766,9.4l-.514-.836-.317-.844-.5-.8-.41-.839L9.65,5.232l-.5-.82L8.385,2.724,7.91,1.882l-.342-.851L7.015,0,6.89.212l-.39.831L5.651,2.722l-.4.835-.383.878-.464.8L4,6.071l-.892,1.65-.373.868-.873,1.654-.8,1.717-.5.785-.4.824-.168.4.467.027.994-.045,1.028-.013.354.016.689.043L3.919,14h.657l-.147-.245-.313-.606.925-2.016.431-.782.418-.783.406-.789L7,7.25l.784,1.526.378.838.4.8.425.791.987,1.932-.206.42-.191.439.631,0,.426-.021.617.031Z" transform="translate(108 18)" fill="#243746"/>
    <path id="Fill_28" data-name="Fill 28" d="M12,.117,11.061.1,10,.058,9.066.012,8.149,0,7.241.008l-.4.034L5.483.053,4.4.037,3.832.066H3.5L2.557.036,1.641.044.986.027,0,0,.089,1.47,0,2.476l.005.976L.035,4.523l.509-.3L1,3.872l.628,0,.918-.035.954.02.389.021.005.53.087.87L4,6.138l-.032.872,0,.847-.031.867.009.843-.029,1.708.07.864-.059.953-.545.887L3.593,14l.768-.055,1.127-.024L6.581,14l1.06,0,.944-.066L8.5,13.805l-.405-.73.026-.924-.07-.856L8.1,9.574l-.038-.845.022-.878.054-.868,0-.838L8.079,5.3l.014-.87L8.117,3.9l.05,0,.926.025.918-.009L11,3.954l.979.779.016-.54,0-.728-.021-2Z" transform="translate(97 18)" fill="#243746"/>
    <path id="Fill_30" data-name="Fill 30" d="M11.5,14h0l-.889-.089-.887.067-.873-.066-1.331.017-.944.015.483-.806L6.755,12.7l-.518-.7L5.8,11.235l-.642-.843-1.044-.068-.037,1,.01.92.027.9.414.7.049.073-.944.074L2.8,13.925l-.9-.006-.86.052L0,13.945l.49-.863L.511,12.1l.058-.937L.508,9.316l.03-1.824L.581,6.91l.711-.023,1.273.032L2.218,6.4l-.594-.78-.513-.8L.543,4.121l0-1.672L.478,1.511.5.948,0,.047l.889.02L1.795.1,2.678.047l.895,0L4.451.013,5.311,0l.9.043L7.076.012l.814.076.762.181L9.446.69l.679.538.572.636.427.743.346.777.166.82.113.861-.023.822-.256.79-.311.794-.5.684-.579.648-1.1.831-.01.185.612.859.654.859,1.068,1.453.511.76.179.21ZM4.183,3.443,5,4.5l.414.646.449.635.641.833a1.755,1.755,0,0,0,.728-.7,2.931,2.931,0,0,0,.352-.889,1.983,1.983,0,0,0-.229-.793,2,2,0,0,0-.585-.614,2.943,2.943,0,0,0-.823-.17c-.1-.007-.382-.009-.6-.009-.239,0-.474,0-.56,0h-.6Z" transform="translate(85 18)" fill="#243746"/>
    <path id="Fill_32" data-name="Fill 32" d="M19.861,13.9l.139.009-.442-.758-.112-.922-.07-.876-.119-.87-.036-.866-.092-.84-.247-2.59L18.845,5.3l-.084-.844L18.728,3.6l-.166-.864-.074-.863L18.38.9,18.892.11l-.145.008-.794-.1L17.662,0,17.1.04l-.871,0-.9.072L14.442.038,13.9.059V.1L13.534.079,12.82.016l-.176.007.136.2.4.758-.531.879-.988,1.773L11.23,4.3l-.406.747-.741,1.089-.7-1.1L8.913,4.37l-.446-.713L7.228,1.849,6.777.981,7.26.125l-.155.01L6.476.106,6.442.132,5.448.088l-.88.039L3.684.091,2.795.114,1.91.041H1.348L1.241.1.992.1l.494.851-.025.975-.092.858-.062.85-.081.9-.178.832-.071.841L.869,8.05l.1.66.6,1-.66.313L.882,10.7l-.344.679L.5,12.222l-.092.941L0,13.917l.109-.011.792.088L1.762,14l.857-.048.9,0,.877.039.622-.033.123-.024.165.006-.1-.155-.334-.735.1-.869-.036-.836.132-.847.088-.789,0-.841.085-.82L5.491,6.5,6.517,7.833l.387.58L8.638,11.3l.388.737.942,1.474.32.48.214-.419.9-1.66.677-1.328.636-1.311.446-.583.346-.688,1.078-1.531.068,1.905.144.927.05.922.2,1.847.012.665,0,.338-.418.707-.073.139.265-.008.7.024.89-.014.889,0,.879.047.861-.062Z" transform="translate(32 18)" fill="#243746"/>
    <path id="Fill_34" data-name="Fill 34" d="M18.537,13.9l.129.009-.413-.757-.1-.921-.065-.874-.111-.869-.034-.864-.326-1.971L17.622,6.2l-.033-.88-.078-.842-.031-.859-.155-.863-.069-.862-.1-.975.478-.785L17.5.142l-.741-.1L16.485.023l-.52.04-.813,0L14.208,0l-.729.061-.506.021V.125L12.632.1,11.965.039,11.8.045l.127.195L12.3,1l-.5.878-.922,1.77-.4.673-.378.746L9.411,6.151l-.657-1.1-.436-.664L7.9,3.674l-1.156-1.8L6.325,1,6.776.148l-.145.01L6.045.129,6.012.155,2.609.137,1.782.064H1.258l-.1.055-.232,0,.461.85-.023.974L1.278,2.8l-.058.849-.075.9-.166.831-.066.839L.811,8.06.77,8.643l-.03.6-.059.783-.089.693L.5,11.382l-.031.843-.086.939L0,13.918l.1-.011.739.088.8.006.8-.048.841,0,.818.039.581-.033.115-.024.154.006-.1-.154-.312-.733-.036-1.009.091-.693.123-.845L4.8,9.72l0-.839.079-.819.24-1.55.957,1.331.361.579,1.619,2.884.362.736.88,1.472.3.479.2-.418.84-1.658.672-1.176,1.107-2.016,1.191-2.238.064,1.9.135.926.047.921.188,1.844.011.664,0,.337-.39.706-.068.139.247-.008.651.024.831-.014.829,0,.82.046.8-.062Z" transform="translate(9.667 18)" fill="#243746"/>
    <path id="Fill_36" data-name="Fill 36" d="M4.888,13.8,4.5,13.073l.024-.926-.066-.858.047-1.725L4.47,8.716l.021-.88.051-.87,0-.84-.057-.852L4.5,4.4l.039-.869.026-.855-.01-.847L4.487.892,5,.008,4.835,0,4.081,0,2.008.019.972,0,.209.044.033.04.1.164l.489.7-.041.978L.5,2.7l-.013.846L.5,4.388l.083.872.011.859-.031.874,0,.849-.03.869.008.845L.509,11.269l.067.866-.057.955L0,13.979.206,14l.733-.055,1.075-.025L3.056,14l1.011,0,.9-.066Z" transform="translate(2 18)" fill="#243746"/>
    <path id="Fill_38" data-name="Fill 38" d="M23.654.6,22.428.969l-.688.4-.359.656-.354,1.059-.964,1.87L18.617,6.515,17,7.922l-1.981.893-2.089.578-2.163.341L8.6,9.426,6.46,8.939,5.542,8.4,4.575,7.069l-.835.192L2.8,6.625,1.346,5.074,0,2.679.329,4.96l.9,1.682L2.6,8.123l1.136,1.34.448.655.778-.285,1.794,1.083.837.2L11.035,12l2.063-.456,2.093-.313,1.123.031,1.6-.847,1.513-.965,1.294-.931L22.7,7.211l.252-1.4.935-1.494.636-1.7.153-.839L25,.77,24.85,0Z" transform="translate(54 26)" fill="#243746"/>
    <g id="Group_42" data-name="Group 42" transform="translate(54)">
      <path id="Clip_41-2" data-name="Clip 41" d="M0,0H29.948V21.95H0Z" transform="translate(0.049 0.042)" fill="none"/>
      <g id="Group_42-2" data-name="Group 42" clip-path="url(#clip-path-2)">
        <path id="Fill_40" data-name="Fill 40" d="M25.41,4.591l-3.592,3.4L20.3,10.234l-3.429,1.459-.074-.04-.3-.116-.311-1.4-2.08.144-2.363,1.769-.142-1.626.975-2.788L12.6,5.691,10.36,8.1,9.15,9.469H8.535L5.983,10.951l-.8,1.53-1.607,1.1L1.58,16.373l-.444,1.242L.419,19.029,0,21.605l1.168-2.213,1.708-2.667L4.284,15.6l.178-.106.149.126.9-.729.428-.178,1-.375,2.139-.559,1.045-.134,1.255,1.307,1.223-.083.347.456,1.551-.713.23.775-.2.666-.368,2.69-1.56,3.2,1.8-.622,2.836-3.252.567-1.2,1.229-1.052,3.545-4.973,7.374-8.273V0Z" transform="translate(0.049 0.042)" fill="#243746"/>
      </g>
    </g>
    <path id="Fill_43" data-name="Fill 43" d="M9,0,3.956,6.817,2.882,8.461v1.934L.6,11.41,0,14l3.583-.85,1.448-.532L6.2,10.636l.14-2.8L8.486,3.868Z" transform="translate(73 11)" fill="#243746"/>
    <path id="Fill_45" data-name="Fill 45" d="M2.551,2.8,4,0,2.551.592h-.87l-.406.987L0,3.092V5l1.855-.888Z" transform="translate(71 3)" fill="#243746"/>
    <path id="Fill_47" data-name="Fill 47" d="M2,2.829,1.994,0,.33,2.5,0,5l1.1-.936Z" transform="translate(81 27)" fill="#243746"/>
    <path id="Fill_49" data-name="Fill 49" d="M14.334,10.441l-.4.525-.487.2-.535.715-.667.6-.676.584-.794.416-.816.371L9.1,14.1l-.9.093-.9.019-.9-.045-.856-.291-.864-.265-.766-.475-.739-.512-.6-.668L1.962,11.3l-.412-.793-.409-.795L.926,8.851.6,8l.247-.916L.925,6.2l.16-.878.392-.8L1.9,3.738l.553-.7.633-.63-.076-.5.666-.262L4.746.73,6.692,0,5.71.157,4.82.407,4,.833l-.776.488-.733.551-.63.664-.315.688L.837,4.04l-.4.821L.2,5.744l-.128.9L0,7.551.491,8.777l-.171.558.215.885.455.792.45.791.6.687L2.746,13l.689.664.768.5.87.3.874.28.91.13L7.775,15l.921-.1.89-.239.893-.225.828-.4.789-.47.64-.892.4-.131.831-.958.512-.755L15,9.522Z" transform="translate(57 18)" fill="#bd9b5e"/>
    <path id="Fill_51" data-name="Fill 51" d="M4.442.043,3.666,0,2.89.055,2.125.112,1.4.683l-.68.68L0,1.938l.822.025L1.653,1.9l.831.1.831-.071.831.046L4.962,1.9,5.484,1,6,.059,5.219.116Z" transform="translate(78 35)" fill="#bd9b5e"/>
    <path id="Fill_53" data-name="Fill 53" d="M11.4,2.682l-.314-.661-.309-.664L10.441.7,10.186,0,9.321.017,8.475.047,7.63.06,6.785.035,6.3.044,5.939.051,5.094.011,4.249.043,3.4.039,2.558.067,1.712.016.866.063,0,.046l.525.71.513.672.833.031.861.019.861-.065.862.062.861-.009.861-.061.86.044.691.391.715.36.752.306.7.384.719.354.705.375L12,4l-.327-.641Z" transform="translate(122 35)" fill="#bd9b5e"/>
    <g id="Group_57" data-name="Group 57" transform="translate(0 35)">
      <path id="Clip_56-2" data-name="Clip 56" d="M0,0H55V4.8H0Z" transform="translate(0 0.013)" fill="none"/>
      <g id="Group_57-2" data-name="Group 57" clip-path="url(#clip-path-3)">
        <path id="Fill_55" data-name="Fill 55" d="M53.871.763l-.49-.62L52.533.121,51.9.03,51.066.021,50.23.08,49.394.059l-.836.016L47.723.056l-.835,0-.836.033L45.216.023H44.38L43.545.07,42.709.036l-.836.008-.836.009L40.2.067h-.836L38.531.1,37.7.059h-.835L36.025.026,35.19.1,34.867.075,34.355.032,33.52.115,32.685.08l-.835.03L31.014.058l-.836.054L29.343.081l-.836,0-.835.009L26.837.018,26,.108,25.166.046l-.835.03H23.5L22.66.032l-.835.012-.835.05L20.154.064,19.319.052l-.835.013-.835.03L16.813.019l-.835.048L15.142.038,14.307.09,13.472.07,12.636.055,11.8.04l-.835.038L10.131.054,9.3,0,8.461.011l-.835,0H6.791L5.955.072,5.12,0,4.285.079l-.835,0L2.615.049,1.8.08,1.5.842l-.287.793L.9,2.416.56,3.185.315,4,0,4.8.674,4.31l.706-.391.657-.479.714-.374L3.417,2.6l.67-.455.689-.42.827.021.827,0,.827-.016L8.083,1.7l.826.024.826.053.826-.049.546-.056.727-.113.934-.112,1.142-.225.727.113.623-.225.831.337h.623L18,1.734l.826-.019.826.005.826.049.826-.01.826-.016.826.008.826-.031.826.018.826-.052.826.031.826-.026.826.061.826-.063.826.034.826.048.826-.01.826.028.826.007.826-.049.826,0,.826-.037.574.062.252.027.826-.085.826.028.826-.033.826.061.826.021.826-.081.826.064.826.012.826-.022.826.022.826-.019.826.018.826-.063.826.031.826-.007.826-.047.826.094.826-.034.826-.042.621.18.826-.049.826-.009L55,1.879l-.558-.6Z" transform="translate(0 0.013)" fill="#bd9b5e"/>
      </g>
    </g>
    <path id="Fill_58" data-name="Fill 58" d="M38.288,3.935l.615.052.834-.027.834-.03.834.024.834-.005.834-.018.834.036.834-.008.834-.03.834.062.843-.016.279-.677.3-.661.3-.659.29-.662.247-.679L49,0l-.656.383-.687.354-.7.334-.678.366-.67.378-.693.344-.648.434-.842-.057-.83,0-.83.054-.83-.052-.83.013-.83-.039-.83.058-.83-.009-.67,0h-.16l-.83-.051-.83.022-.83,0-.83.013-.83.054-.829-.05-.829-.031-.83.066h-.829l-.829,0-.829-.06L25.448,2.51l-.621.188-.207.283-.828-.188H22.86L22.549,2.7l-.69-.2-.83.082L20.2,2.528l-.829,0L18.541,2.5l-.829.037-.829,0-.829-.044-.323.012-.506.019h-.829l-.829.015-.829,0-.829.022L11.078,2.5l-.829-.008-.829.048H8.59l-.829-.051-.829.005L6.1,2.524l-.829.01L4.444,2.51l-.829-.029-.829.008-.829.067L.489,2.465l-.14.687L0,4l2.194-.054.836-.052.835.04.835.04.835-.015.834.012L7.2,3.945,8.037,3.9l.835.007.835.015.834.02.834.048.834-.058.835-.018.7.053.135.01.834-.006.834.015.834,0,.834-.069.834-.009.834.043.834-.006.834-.007.834.007.834-.021.834.042.834-.024.834.021.834-.024.834-.033.834.073.834-.072.834,0,.834.005.834.041L31.4,3.9l.834.074.834,0L33.9,4l.834-.037.834-.025.834.024.834-.052.834.007Z" transform="translate(84 11)" fill="#bd9b5e"/>
    <path id="Fill_60" data-name="Fill 60" d="M.574,1.307l.3.661.282.669.324.654L1.734,4l.861-.025.833-.01.833-.01.833-.012L5.925,4l.833-.048.833-.041.833.061h.833l.833-.05.833.038.833-.012L12.588,4l.833-.007.833-.023.833-.047.833-.006.833.029.833.009.833.025.833-.04.833,0,.083,0,.75.018.833.014.833-.052,2.386.065.833-.05.832.034.832-.038.833,0,.832.01.833.022.833-.032,3.357-.02.833.074.833.008.833-.046.833.033.833-.051.833.007,3.552.055,2.775-.063.833-.016.833.029,1.628-.019.833.068.834-.065,1.843.034.52-.661.194-.7-2.544-.041h-.837l-1.781-.017L47,2.478l-.837.018-.837-.011-2.779.039-3.556.046-.837,0-.837-.068-.837,0-.837.049-.837,0-.837-.038L30.609,2.5l-.837.071-.837-.054L28.1,2.51l-.837.064h-.837l-.837,0-.837-.033-2.39.029L21.523,2.5l-.837-.009-.837.06-.385-.008-.452-.01-.837.036-.837,0-.837,0-.837-.044-.837.034L13.989,2.5l-.837.068-.837,0-.837.011L10.64,2.58,9.8,2.508l-.837.046-.837.035L7.29,2.547l-.837,0-.838.041-.835-.05-.688-.356-.67-.389-.673-.384-.713-.322-.7-.35L.65.375,0,0,.261.65Z" transform="translate(0 11)" fill="#bd9b5e"/>
  </g>
</svg>
