<svg xmlns="http://www.w3.org/2000/svg" xmlns:xlink="http://www.w3.org/1999/xlink" width="20" height="18" viewBox="0 0 20 18">
  <defs>
    <clipPath id="clip-path">
      <path id="Clip_2" data-name="Clip 2" d="M0,0H20V18H0Z" transform="translate(0.947)" fill="none"/>
    </clipPath>
  </defs>
  <g id="Reddit" transform="translate(-0.947)">
    <path id="Clip_2-2" data-name="Clip 2" d="M0,0H20V18H0Z" transform="translate(0.947)" fill="none"/>
    <g id="Reddit-2" data-name="Reddit" clip-path="url(#clip-path)">
      <path id="Fill_1" data-name="Fill 1" d="M9.975,18a12.076,12.076,0,0,1-3-.379A9.343,9.343,0,0,1,3.537,16a5.836,5.836,0,0,1-2-2.563,4.3,4.3,0,0,1-.256-2.167c.013-.09-.031-.115-.093-.149A2.12,2.12,0,0,1,0,9.106,2.075,2.075,0,0,1,1.322,7.135a2.219,2.219,0,0,1,.885-.2,2.19,2.19,0,0,1,1.407.553c.025.021.05.042.078.068A10.786,10.786,0,0,1,9.642,5.688l.03-.146q.073-.355.147-.711l.926-4.4A.38.38,0,0,1,11.123.1a.5.5,0,0,1,.1.011q1.25.265,2.5.534l.654.14L14.484.8a2.216,2.216,0,0,1,.236.054.243.243,0,0,0,.069.012c.052,0,.088-.027.128-.1A1.534,1.534,0,0,1,16.25,0a1.566,1.566,0,0,1,.229.017,1.58,1.58,0,0,1,1.093,2.4,1.527,1.527,0,0,1-.975.7,1.6,1.6,0,0,1-.343.037,1.556,1.556,0,0,1-1.533-1.288c-.039-.218-.039-.218-.252-.263L13,1.288l-.109-.023-.067-.014L11.595.986,11.489.966,11.431.955l-.5,2.368-.5,2.368a10.733,10.733,0,0,1,5.86,1.877,2.243,2.243,0,0,1,.863-.517,2.155,2.155,0,0,1,.657-.1,2.2,2.2,0,0,1,1.6.7,2.219,2.219,0,0,1-.568,3.453.2.2,0,0,0-.122.239,4.538,4.538,0,0,1-.762,3.066,6.981,6.981,0,0,1-2.574,2.288,10.48,10.48,0,0,1-3.68,1.185A12.706,12.706,0,0,1,9.975,18ZM6.557,14.207a.392.392,0,0,0-.292.135.417.417,0,0,0,.045.6,3.069,3.069,0,0,0,.938.614,7.014,7.014,0,0,0,2.746.516h.175a6.957,6.957,0,0,0,2.525-.493,3.137,3.137,0,0,0,1-.652.416.416,0,0,0,.019-.59.407.407,0,0,0-.294-.129.388.388,0,0,0-.269.11,2.74,2.74,0,0,1-1.114.626,6.823,6.823,0,0,1-2.028.31,7.3,7.3,0,0,1-1.676-.2,3.076,3.076,0,0,1-1.47-.711A.454.454,0,0,0,6.557,14.207Zm6.878-5.052h0a1.583,1.583,0,0,0-1.1,2.7,1.543,1.543,0,0,0,1.1.458,1.58,1.58,0,0,0,.006-3.16Zm-6.884,0a1.58,1.58,0,1,0,1.565,1.581A1.575,1.575,0,0,0,6.551,9.157Z" transform="translate(0.947)" fill="#bd9b5e"/>
    </g>
  </g>
</svg>
