<svg xmlns="http://www.w3.org/2000/svg" width="25" height="50.002" viewBox="0 0 25 50.002">
  <path id="Q_Rath_Logo" data-name="Q&apos;Rath Logo" d="M11.586,50h0a8.733,8.733,0,0,1-3.9-6.394c-.036-.2-.1-1.1-.186-2.336-.236-3.343-.63-8.938-1.112-10.032A5.631,5.631,0,0,0,2.969,27.8a5.732,5.732,0,0,0,1.51-3.385,6.471,6.471,0,0,1-.209-.941,10.631,10.631,0,0,1-2.865.68c-.151-.19-.3-.364-.46-.55C.674,23.289.366,22.93,0,22.43a22.563,22.563,0,0,0,6.782-3A9.594,9.594,0,0,1,12.5,17.5a9.889,9.889,0,0,1,5.829,1.935,24.365,24.365,0,0,0,6.671,3c-.365.5-.673.858-.945,1.174-.16.186-.31.361-.462.551a10.65,10.65,0,0,1-2.865-.679,6.305,6.305,0,0,1-.208.941,6.862,6.862,0,0,0,1.51,3.385,5.63,5.63,0,0,0-3.415,3.437c-.482,1.094-.877,6.689-1.112,10.032-.087,1.24-.151,2.135-.186,2.336A8.734,8.734,0,0,1,13.416,50l0-22.549a11.409,11.409,0,0,1,1.873-1.139c1.413-.739,2.873-1.5,3.515-3.621-.425-.19-.854-.419-1.307-.662-.2-.109-.412-.221-.623-.33a4.6,4.6,0,0,1-8.7-.023c-.232.12-.46.242-.68.36-.449.241-.873.468-1.295.656.642,2.118,2.1,2.882,3.515,3.621a11.409,11.409,0,0,1,1.873,1.139V50ZM13.1,20a10.187,10.187,0,0,0-3.1.519A3.257,3.257,0,0,0,13.127,22.5a3.267,3.267,0,0,0,3.123-1.965A10.206,10.206,0,0,0,13.1,20Zm10.6,0a3.461,3.461,0,0,1-1.291-.579.024.024,0,0,1,0-.027c1.6-1.92.119-3.438-1.756-5.359a16.165,16.165,0,0,1-3.493-4.6c-.683-1.542-1.311-4.56-.57-6.442.135-.343.21-.489.249-.489a.017.017,0,0,1,.013.006,2.11,2.11,0,0,1,.029.664,11.1,11.1,0,0,0,.847,5.066,11.322,11.322,0,0,0,3.218,3.9c.787.7,1.766,1.56,3.043,2.878a3.305,3.305,0,0,1,1.008,2.544,3.489,3.489,0,0,1-1.261,2.437A.064.064,0,0,1,23.695,20ZM2.556,20a.064.064,0,0,1-.038-.009,3.489,3.489,0,0,1-1.261-2.437A3.305,3.305,0,0,1,2.264,15.01c1.277-1.317,2.256-2.182,3.043-2.878a11.323,11.323,0,0,0,3.218-3.9,11.1,11.1,0,0,0,.847-5.067A2.108,2.108,0,0,1,9.4,2.506.017.017,0,0,1,9.414,2.5c.04,0,.114.146.249.489.741,1.88.114,4.9-.569,6.442a16.164,16.164,0,0,1-3.493,4.6c-1.875,1.921-3.356,3.438-1.756,5.359a.024.024,0,0,1,0,.027A3.465,3.465,0,0,1,2.556,20ZM20.939,18.75h0A26.648,26.648,0,0,1,15.5,13.778c-.931-1.3-1.556-3.937-1.712-7.232-.133-2.784.114-5.419.587-6.263C14.48.09,14.551,0,14.6,0a.033.033,0,0,1,.025.012,3.651,3.651,0,0,1-.01,1.2A21.061,21.061,0,0,0,15.435,9.9a12.251,12.251,0,0,0,3.827,4.991c1.476,1.3,2.542,2.24,1.678,3.855Zm-16.879,0h0c-.864-1.614.2-2.554,1.678-3.854A12.251,12.251,0,0,0,9.565,9.9,21.063,21.063,0,0,0,10.39,1.21a3.651,3.651,0,0,1-.01-1.2A.033.033,0,0,1,10.4,0c.045,0,.116.09.224.282.472.845.719,3.479.586,6.263-.157,3.3-.781,5.931-1.712,7.232a26.645,26.645,0,0,1-5.44,4.971Z" transform="translate(0 0)" fill="#bd9b5e"/>
</svg>
