<svg xmlns="http://www.w3.org/2000/svg" width="30" height="43.2" viewBox="0 0 30 43.2">
  <g id="Highlighted_Ability" data-name="Highlighted Ability" transform="translate(0 0)">
    <path id="Fill_1" data-name="Fill 1" d="M15.138,43.2h0L12.97,41.152l-2.119-2.2L8.7,36.787,6.317,33.6l-2.075-.99L2.206,30.337,0,28.31l1.711-1.82,1.832-1.8L5.4,22.8l1.928,2.055,1.991,1.877,2.039,1.827L13.1,30.675l2.033,1.872L17.08,30.7l1.782-1.964,1.937-1.81,1.943-1.8,1.838-1.85,1.8,1.764,1.843,1.786L30,28.607,27.819,30.6l-1.967,2.264-2.2,2.037-2.111,2.12-2.078,2.151-2.175,2.055L15.139,43.2ZM14.656,24h0l-2.167-1.9L10.543,20,8.684,17.816l-2.249-1.8L4.528,13.879l-2.128-2L4.545,9.99,6.326,7.822l2-1.953,2.049-1.9L12.252,1.9,14.363,0l1.97,2.142,2.023,2.026,2.182,1.864L22.51,8.106,24.5,10.161l1.9,2.012-1.879,1.936L22.56,16.1,20.618,18.1l-2,1.947-2.1,1.848L14.656,24Z" fill="#e2decb"/>
  </g>
</svg>
