<svg xmlns="http://www.w3.org/2000/svg" xmlns:xlink="http://www.w3.org/1999/xlink" width="18" height="18" viewBox="0 0 18 18">
  <defs>
    <clipPath id="clip-path">
      <path id="Clip_2" data-name="Clip 2" d="M0,0H18V18H0Z" transform="translate(0)" fill="none"/>
    </clipPath>
  </defs>
  <g id="Group_3" data-name="Group 3" transform="translate(0)">
    <path id="Clip_2-2" data-name="Clip 2" d="M0,0H18V18H0Z" transform="translate(0)" fill="none"/>
    <g id="Group_3-2" data-name="Group 3" clip-path="url(#clip-path)">
      <path id="Fill_1" data-name="Fill 1" d="M4.729,18a4,4,0,0,1-1.807-.437L5.26,15.226a.239.239,0,0,1,.1-.015,1.555,1.555,0,0,1,.169.014,1.731,1.731,0,0,0,.183.014.272.272,0,0,0,.2-.057l1.647-1.648c.078-.078.06-.243.043-.388a.607.607,0,0,1,0-.257l2.34-2.339A3.984,3.984,0,0,1,9.2,15.182L7.554,16.831A3.972,3.972,0,0,1,4.729,18ZM1.543,18h0L0,16.456l3.642-3.642,1.543,1.544L1.543,18ZM.434,15.079h0a3.984,3.984,0,0,1,.737-4.631L2.817,8.8a3.982,3.982,0,0,1,4.632-.733L5.111,10.4a.242.242,0,0,1-.093.014,1.529,1.529,0,0,1-.158-.012l-.015,0a1.733,1.733,0,0,0-.185-.014.265.265,0,0,0-.2.057L2.817,12.1c-.078.077-.059.242-.043.386a.6.6,0,0,1,0,.259L.435,15.078Zm6.124-2.092h0L5.013,11.442,11.25,5.207l1.543,1.543L6.558,12.985Zm5.778-2.594a3.973,3.973,0,0,1-1.8-.437l2.335-2.337a.241.241,0,0,1,.095-.015,1.522,1.522,0,0,1,.158.012l.014,0a1.735,1.735,0,0,0,.185.014.268.268,0,0,0,.2-.057l1.648-1.647c.078-.078.059-.243.042-.388a.607.607,0,0,1,0-.258l2.34-2.339a3.985,3.985,0,0,1-.736,4.632L15.161,9.223A3.97,3.97,0,0,1,12.335,10.392ZM8.041,7.472h0A3.983,3.983,0,0,1,8.778,2.84l1.648-1.648A3.982,3.982,0,0,1,15.058.458L12.721,2.8a.248.248,0,0,1-.095.014,1.57,1.57,0,0,1-.171-.014,1.736,1.736,0,0,0-.185-.014.265.265,0,0,0-.2.058L10.426,4.487c-.078.078-.059.242-.043.386a.6.6,0,0,1,0,.26L8.042,7.471Zm6.316-2.286h0L12.814,3.642,16.456,0,18,1.544,14.358,5.185Z" transform="translate(0 0)" fill="#bd9b5e"/>
    </g>
  </g>
</svg>
