<?xml version="1.0" encoding="UTF-8"?>
<svg width="32px" height="40px" viewBox="0 0 32 40" version="1.1" xmlns="http://www.w3.org/2000/svg" xmlns:xlink="http://www.w3.org/1999/xlink">
    <title>IMMORTAL Icon</title>
    <g id="Homepage" stroke="none" stroke-width="1" fill="none" fill-rule="evenodd">
        <g id="Home_Desktop" transform="translate(-20.000000, -10.000000)">
            <g id="IMMORTAL-Icon" transform="translate(20.000000, 10.000000)">
                <polygon id="Fill-1" fill="#F7F5F1" points="26.8406974 26.9699181 25.5515823 27.3933999 24.8283171 27.8493898 24.4510486 28.5987194 24.0790625 29.8085266 23.0658996 31.9460751 21.5445705 33.7311783 19.841844 35.3388547 17.7591022 36.3591951 15.5628946 37.0197566 13.2890359 37.4091979 11.0078874 37.0587227 8.76181404 36.502034 7.79724914 35.8831749 6.78059984 34.3644855 5.90234923 34.5842713 4.91221754 33.8570516 3.38486652 32.084098 1.96992481 29.3478301 2.31571024 31.9538464 3.25903993 33.8758779 4.70535904 35.5696955 5.90013062 37.1007534 6.37174264 37.8499735 7.18935139 37.5242352 9.07590511 38.7620629 9.95626868 38.9901673 13.5721721 40 15.7415452 39.4787748 17.9425069 39.1205283 19.1231217 39.1562107 20.8022887 38.1887371 22.3935566 37.0854297 23.7547236 36.0209789 25.8346129 34.5272452 26.1000003 32.924932 27.0832649 31.2171042 27.7515932 29.2693507 27.9119666 28.3106336 28.2556391 27.1652954 28.0983294 26.2857143"></polygon>
                <polygon id="Fill-2" fill="#F7F5F1" points="31.6842105 0 27.0087381 4.7806198 23.3071755 8.31621029 21.7487539 10.6567254 18.2151282 12.1765541 18.1389912 12.1352971 17.8322652 12.0144956 17.5114319 10.5571358 15.3686022 10.7065732 12.9333609 12.5490342 12.7873107 10.8559046 13.7916131 7.95285137 13.8099731 5.92595342 11.5015921 8.43732993 10.2547718 9.85990239 9.62150742 9.85990239 6.99156716 11.4037005 6.16360379 12.9972405 4.50778079 14.1425741 2.45550627 17.0496576 1.9976473 18.3427317 1.25930562 19.8148338 0.827067669 22.4979202 2.03104797 20.1936774 3.79080725 17.4159862 5.24166212 16.2480619 5.42536584 16.1380785 5.57919567 16.2691677 6.50507903 15.5097836 6.94592648 15.32418 7.97636848 14.9333517 10.1802945 14.3511926 11.2568958 14.2120429 12.5499792 15.5734192 13.8099731 15.487087 14.1678375 15.9622323 15.7657798 15.2196056 16.0028001 16.0270345 15.7962761 16.7200255 15.417251 19.5207316 13.8099731 22.8571429 15.6608062 22.2097573 18.5830543 18.8234982 19.1674624 17.578575 20.43368 16.4830892 24.0864901 11.3040049 31.6842105 2.68913178"></polygon>
                <polygon id="Fill-3" fill="#F7F5F1" points="30.5413534 10.2857143 25.4176876 17.5199961 24.3265506 19.2644499 24.3265506 21.3167293 22.0115093 22.3941732 21.3984962 25.1428571 25.0381793 24.2412355 26.5088246 23.6768341 27.6948387 21.5731959 27.8372049 18.59744 30.0194789 14.3902729"></polygon>
                <polygon id="Fill-4" fill="#F7F5F1" points="22.0278732 5.98496174 23.6842105 3.42857143 22.0278732 3.96992348 21.0340264 3.96992348 20.5702163 4.87224428 19.112782 6.2556883 19.112782 8 21.232818 7.18802245"></polygon>
                <polygon id="Fill-5" fill="#F7F5F1" points="31.6842105 31.157589 31.6776208 28.5714286 29.7760461 30.8547809 29.3984962 33.1428571 30.6531195 32.2872628"></polygon>
                <polygon id="Fill-6" fill="#BD9B5E" points="19.5453848 29.4222828 19.1192534 29.9821881 18.5997598 30.1933822 18.0290709 30.9561093 17.3174358 31.5912617 16.5959228 32.214274 15.7487584 32.6579074 14.8788642 33.053504 13.9594741 33.330317 13.0037588 33.4296348 12.0450695 33.4495193 11.0803259 33.4017965 10.1670963 33.0913892 9.24515708 32.8082969 8.4281575 32.3011378 7.6394109 31.7549424 7.0026568 31.0424498 6.34890844 30.344295 5.90992517 29.4985764 5.47370348 28.65066 5.24300625 27.7269733 4.89929711 26.8185662 5.16323939 25.8420286 5.24236896 24.9020156 5.41337381 23.965247 5.83185774 23.1075977 6.28634828 22.2731818 6.87604948 21.5252112 7.55167797 20.8536388 7.4710614 20.3245021 8.18131572 20.0445495 9.31770138 19.0647675 11.3942951 18.2857143 10.345961 18.452744 9.39736202 18.7199287 8.52555592 19.1746555 7.6978287 19.6948965 6.91577359 20.2824307 6.24396881 20.9907371 5.90843817 21.7241607 5.14858183 22.5954152 4.7188392 23.4708559 4.46955448 24.4122293 4.33317546 25.3724407 4.2556391 26.3397687 4.77906265 27.6481679 4.5961618 28.2431327 4.82579689 29.1872272 5.31098333 30.0320039 5.79064663 30.8757341 6.43218037 31.6083205 7.18460172 32.1515856 7.91917908 32.8594733 8.73830295 33.397401 9.66608394 33.7214135 10.5984321 34.0202041 11.5690174 34.1591862 12.5490558 34.2857143 13.5312185 34.1778148 14.4803485 33.9226654 15.4329836 33.6824817 16.3159422 33.254128 17.1579021 32.7531436 17.8407532 31.8017233 18.2669907 31.6616946 19.1530295 30.6397366 19.6992891 29.8347289 20.2556391 28.4426055"></polygon>
            </g>
        </g>
    </g>
</svg>