<svg xmlns="http://www.w3.org/2000/svg" width="1442" height="71.001" viewBox="0 0 1442 71.001">
  <path id="Fill_1" data-name="Fill 1" d="M1087.572,71H1064V48h7.857V63.333h7.857V55.667h23.572v7.666h7.857V48H1119V71h-23.571V63.333h-7.857V71Zm-463,0H601V32h7.857V63.2h7.857V47.6h23.572V63.2h7.857V32H656V71H632.428V55.4h-7.857V71Zm-462,0H139V31.714h7.86V63.143h7.857V16h23.57V63.143h7.854V31.714H194V71H170.429V23.857h-7.859V71Zm-69,0H70V31.714h7.857V63.143h7.857V16h23.572V63.143h7.857V31.714H125V71H101.428V23.857H93.571V71ZM1442,71h-7V64h7v7Zm-15.714,0H1387V16h55V39.571h-7.857V23.857h-39.286V63.143h31.429V71ZM1372,71h-23.571V39.571h-7.857V55.286H1317V16h23.572v7.857h-15.715V47.428h7.858V31.714h23.571V63.143h7.857V23.857h-15.714V16H1372V71Zm-30,0h-7V64h7v7Zm-16,0h-7V64h7v7Zm-23,0h-7V64h7v7Zm-15.333,0H1280V47.428h15.333V16H1303V55.286h-15.333V71ZM1272,71h-7.666V55.286H1249V16h7.666V47.428H1272V71Zm-16,0h-7V64h7v7Zm-21,0h-23V48h23V71Zm-16-16v7h7V55Zm-16,16h-7V64h7v7Zm-16,0h-7V64h7v7Zm-138,0h-23V63.143h15.334V16H1049V71Zm-32,0h-7V64h7v7Zm-15.333,0H994V16h23v7.857h-15.333V71ZM935,71H912V55.286h7.667v7.857h7.669V23.857h-7.669v7.857H912V16h23V71Zm-32,0H880V16h23V31.714h-7.669V23.857h-7.667V63.143h7.667V55.286H903V71Zm-38,0h-7V64h7v7Zm-15.717,0H810V16h55V39.571h-7.857V23.857H817.857V63.143h31.426V71ZM796,71H757V63.143h31.2V55.286H772.6V31.714h15.6V23.857H757V16h39V39.571H780.4v7.857H796V71Zm-48,0h-7V16h7V71Zm-22,0h-7V64h7v7Zm-15.715,0H671V16h55v7.857H678.857V63.143h31.428V71ZM542,71H487V47.428h15.715V39.571H487V16h55V39.571h-7.854V23.857H494.855v7.857h15.718V55.286H494.855v7.857h39.291V47.428H542V71Zm-70,0h-7V64h7v7Zm-15.714,0H417V16h55v7.857H424.857V63.143h31.429V71ZM403,71H364V63.143h31.2V55.286H379.6V31.714h15.6V23.857H364V16h39V39.571H387.4v7.857H403V71Zm-48,0h-7V16h7V71Zm-22,0H309.429V39.571h-7.858V55.286H278V16h23.571v7.857H285.857V47.428h7.857V31.714h23.572V63.143h7.857V23.857H309.429V16H333V71Zm-32,0h-7V64h7v7Zm-16,0h-7V64h7v7Zm-21,0H241V63.143h15.331V16H264V71Zm-32,0h-7V64h7v7Zm-15.33,0H209V16h23v7.857H216.67V71ZM55,71H0V16H31.429v7.857H7.857V63.143H47.143V39.571H55V71ZM1442,55h-7V48h7v7Zm-16,0h-23V32h23V55Zm-14-16v7h7V39ZM1203.57,55H1180V31.6h47.141V23.8H1180V16h55V39.4h-47.14v7.8h15.711V55ZM1033,55h-23V32h23V55Zm-14-16v7h7V39ZM865,55h-7V48h7v7Zm-16,0H826V32h23V55ZM833,39v7h7V39ZM764,55h-7V48h7v7Zm-38,0h-7V32h7V55Zm-16,0H687V32h23V55ZM696,39v7h7V39ZM526,55h-7V48h7v7Zm-54,0h-7V32h7V55Zm-16,0H433V32h23V55ZM441,39v7h7V39ZM371,55h-7V48h7v7ZM248,55H225V32h23V55ZM233,39v7h7V39ZM39,55H16V32H39V55ZM25,39v7h7V39Zm1078,7h-7V39h7v7Zm-16,0h-7V39h7v7ZM919,46h-7V39h7v7Zm-16,0h-7V39h7v7Zm385-7h-23V16h23V39Zm-15-14v7h7V25ZM1071.857,39H1064V16h23.572v7.666h7.857V16H1119V31.333h-7.857V23.666h-7.857v7.667h-23.572V23.666h-7.857V39ZM764,39h-7V32h7v7ZM640,39H617V16h23V39ZM626,25v7h7V25ZM526,39h-7V32h7v7ZM371,39h-7V32h7v7ZM57,32H49V24H41V16H57V32Zm976-9h-7V16h7v7ZM656,23h-7V16h7v7Zm-47,0h-7V16h7v7ZM248,23h-7V16h7v7Zm-54,0h-7V16h7v7Zm-48,0h-7V16h7v7Zm-21,0h-7V16h7v7ZM78,23H71V16h7v7ZM1442,7h-55V0h55V7Zm-70,0h-55V0h55V7Zm-68,0h-55V0h55V7Zm-69,0h-55V0h55V7ZM1119,7h-55V0h55V7Zm-70,0H994V0h55V7ZM935,7H880V0h55V7ZM865,7H810V0h55V7ZM796,7H741V0h55V7ZM726,7H671V0h55V7ZM656,7H601V0h55V7ZM542,7H487V0h55V7ZM472,7H417V0h55V7ZM403,7H348V0h55V7ZM333,7H278V0h55V7ZM264,7H209V0h55V7ZM194,7H139V0h55V7ZM125,7H70V0h55V7ZM55,7H0V0H55V7Z" fill="#243746" opacity="0.5"/>
</svg>
