<svg xmlns="http://www.w3.org/2000/svg" xmlns:xlink="http://www.w3.org/1999/xlink" width="17" height="34" viewBox="0 0 17 34">
  <defs>
    <clipPath id="clip-path">
      <path id="Clip_2" data-name="Clip 2" d="M0,0H17V34H0Z" transform="translate(0.899)" fill="none"/>
    </clipPath>
  </defs>
  <g id="Unit_Icon" data-name="Unit Icon" transform="translate(-0.899)">
    <path id="Clip_2-2" data-name="Clip 2" d="M0,0H17V34H0Z" transform="translate(0.899)" fill="none"/>
    <g id="Unit_Icon-2" data-name="Unit Icon" clip-path="url(#clip-path)">
      <path id="Fill_1" data-name="Fill 1" d="M9.152,34a.246.246,0,0,1-.074-.009l-.047-3.717.322-.314h.876l.829.448.506-.582-.921-.4-1.336-.851-.921.4-.921-.4-1.336.851-.922.4.507.582.829-.448H7.42l.322.314L7.7,33.991a4.553,4.553,0,0,1-.553-.09c-.391-.1-.7-.158-.953-.2-1.069-.184-1.069-.184-1.632-3.126-.1-.534-.218-1.14-.363-1.868,0-.007-.01-.721-1.058-1.165l-.875-.492c-.332-.184-.553-2.683-.553-4.254,0-.295,0-.608-.01-.939-.029-1.872-.065-4.2.839-4.659a1.189,1.189,0,0,1,.491-.105,2.244,2.244,0,0,1,1.258.508,5.71,5.71,0,0,0,2.949,1.335,1.354,1.354,0,0,0,.6-.126,1.29,1.29,0,0,0,.6-.627,1.332,1.332,0,0,0,.6.627,1.469,1.469,0,0,0,.615.126A5.626,5.626,0,0,0,12.578,17.6a2.293,2.293,0,0,1,1.279-.508,1.068,1.068,0,0,1,.471.105c.987.459.893,2.425.8,4.326-.007.142-.013.282-.02.421,0,1.641-.271,4.968-.6,5.106l-.875.492c-1.047.443-1.059,1.157-1.059,1.165-.1.638-.184,1.187-.258,1.672-.5,3.262-.5,3.262-1.744,3.395-.253.027-.567.06-.945.128A2.111,2.111,0,0,1,9.152,34Zm3.682-12.438a2.742,2.742,0,0,0-2.1,1.009c-.505.569-.744.9-.708.976a.036.036,0,0,0,.036.018,4.274,4.274,0,0,0,.948-.591,3.1,3.1,0,0,0,1.531.48,1.976,1.976,0,0,0,.357-.032,3.444,3.444,0,0,0,1.75-1.3A3.49,3.49,0,0,0,12.834,21.562ZM6.085,22.929h0a4.181,4.181,0,0,0,.948.591.036.036,0,0,0,.036-.018c.035-.078-.2-.407-.709-.976a2.739,2.739,0,0,0-2.1-1.009,3.528,3.528,0,0,0-1.817.561,3.444,3.444,0,0,0,1.75,1.3,1.976,1.976,0,0,0,.36.032,3.068,3.068,0,0,0,1.528-.479Zm7.708,10.848a.159.159,0,0,1-.122-.053.914.914,0,0,1-.08-.629,18.638,18.638,0,0,1,.344-2.138,13.484,13.484,0,0,0,.255-1.534c.023-.206.152-.236.408-.295a3.335,3.335,0,0,0,1.066-.422c.956-.62,1.013-4.173,1.013-4.209a17.987,17.987,0,0,1,.129-2.09A32.163,32.163,0,0,1,17,26.467a9.578,9.578,0,0,1-1.75,5.956l-.132.155C14.662,33.112,14.1,33.777,13.793,33.777Zm-10.674,0c-.3,0-.869-.665-1.324-1.2l-.132-.155A9.854,9.854,0,0,1,.005,26.377c.063-2.673.117-4.028.16-4.028s.07,2.06.07,2.148c0,.036.057,3.589,1.013,4.209a3.34,3.34,0,0,0,1.066.422c.256.059.384.089.408.295a13.484,13.484,0,0,0,.255,1.534A18.638,18.638,0,0,1,3.321,33.1a.914.914,0,0,1-.08.629A.159.159,0,0,1,3.119,33.777Zm5.36-16.714v0c-.021-.048-.524-1.169-1.15-1.387a8.348,8.348,0,0,0-1.217-.262,2.778,2.778,0,0,1-1.822-.769A4.606,4.606,0,0,0,7.043,13.58a2.036,2.036,0,0,1,2.871,0,4.608,4.608,0,0,0,2.756,1.064,2.836,2.836,0,0,1-1.744.725,7.853,7.853,0,0,0-1.3.306C9,15.892,8.5,17.013,8.48,17.061Zm8.242-.013c-.013-.121-.33-2.985-1.794-4.062-.36-.265-.734-.488-1.1-.7a5.566,5.566,0,0,1-3-3.507C9.962,6.032,10.044.06,10.045,0c.009.054.99,5.81,2.3,7.658a6.7,6.7,0,0,0,1.562,1.466c1.531,1.151,3.114,2.341,2.814,7.926Zm-16.345,0h0c-.3-5.607,1.281-6.793,2.811-7.939A7.026,7.026,0,0,0,4.749,7.658C6.069,5.8,7.042.058,7.052,0a.118.118,0,0,1,0,.035c.008,1.02.006,6.234-.785,8.743a5.566,5.566,0,0,1-3,3.507c-.362.215-.737.438-1.1.7C.706,14.066.389,16.929.376,17.05Z" transform="translate(2.033)" fill="#243746"/>
    </g>
  </g>
</svg>
