<svg id="Sunspear_Icon" data-name="Sunspear Icon" xmlns="http://www.w3.org/2000/svg" width="55" height="69" viewBox="0 0 55 69">
  <path id="Fill_1" data-name="Fill 1" d="M43.524,1.147l-2.256.71L40,2.622l-.66,1.257-.651,2.029L36.918,9.493l-2.662,2.994-2.98,2.7-3.645,1.711L23.788,18l-3.979.653-3.992-.588-3.931-.934L10.2,16.1,8.419,13.549l-1.537.369L5.149,12.7,2.476,9.724,0,5.135.605,9.506l1.651,3.223L4.787,15.57l2.091,2.568L7.7,19.394l1.431-.546,3.3,2.076,1.541.383L20.3,23l3.8-.874,3.852-.6,2.066.06,2.939-1.623,2.785-1.85,2.382-1.785,3.64-2.505.464-2.687L43.948,8.27,45.118,5,45.4,3.4,46,1.475,45.725,0Z" transform="translate(1 46)" fill="#90a4b3"/>
  <path id="Fill_2" data-name="Fill 2" d="M55,0,46.666,8.157l-6.6,6.033-2.778,3.994-6.3,2.593-.136-.07L30.31,20.5l-.572-2.487-3.819.255-4.341,3.144-.26-2.889,1.79-4.953.033-3.458L19.026,14.4,16.8,16.823H15.675l-4.688,2.634L9.512,22.177,6.561,24.131,2.9,29.091,2.086,31.3.77,33.809,0,38.387l2.146-3.932,3.137-4.739,2.586-1.993.327-.188.274.224,1.65-1.3.786-.317,1.837-.667,3.928-.993,1.919-.237,2.3,2.323,2.246-.147.638.811,2.848-1.267.422,1.378-.368,1.182-.676,4.779L23.141,39l3.3-1.1,5.209-5.778,1.042-2.124,2.257-1.869,6.511-8.837L55,4.588Z" fill="#90a4b3"/>
  <path id="Fill_3" data-name="Fill 3" d="M16,0,7.034,12.173,5.124,15.108v3.453L1.073,20.375,0,25l6.369-1.517,2.574-.95,2.076-3.54.249-5.007,3.819-7.079Z" transform="translate(36 18)" fill="#90a4b3"/>
  <path id="Fill_4" data-name="Fill 4" d="M4.464,4.474,7,0,4.464.947H2.942l-.71,1.579L0,4.947V8L3.246,6.579Z" transform="translate(32 5)" fill="#90a4b3"/>
  <path id="Fill_5" data-name="Fill 5" d="M3,5.092,2.991,0,.5,4.5,0,9,1.647,7.316Z" transform="translate(49 48)" fill="#90a4b3"/>
  <path id="Fill_6" data-name="Fill 6" d="M26.757,19.489l-.746.98-.909.37-1,1.335-1.245,1.112L21.6,24.375l-1.483.776-1.522.692-1.609.484-1.673.174-1.678.035-1.688-.084-1.6-.543-1.613-.5L7.3,24.527l-1.38-.956L4.807,22.324,3.663,21.1,2.9,19.623l-.763-1.484-.4-1.616-.6-1.59.462-1.709.138-1.645.3-1.639.732-1.5.8-1.46L4.586,5.669,5.768,4.494l-.141-.926,1.243-.49L8.859,1.363,12.493,0,10.658.292,9,.76l-1.526.8-1.449.91L4.655,3.494,3.48,4.734,2.892,6.017,1.563,7.542.811,9.074.374,10.721.136,12.4,0,14.095l.916,2.29L.6,17.425,1,19.078l.849,1.478.839,1.477,1.123,1.282,1.317.951L6.411,25.5l1.433.941,1.624.567,1.632.523,1.7.243L14.513,28l1.719-.189,1.661-.447,1.667-.42,1.545-.75,1.473-.877,1.195-1.665.746-.245L26.07,21.62l.956-1.409L28,17.775Z" transform="translate(7 30)" fill="#90a4b3"/>
</svg>
