<svg xmlns="http://www.w3.org/2000/svg" width="60" height="58.628" viewBox="0 0 60 58.628">
  <path id="Shael_Icon" data-name="Shael Icon" d="M29.314,58.628A29.347,29.347,0,0,1,0,29.314a29.233,29.233,0,0,1,9.091-21.2,3,3,0,0,1,4.686-3.644A29.283,29.283,0,0,1,54.671,14.594h-1.6A28.082,28.082,0,0,0,40.188,3.57a28.041,28.041,0,0,0-21.748,0A28.1,28.1,0,0,0,14.527,5.6a3,3,0,0,1-4.518,3.515c-.149.143-.3.291-.45.44A27.938,27.938,0,1,0,53.577,43.175h1.574A29.115,29.115,0,0,1,29.314,58.628ZM14.143,45.6c-.332,0-.657-.007-.967-.021l.122-2.79c.266.012.542.018.82.018A15.558,15.558,0,0,0,21.2,41.218a14.6,14.6,0,0,1-3.424-3.241,21.252,21.252,0,0,1-3.612.3c-.326,0-.659-.007-.991-.022l.118-2.79c.273.011.556.018.842.018a19.116,19.116,0,0,0,2.063-.11,14.575,14.575,0,0,1-.729-10.53,6.825,6.825,0,1,1,9.683-9.589,14.523,14.523,0,0,1,4.195-.616,14.793,14.793,0,0,1,2.035.142c.016-.185.026-.274.032-.332a1.745,1.745,0,0,0,.009-.3c0-.174-.006-.5-.006-1.146h2.792c-.034,1.052-.06,1.782-.085,2.442a14.538,14.538,0,1,1-10,27.3A17.678,17.678,0,0,1,14.143,45.6ZM34,18.323a57.879,57.879,0,0,1-1.738,12.665,21.233,21.233,0,0,1-5.609,9.686A11.81,11.81,0,0,0,34,18.323Zm-4.723,12.32a18.658,18.658,0,0,1-2.391,2.812,16.849,16.849,0,0,1-6.174,3.767c.1.11.2.213.291.3a11.808,11.808,0,0,0,2.727,2.038c.251-.208.5-.426.727-.647A19.315,19.315,0,0,0,29.276,30.643Zm-11.37-4.386a11.792,11.792,0,0,0,1.079,8.58,14.142,14.142,0,0,0,5.967-3.4c3.158-3.027,5.217-7.718,6.12-13.943a12.1,12.1,0,0,0-1.723-.124,11.881,11.881,0,0,0-2.809.336,6.83,6.83,0,0,1-8.634,8.549h0Zm2.126-10.522a4.033,4.033,0,1,0,4.033,4.034A4.038,4.038,0,0,0,20.032,15.736ZM60,39.67H50.777V36.6H60v3.073Zm0-6.148H50.777V30.448H60v3.073Zm0-6H56.926V21.371H53.852l-.026,6.135-3.048.014V18.3H60v9.222Z" transform="translate(0 0)" fill="#90a4b3"/>
</svg>
