<svg id="Nuath_Icon" data-name="Nuath Icon" xmlns="http://www.w3.org/2000/svg" xmlns:xlink="http://www.w3.org/1999/xlink" width="58.873" height="60" viewBox="0 0 58.873 60">
  <defs>
    <clipPath id="clip-path">
      <path id="Clip_2" data-name="Clip 2" d="M0,0H58.873V60H0Z" fill="none"/>
    </clipPath>
  </defs>
  <path id="Clip_2-2" data-name="Clip 2" d="M0,0H58.873V60H0Z" fill="none"/>
  <g id="Nuath_Icon-2" data-name="Nuath Icon" clip-path="url(#clip-path)">
    <path id="Fill_1" data-name="Fill 1" d="M28.836,60A28.808,28.808,0,0,1,6.861,49.812a2.952,2.952,0,0,1-3.326-4.827A28.848,28.848,0,0,1,26.408,2.432a2.952,2.952,0,0,1,5.827.1A28.765,28.765,0,0,1,53.779,16.685H52.2A27.624,27.624,0,0,0,39.533,5.841a27.256,27.256,0,0,0-7.412-1.965,2.954,2.954,0,0,1-5.643-.094A27.5,27.5,0,0,0,3.513,41.861a27.589,27.589,0,0,0,1.2,2.485,2.947,2.947,0,0,1,3.734,2.849,2.931,2.931,0,0,1-.573,1.744c.489.575,1,1.134,1.528,1.659a27.5,27.5,0,0,0,43.3-5.8h1.548A28.64,28.64,0,0,1,28.836,60ZM23.13,48.235h0c0-.02,0-.053,0-.1-.076-1.921.845-4.684,1.632-6.663a17.278,17.278,0,0,1,4.736-6.655l-9.13-4.645L30.6,25.464a39.5,39.5,0,0,0-15.254-4.771l-.565-4.081h.006a30.638,30.638,0,0,1,9.7,2.7,61.328,61.328,0,0,1,11.634,6.9L26.264,30.3l8.851,4.018c-.057.036-5.948,3.776-8.914,8.349C23.557,46.741,23.166,48.094,23.13,48.235Zm5.32-3.34c-.313,0-.631-.011-.948-.031.332-.545.684-1.1,1.047-1.661.219-.338.464-.681.727-1.021a11.59,11.59,0,0,0-.1-23.129c-1.07-.561-2.145-1.081-3.2-1.545-.487-.215-.98-.421-1.466-.612a14.277,14.277,0,1,1,3.938,28Zm-7.48-.254h0l-2.036-1.927A8.868,8.868,0,0,1,21.9,38.276a11.923,11.923,0,0,1,2.234-1.507,3.718,3.718,0,0,1-.2.365,26.1,26.1,0,0,0-2.969,7.505Zm37.9-3.307h-3V35.34h-3l-.025,5.98-2.971.013v-8.99h8.99v8.989ZM17.654,39.961h0a14.278,14.278,0,0,1-1.185-17.1c.507.051,1.568.179,2.98.46a11.573,11.573,0,0,0-.368,14.127,9.947,9.947,0,0,0-1.425,2.515ZM58.873,29.347h-8.99V20.356h8.99v8.99Zm-5.994-5.994v3h3v-3Z" transform="translate(0)" fill="#90a4b3"/>
  </g>
</svg>
